<svg width="108" height="145" viewBox="0 0 108 145" fill="none" xmlns="http://www.w3.org/2000/svg">
<path d="M1.40039 132.228C0.814608 132.814 0.814608 133.764 1.40039 134.349L10.9463 143.895C11.5321 144.481 12.4819 144.481 13.0677 143.895C13.6534 143.31 13.6534 142.36 13.0677 141.774L4.58237 133.289L13.0677 124.803C13.6534 124.218 13.6534 123.268 13.0677 122.682C12.4819 122.096 11.5321 122.096 10.9463 122.682L1.40039 132.228ZM49.9793 3.84266C82.9254 3.84264 106.799 35.6487 104.588 67.7125C103.489 83.6525 95.9184 99.6142 79.7159 111.623C63.4881 123.651 38.4936 131.789 2.46106 131.789L2.46105 134.789C38.9158 134.789 64.6045 126.558 81.5022 114.034C98.4253 101.49 106.423 84.7155 107.581 67.9189C109.885 34.5096 85.0301 0.842636 49.9793 0.842665L49.9793 3.84266Z" fill="#790166"/>
</svg>
