<svg width="550" height="119" viewBox="0 0 550 119" fill="none" xmlns="http://www.w3.org/2000/svg">
<path d="M537.214 12.8347L538.176 11.6837L537.214 12.8347ZM5.06169 55.4317L6.425 56.0573L6.425 56.0573L5.06169 55.4317ZM91.626 108.566C92.2118 107.98 92.2118 107.031 91.626 106.445L82.0801 96.8989C81.4943 96.3132 80.5445 96.3132 79.9587 96.8989C79.373 97.4847 79.373 98.4345 79.9587 99.0203L88.444 107.506L79.9587 115.991C79.373 116.577 79.373 117.526 79.9587 118.112C80.5445 118.698 81.4943 118.698 82.0801 118.112L91.626 108.566ZM539.609 45.3283L540.483 46.5479L540.483 46.5479L539.609 45.3283ZM495.957 3.42217C515.935 3.42226 530.767 9.40205 536.253 13.9858L538.176 11.6837C531.981 6.50688 516.379 0.422259 495.957 0.422168L495.957 3.42217ZM3.69838 54.8061C1.80346 58.9354 -2.80537 72.6404 6.66665 85.3394C16.0915 97.9751 39.0392 109.006 90.5653 109.006L90.5653 106.006C39.2121 106.006 17.5884 94.9643 9.07139 83.5457C0.601627 72.1904 4.68067 59.8585 6.425 56.0573L3.69838 54.8061ZM536.253 13.9858C544.227 20.6493 546.888 26.6207 546.692 31.5162C546.495 36.4288 543.402 40.7672 538.736 44.1088L540.483 46.5479C545.572 42.9036 549.442 37.8145 549.689 31.6363C549.938 25.4411 546.523 18.6586 538.176 11.6837L536.253 13.9858ZM538.736 44.1088C531.352 49.3967 517.994 52.7415 499.868 54.5038C481.823 56.2581 459.338 56.4235 433.945 55.5633C383.158 53.8429 320.94 48.0294 259.709 42.7222C198.516 37.4183 138.3 32.6195 91.6327 32.9525C68.3062 33.119 48.2791 34.567 33.1734 37.9057C25.6203 39.575 19.2309 41.7311 14.2547 44.4788C9.27893 47.2264 5.61889 50.6209 3.69837 54.8061L6.425 56.0573C7.98982 52.6472 11.072 49.6632 15.7049 47.1051C20.3374 44.5471 26.423 42.47 33.8209 40.835C48.6171 37.5647 68.3955 36.1184 91.6541 35.9525C138.157 35.6206 198.229 40.4047 259.45 45.711C320.634 51.014 382.956 56.8378 433.843 58.5616C459.287 59.4234 481.922 59.2626 500.158 57.4897C518.311 55.7248 532.392 52.3415 540.483 46.5479L538.736 44.1088Z" fill="#790166"/>
</svg>
