<svg width="533" height="128" viewBox="0 0 533 128" fill="none" xmlns="http://www.w3.org/2000/svg">
<path d="M516.631 12.2541L515.706 13.4348L516.631 12.2541ZM3.05861 94.8877L4.48701 94.4297L4.48701 94.4297L3.05861 94.8877ZM87.5124 118.177C88.1391 117.635 88.208 116.688 87.6662 116.061L78.8375 105.848C78.2957 105.222 77.3485 105.153 76.7218 105.695C76.0951 106.236 76.0262 107.184 76.568 107.81L84.4157 116.889L75.3375 124.736C74.7108 125.278 74.6419 126.225 75.1837 126.852C75.7254 127.479 76.6727 127.548 77.2994 127.006L87.5124 118.177ZM524.546 49.71L525.44 50.9148L525.482 50.8833L525.523 50.849L524.546 49.71ZM478.645 3.34568C498.491 3.30169 509.084 8.246 515.706 13.4348L517.556 11.0733C510.322 5.40496 499.045 0.300451 478.638 0.34569L478.645 3.34568ZM1.63022 95.3456C5.30253 106.801 15.219 111.649 29.5225 114.131C43.7781 116.605 63.1456 116.846 86.4226 118.538L86.6402 115.546C63.065 113.832 44.1009 113.617 30.0355 111.175C16.0181 108.743 7.62432 104.216 4.48701 94.4297L1.63022 95.3456ZM515.706 13.4348C522.083 18.4316 526.93 24.8848 528.715 31.2438C530.472 37.5056 529.283 43.6751 523.57 48.571L525.523 50.849C532.232 45.0987 533.635 37.6719 531.603 30.4332C529.599 23.2916 524.277 16.3399 517.556 11.0733L515.706 13.4348ZM523.653 48.5052C521.58 50.043 517.646 51.3326 511.803 52.2928C506.028 53.2417 498.62 53.8362 489.804 54.1391C472.176 54.7446 449.078 54.1799 422.481 53.019C369.381 50.7012 302.195 45.9958 237.416 43.568C172.595 41.1386 109.847 40.9707 65.2999 47.7493C43.0585 51.1337 25.1436 56.2772 13.7777 63.885C8.07219 67.704 3.92925 72.202 1.77489 77.4942C-0.388582 82.8087 -0.480331 88.762 1.63022 95.3456L4.48701 94.4297C2.55334 88.398 2.69889 83.1811 4.55348 78.6253C6.41718 74.0471 10.0731 69.9747 15.4464 66.3781C26.2382 59.1545 43.6009 54.0857 65.7512 50.7151C109.987 43.9839 172.478 44.1363 237.303 46.5659C302.171 48.997 369.038 53.6891 422.35 56.0161C448.959 57.1776 472.156 57.7471 489.907 57.1373C498.78 56.8325 506.333 56.2319 512.289 55.2531C518.176 54.2857 522.743 52.915 525.44 50.9148L523.653 48.5052Z" fill="#790166"/>
</svg>
