<svg width="158" height="158" viewBox="0 0 158 158" fill="none" xmlns="http://www.w3.org/2000/svg">
<path d="M78.9359 23.7908C109.34 23.7908 134.075 48.5256 134.075 78.9301C134.075 109.335 109.34 134.071 78.9359 134.071C48.532 134.071 23.7961 109.335 23.7961 78.9301C23.7961 48.5256 48.532 23.7908 78.9359 23.7908ZM78.9359 140.195C112.717 140.195 140.2 112.711 140.2 78.9301C140.2 45.1489 112.717 17.6663 78.9359 17.6663C45.1552 17.6663 17.6715 45.1489 17.6715 78.9301C17.6715 112.711 45.1552 140.195 78.9359 140.195Z" fill="url(#paint0_linear)"/>
<path d="M78.9359 6.55416C118.844 6.55416 151.31 39.0221 151.31 78.9302C151.31 118.838 118.844 151.306 78.9359 151.306C39.0284 151.306 6.561 118.838 6.561 78.9302C6.561 39.0221 39.0284 6.55416 78.9359 6.55416ZM78.9359 157.43C122.22 157.43 157.434 122.214 157.434 78.9302C157.434 35.6459 122.22 0.430176 78.9359 0.430176C35.6516 0.430176 0.437012 35.6459 0.437012 78.9302C0.437012 122.214 35.6516 157.43 78.9359 157.43Z" fill="url(#paint1_linear)"/>
<path d="M50.3103 83.9797C50.3103 85.6715 51.6811 87.0434 53.3723 87.0434H59.5638C61.0842 94.3702 64.7523 100.153 70.1351 103.44C73.3679 105.414 77.3653 106.523 81.3795 106.523C87.0547 106.523 92.7629 104.304 96.3908 99.177C97.3665 97.7967 97.0411 95.885 95.6591 94.9088C94.2788 93.9332 92.3671 94.2603 91.3915 95.6406C87.3717 101.323 78.8053 101.557 73.326 98.2125C69.0316 95.5909 66.9001 91.1625 65.858 87.0434H83.8526C85.5427 87.0434 86.9146 85.6715 86.9146 83.9797C86.9146 82.2897 85.5427 80.9177 83.8526 80.9177H64.9499C64.9108 80.2061 64.8969 79.5659 64.8969 79.0273C64.8969 78.9944 64.888 78.9631 64.8874 78.9302C64.888 78.8972 64.8969 78.866 64.8969 78.8331C64.8969 78.247 64.9159 77.5354 64.9633 76.7467H83.8526C85.5427 76.7467 86.9146 75.3765 86.9146 73.6847C86.9146 71.9946 85.5427 70.6227 83.8526 70.6227H65.911C66.971 66.5594 69.0992 62.2298 73.326 59.6479C78.8092 56.3029 87.3745 56.5401 91.3915 62.2198C92.3671 63.6001 94.2805 63.9288 95.6591 62.9515C97.0411 61.9753 97.3665 60.0637 96.3908 58.6834C90.1993 49.93 77.9419 49.6559 70.1351 54.4208C64.8009 57.6787 61.154 63.3886 59.609 70.6227H53.3723C51.6811 70.6227 50.3103 71.9946 50.3103 73.6847C50.3103 75.3765 51.6811 76.7467 53.3723 76.7467H58.8231C58.7902 77.4343 58.7729 78.1287 58.7729 78.8331C58.7729 78.8671 58.7818 78.8972 58.7824 78.9302C58.7818 78.9631 58.7729 78.9932 58.7729 79.0273C58.7729 79.6658 58.7902 80.2948 58.817 80.9177H53.3723C51.6811 80.9177 50.3103 82.2897 50.3103 83.9797Z" fill="url(#paint2_linear)"/>
<defs>
<linearGradient id="paint0_linear" x1="17.6715" y1="53.121" x2="129.236" y2="112.217" gradientUnits="userSpaceOnUse">
<stop stop-color="#F962A6" stop-opacity="0.75"/>
<stop offset="1" stop-color="#5156AA"/>
</linearGradient>
<linearGradient id="paint1_linear" x1="0.437012" y1="45.8594" x2="143.386" y2="121.579" gradientUnits="userSpaceOnUse">
<stop stop-color="#F962A6" stop-opacity="0.75"/>
<stop offset="1" stop-color="#5156AA"/>
</linearGradient>
<linearGradient id="paint2_linear" x1="50.3103" y1="67.3061" x2="95.6145" y2="87.5893" gradientUnits="userSpaceOnUse">
<stop stop-color="#F962A6" stop-opacity="0.75"/>
<stop offset="1" stop-color="#5156AA"/>
</linearGradient>
</defs>
</svg>
