<svg width="161" height="160" viewBox="0 0 161 160" fill="none" xmlns="http://www.w3.org/2000/svg">
<g clip-path="url(#clip0)">
<path d="M148.902 72.3012L144.78 55.7277C145.907 55.4871 146.753 54.4821 146.753 53.278V50.6058C146.753 44.804 142.057 40.084 136.286 40.084H117.512V34.5721C117.512 31.7171 115.202 29.3946 112.362 29.3946H16.6649C13.8248 29.3946 11.5145 31.7171 11.5145 34.5721V80.0002C11.5145 81.3837 12.6302 82.5055 14.0067 82.5055C15.3829 82.5055 16.4989 81.384 16.4989 80.0002V34.5721C16.4989 34.4799 16.5732 34.4052 16.6649 34.4052H112.362C112.453 34.4052 112.528 34.4799 112.528 34.5721V80.0008C112.528 81.3843 113.643 82.5062 115.02 82.5062C116.396 82.5062 117.512 81.3846 117.512 80.0008V77.1608H146.91C146.913 77.1608 146.914 77.1615 146.917 77.1615C146.919 77.1615 146.921 77.1612 146.923 77.1612C150.541 77.1637 153.613 79.5505 154.668 82.8396H146.918C145.542 82.8396 144.426 83.9612 144.426 85.3449V90.6893C144.426 95.0177 147.929 98.539 152.235 98.539H155.059V109.562H148.543C146.402 103.348 140.527 98.8727 133.627 98.8727C126.728 98.8727 120.852 103.348 118.711 109.562H117.511V90.689C117.511 89.3055 116.396 88.1837 115.019 88.1837C113.643 88.1837 112.527 89.3052 112.527 90.689V109.561H60.8216C58.681 103.348 52.8053 98.8721 45.9057 98.8721C39.0061 98.8721 33.1301 103.348 30.9898 109.561H16.6649C16.5732 109.561 16.4989 109.486 16.4989 109.394V103.883H27.298C28.6742 103.883 29.7902 102.761 29.7902 101.377C29.7902 99.9937 28.6745 98.8721 27.298 98.8721H3.37391C1.99772 98.8721 0.881714 99.9937 0.881714 101.377C0.881714 102.761 1.9974 103.883 3.37391 103.883H11.5148V109.394C11.5148 112.249 13.8252 114.572 16.6652 114.572H30.1269C30.1262 114.627 30.1225 114.683 30.1225 114.739C30.1225 123.487 37.2031 130.605 45.9057 130.605C54.6083 130.605 61.6889 123.487 61.6889 114.739C61.6889 114.682 61.6851 114.627 61.6845 114.572H117.848C117.848 114.627 117.844 114.683 117.844 114.739C117.844 123.487 124.924 130.605 133.627 130.605C142.33 130.605 149.41 123.487 149.41 114.739C149.41 114.682 149.407 114.627 149.406 114.572H157.552C158.928 114.572 160.044 113.45 160.044 112.066V85.3443C160.044 78.7468 155.202 73.2652 148.902 72.3012ZM117.512 45.0943H136.286C139.309 45.0943 141.769 47.5668 141.769 50.6058V50.7727H117.512V45.0943ZM117.512 72.1505V55.783H139.657L143.727 72.1505H117.512ZM45.9057 125.595C39.9511 125.595 35.1066 120.726 35.1066 114.739C35.1066 108.753 39.9511 103.883 45.9057 103.883C51.8603 103.883 56.7048 108.753 56.7048 114.739C56.7048 120.726 51.8603 125.595 45.9057 125.595ZM133.628 125.595C127.673 125.595 122.829 120.726 122.829 114.739C122.829 108.753 127.673 103.883 133.628 103.883C139.582 103.883 144.427 108.753 144.427 114.739C144.427 120.726 139.582 125.595 133.628 125.595ZM155.06 93.5283H152.235C150.678 93.5283 149.411 92.2546 149.411 90.689V87.8496H155.06V93.5283H155.06Z" fill="#8277BB"/>
<path d="M45.9056 109.562C43.0656 109.562 40.7552 111.884 40.7552 114.739C40.7552 117.594 43.0656 119.917 45.9056 119.917C48.7457 119.917 51.056 117.594 51.056 114.739C51.056 111.884 48.7457 109.562 45.9056 109.562Z" fill="#8277BB"/>
<path d="M133.628 109.562C130.788 109.562 128.477 111.884 128.477 114.739C128.477 117.594 130.788 119.917 133.628 119.917C136.468 119.917 138.778 117.594 138.778 114.739C138.778 111.884 136.468 109.562 133.628 109.562Z" fill="#8277BB"/>
<path d="M104.387 98.873H67.1716C65.7954 98.873 64.6794 99.9946 64.6794 101.378C64.6794 102.762 65.7951 103.884 67.1716 103.884H104.387C105.763 103.884 106.879 102.762 106.879 101.378C106.879 99.9946 105.764 98.873 104.387 98.873Z" fill="#8277BB"/>
<path d="M40.5893 88.184H8.69032C7.31412 88.184 6.19812 89.3055 6.19812 90.6893C6.19812 92.073 7.31381 93.1946 8.69032 93.1946H40.5893C41.9655 93.1946 43.0815 92.073 43.0815 90.6893C43.0815 89.3055 41.9655 88.184 40.5893 88.184Z" fill="#8277BB"/>
<path d="M87.5415 54.1784C86.5685 53.2003 84.9903 53.2003 84.0173 54.1788L61.8552 76.4572L50.3261 64.8675C49.3528 63.8891 47.7749 63.8891 46.8019 64.8675C45.8286 65.8459 45.8286 67.4319 46.8019 68.4103L60.0932 81.7716C60.5797 82.2609 61.2176 82.5053 61.8552 82.5053C62.4927 82.5053 63.1309 82.2609 63.6171 81.7716L87.5412 57.7216C88.5145 56.7428 88.5145 55.1569 87.5415 54.1784Z" fill="#8277BB"/>
</g>
<defs>
<clipPath id="clip0">
<rect width="159.162" height="160" fill="white" transform="translate(0.881714 0.000244141)"/>
</clipPath>
</defs>
</svg>
