<svg width="77" height="77" viewBox="0 0 77 77" fill="none" xmlns="http://www.w3.org/2000/svg">
<rect width="75.9899" height="75.9899" transform="translate(0.354614 0.885254)" fill="white"/>
<g clip-path="url(#clip0)">
<path d="M26.1849 38.5C26.1849 31.7808 31.6304 26.3324 38.3496 26.3324C45.0688 26.3324 50.5172 31.7808 50.5172 38.5C50.5172 45.2192 45.0688 50.6676 38.3496 50.6676C31.6304 50.6676 26.1849 45.2192 26.1849 38.5ZM19.6073 38.5C19.6073 48.8514 27.9982 57.2423 38.3496 57.2423C48.701 57.2423 57.0919 48.8514 57.0919 38.5C57.0919 28.1486 48.701 19.7577 38.3496 19.7577C27.9982 19.7577 19.6073 28.1486 19.6073 38.5ZM53.4539 19.0145C53.4535 19.8808 53.7101 20.7278 54.1911 21.4482C54.6721 22.1687 55.3559 22.7304 56.1561 23.0622C56.9563 23.3941 57.837 23.4811 58.6867 23.3125C59.5364 23.1438 60.317 22.727 60.9298 22.1147C61.5426 21.5024 61.96 20.7221 62.1294 19.8725C62.2987 19.0229 62.2123 18.1422 61.8812 17.3418C61.55 16.5413 60.9888 15.857 60.2687 15.3754C59.5487 14.8939 58.7019 14.6366 57.8356 14.6363H57.8339C56.6727 14.6368 55.5592 15.0982 54.738 15.9192C53.9167 16.7401 53.4549 17.8534 53.4539 19.0145V19.0145ZM23.6036 68.2101C20.045 68.0481 18.1108 67.4553 16.8254 66.9545C15.1213 66.2911 13.9054 65.5009 12.627 64.2243C11.3487 62.9477 10.5573 61.733 9.89684 60.0289C9.39577 58.7441 8.80301 56.8093 8.64124 53.2507C8.46429 49.4033 8.42895 48.2475 8.42895 38.5003C8.42895 28.753 8.46721 27.6005 8.64124 23.7499C8.8033 20.1913 9.40044 18.2603 9.89684 16.9717C10.5603 15.2676 11.3504 14.0517 12.627 12.7733C13.9037 11.495 15.1184 10.7036 16.8254 10.0431C18.1102 9.54207 20.045 8.94931 23.6036 8.78754C27.451 8.61059 28.6067 8.57526 38.3496 8.57526C48.0925 8.57526 49.2494 8.61351 53.1 8.78754C56.6586 8.9496 58.5896 9.54674 59.8782 10.0431C61.5823 10.7036 62.7982 11.4967 64.0766 12.7733C65.3549 14.05 66.1433 15.2676 66.8068 16.9717C67.3078 18.2565 67.9006 20.1913 68.0624 23.7499C68.2393 27.6005 68.2746 28.753 68.2746 38.5003C68.2746 48.2475 68.2393 49.4001 68.0624 53.2507C67.9003 56.8093 67.3046 58.7435 66.8068 60.0289C66.1433 61.733 65.3532 62.9489 64.0766 64.2243C62.7999 65.4998 61.5823 66.2911 59.8782 66.9545C58.5934 67.4556 56.6586 68.0484 53.1 68.2101C49.2526 68.3871 48.0969 68.4224 38.3496 68.4224C28.6024 68.4224 27.4498 68.3871 23.6036 68.2101V68.2101ZM23.3014 2.22104C19.4157 2.398 16.7606 3.01412 14.4418 3.9164C12.0404 4.84817 10.0075 6.09822 7.97606 8.12645C5.94462 10.1547 4.69778 12.1908 3.76601 14.5922C2.86373 16.9124 2.24761 19.5661 2.07065 23.4518C1.89078 27.3436 1.84961 28.5878 1.84961 38.5C1.84961 48.4122 1.89078 49.6564 2.07065 53.5482C2.24761 57.4342 2.86373 60.0876 3.76601 62.4078C4.69778 64.8077 5.94491 66.8462 7.97606 68.8735C10.0072 70.9009 12.0404 72.1492 14.4418 73.0836C16.765 73.9859 19.4157 74.602 23.3014 74.779C27.1952 74.9559 28.4374 75 38.3496 75C48.2618 75 49.5061 74.9588 53.3978 74.779C57.2838 74.602 59.9372 73.9859 62.2574 73.0836C64.6574 72.1492 66.6917 70.9018 68.7232 68.8735C70.7546 66.8453 71.9988 64.8077 72.9332 62.4078C73.8355 60.0876 74.4545 57.4339 74.6286 53.5482C74.8055 49.6535 74.8467 48.4122 74.8467 38.5C74.8467 28.5878 74.8055 27.3436 74.6286 23.4518C74.4516 19.5658 73.8355 16.911 72.9332 14.5922C71.9988 12.1923 70.7514 10.1579 68.7232 8.12645C66.6949 6.09501 64.6574 4.84817 62.2603 3.9164C59.9372 3.01412 57.2835 2.39508 53.4007 2.22104C49.509 2.04409 48.2648 2 38.3525 2C28.4403 2 27.1952 2.04117 23.3014 2.22104Z" fill="url(#paint0_radial)"/>
<path d="M26.1849 38.5C26.1849 31.7808 31.6304 26.3324 38.3496 26.3324C45.0688 26.3324 50.5172 31.7808 50.5172 38.5C50.5172 45.2192 45.0688 50.6676 38.3496 50.6676C31.6304 50.6676 26.1849 45.2192 26.1849 38.5ZM19.6073 38.5C19.6073 48.8514 27.9982 57.2423 38.3496 57.2423C48.701 57.2423 57.0919 48.8514 57.0919 38.5C57.0919 28.1486 48.701 19.7577 38.3496 19.7577C27.9982 19.7577 19.6073 28.1486 19.6073 38.5ZM53.4539 19.0145C53.4535 19.8808 53.7101 20.7278 54.1911 21.4482C54.6721 22.1687 55.3559 22.7304 56.1561 23.0622C56.9563 23.3941 57.837 23.4811 58.6867 23.3125C59.5364 23.1438 60.317 22.727 60.9298 22.1147C61.5426 21.5024 61.96 20.7221 62.1294 19.8725C62.2987 19.0229 62.2123 18.1422 61.8812 17.3418C61.55 16.5413 60.9888 15.857 60.2687 15.3754C59.5487 14.8939 58.7019 14.6366 57.8356 14.6363H57.8339C56.6727 14.6368 55.5592 15.0982 54.738 15.9192C53.9167 16.7401 53.4549 17.8534 53.4539 19.0145V19.0145ZM23.6036 68.2101C20.045 68.0481 18.1108 67.4553 16.8254 66.9545C15.1213 66.2911 13.9054 65.5009 12.627 64.2243C11.3487 62.9477 10.5573 61.733 9.89684 60.0289C9.39577 58.7441 8.80301 56.8093 8.64124 53.2507C8.46429 49.4033 8.42895 48.2475 8.42895 38.5003C8.42895 28.753 8.46721 27.6005 8.64124 23.7499C8.8033 20.1913 9.40044 18.2603 9.89684 16.9717C10.5603 15.2676 11.3504 14.0517 12.627 12.7733C13.9037 11.495 15.1184 10.7036 16.8254 10.0431C18.1102 9.54207 20.045 8.94931 23.6036 8.78754C27.451 8.61059 28.6067 8.57526 38.3496 8.57526C48.0925 8.57526 49.2494 8.61351 53.1 8.78754C56.6586 8.9496 58.5896 9.54674 59.8782 10.0431C61.5823 10.7036 62.7982 11.4967 64.0766 12.7733C65.3549 14.05 66.1433 15.2676 66.8068 16.9717C67.3078 18.2565 67.9006 20.1913 68.0624 23.7499C68.2393 27.6005 68.2746 28.753 68.2746 38.5003C68.2746 48.2475 68.2393 49.4001 68.0624 53.2507C67.9003 56.8093 67.3046 58.7435 66.8068 60.0289C66.1433 61.733 65.3532 62.9489 64.0766 64.2243C62.7999 65.4998 61.5823 66.2911 59.8782 66.9545C58.5934 67.4556 56.6586 68.0484 53.1 68.2101C49.2526 68.3871 48.0969 68.4224 38.3496 68.4224C28.6024 68.4224 27.4498 68.3871 23.6036 68.2101V68.2101ZM23.3014 2.22104C19.4157 2.398 16.7606 3.01412 14.4418 3.9164C12.0404 4.84817 10.0075 6.09822 7.97606 8.12645C5.94462 10.1547 4.69778 12.1908 3.76601 14.5922C2.86373 16.9124 2.24761 19.5661 2.07065 23.4518C1.89078 27.3436 1.84961 28.5878 1.84961 38.5C1.84961 48.4122 1.89078 49.6564 2.07065 53.5482C2.24761 57.4342 2.86373 60.0876 3.76601 62.4078C4.69778 64.8077 5.94491 66.8462 7.97606 68.8735C10.0072 70.9009 12.0404 72.1492 14.4418 73.0836C16.765 73.9859 19.4157 74.602 23.3014 74.779C27.1952 74.9559 28.4374 75 38.3496 75C48.2618 75 49.5061 74.9588 53.3978 74.779C57.2838 74.602 59.9372 73.9859 62.2574 73.0836C64.6574 72.1492 66.6917 70.9018 68.7232 68.8735C70.7546 66.8453 71.9988 64.8077 72.9332 62.4078C73.8355 60.0876 74.4545 57.4339 74.6286 53.5482C74.8055 49.6535 74.8467 48.4122 74.8467 38.5C74.8467 28.5878 74.8055 27.3436 74.6286 23.4518C74.4516 19.5658 73.8355 16.911 72.9332 14.5922C71.9988 12.1923 70.7514 10.1579 68.7232 8.12645C66.6949 6.09501 64.6574 4.84817 62.2603 3.9164C59.9372 3.01412 57.2835 2.39508 53.4007 2.22104C49.509 2.04409 48.2648 2 38.3525 2C28.4403 2 27.1952 2.04117 23.3014 2.22104Z" fill="url(#paint1_radial)"/>
</g>
<defs>
<radialGradient id="paint0_radial" cx="0" cy="0" r="1" gradientUnits="userSpaceOnUse" gradientTransform="translate(11.5481 75.3449) scale(95.2954)">
<stop offset="0.09" stop-color="#FA8F21"/>
<stop offset="0.78" stop-color="#D82D7E"/>
</radialGradient>
<radialGradient id="paint1_radial" cx="0" cy="0" r="1" gradientUnits="userSpaceOnUse" gradientTransform="translate(46.1209 78.6152) scale(75.1059)">
<stop offset="0.64" stop-color="#8C3AAA" stop-opacity="0"/>
<stop offset="1" stop-color="#8C3AAA"/>
</radialGradient>
<clipPath id="clip0">
<rect width="73" height="73" fill="white" transform="translate(1.84961 2)"/>
</clipPath>
</defs>
</svg>
