<svg width="67" height="75" viewBox="0 0 67 75" fill="none" xmlns="http://www.w3.org/2000/svg">
<path d="M66.4113 18.779C62.1244 18.779 58.1691 17.3588 54.9928 14.963C51.35 12.2166 48.7327 8.18793 47.8084 3.54453C47.5795 2.39725 47.4563 1.2133 47.4446 0H35.1986V33.4618L35.184 51.7904C35.184 56.6905 31.993 60.8453 27.5697 62.3066C26.2859 62.7306 24.8995 62.9316 23.4559 62.8523C21.6132 62.7511 19.8864 62.1951 18.3856 61.2972C15.1917 59.387 13.0262 55.9217 12.9675 51.9576C12.8751 45.762 17.8838 40.7108 24.075 40.7108C25.2971 40.7108 26.4708 40.9103 27.5697 41.2727V32.1267V28.8389C26.4107 28.6673 25.2311 28.5778 24.0383 28.5778C17.2618 28.5778 10.9239 31.3946 6.39344 36.4694C2.96921 40.3044 0.915262 45.1972 0.598367 50.3277C0.183176 57.0675 2.64938 63.4744 7.43215 68.2014C8.1349 68.8954 8.87285 69.5394 9.64455 70.1336C13.7451 73.2894 18.7582 75 24.0383 75C25.2311 75 26.4107 74.912 27.5697 74.7403C32.5021 74.0097 37.053 71.7518 40.6445 68.2014C45.0576 63.8397 47.4959 58.049 47.5223 51.8857L47.4592 24.5154C49.5645 26.1395 51.8664 27.4833 54.337 28.5264C58.1794 30.1476 62.2535 30.9692 66.4465 30.9677V22.0756V18.776C66.4495 18.779 66.4143 18.779 66.4113 18.779V18.779Z" fill="#790142" fill-opacity="0.9"/>
</svg>
