<svg width="87" height="88" viewBox="0 0 87 88" fill="none" xmlns="http://www.w3.org/2000/svg">
<g clip-path="url(#clip0)">
<path fill-rule="evenodd" clip-rule="evenodd" d="M0.126221 44.3013C0.126221 65.8876 15.804 83.8376 36.3085 87.4775V56.1184H25.4538V44.0588H36.3085V34.409C36.3085 23.5544 43.3025 17.5264 53.1947 17.5264C56.3281 17.5264 59.7075 18.0076 62.8409 18.4888V29.5859H57.2942C51.9862 29.5859 50.7814 32.2381 50.7814 35.6175V44.0588H62.3597L60.4312 56.1184H50.7814V87.4775C71.2859 83.8376 86.9636 65.8912 86.9636 44.3013C86.9636 20.2871 67.4252 0.640137 43.5449 0.640137C19.6646 0.640137 0.126221 20.2871 0.126221 44.3013Z" fill="#464646" fill-opacity="0.8"/>
</g>
<defs>
<clipPath id="clip0">
<rect width="86.8374" height="86.8374" fill="white" transform="translate(0.126221 0.640137)"/>
</clipPath>
</defs>
</svg>
