<svg width="40" height="40" viewBox="0 0 40 40" fill="none" xmlns="http://www.w3.org/2000/svg">
<g clip-path="url(#clip0)">
<path d="M12.7447 18.2696L15.4685 19.1546C15.6321 18.8815 15.8201 18.625 16.0287 18.3868L11.3012 11.8799C7.47099 11.1082 3.41739 12.1475 0.388553 14.87C0.0766771 15.1503 -0.0616825 15.576 0.0258176 15.9861C0.875976 19.9689 3.54465 23.1924 7.09692 24.8194L14.7433 22.335C14.7141 22.0094 14.7127 21.7241 14.7433 21.3833L12.0204 20.4986C11.4049 20.2986 11.068 19.6375 11.268 19.0219C11.468 18.4064 12.1287 18.0694 12.7447 18.2696Z" fill="#5156AA"/>
<path d="M20.5871 1.04764C20.2242 0.837644 19.7766 0.837644 19.4136 1.04764C15.8885 3.08687 13.6474 6.62101 13.1978 10.5022L17.9233 17.0064C18.2125 16.8821 18.5154 16.784 18.8285 16.7128V13.8496C18.8285 13.2024 19.3532 12.6777 20.0003 12.6777C20.6475 12.6777 21.1722 13.2024 21.1722 13.8496V16.7128C21.4853 16.784 21.7882 16.8822 22.0775 17.0065L26.803 10.5023C26.3533 6.62109 24.1123 3.08695 20.5871 1.04764Z" fill="#5156AA"/>
<path d="M20.0003 18.9237C18.3817 18.9237 17.0649 20.2405 17.0649 21.8591C17.0649 23.4777 18.3817 24.7945 20.0003 24.7945C21.6189 24.7945 22.9357 23.4777 22.9357 21.8591C22.9357 20.2405 21.6189 18.9237 20.0003 18.9237Z" fill="#5156AA"/>
<path d="M39.6113 14.87C36.5825 12.1475 32.5289 11.1081 28.6986 11.8799L23.9712 18.3867C24.1798 18.625 24.3678 18.8815 24.5314 19.1546L27.2553 18.2695C27.8707 18.0693 28.5319 18.4063 28.7319 19.0218C28.9319 19.6374 28.595 20.2985 27.9795 20.4985L25.2565 21.3832C25.2857 21.7089 25.2871 21.9942 25.2565 22.3349L32.9028 24.8193C36.4552 23.1923 39.1238 19.9688 39.974 15.986C40.0615 15.576 39.9232 15.1503 39.6113 14.87Z" fill="#5156AA"/>
<path d="M17.9231 26.7118L16.2404 29.0279C15.8599 29.5516 15.1269 29.6674 14.6035 29.2871C14.08 28.9066 13.9639 28.1738 14.3443 27.6502L16.0289 25.3315C15.8203 25.0933 15.6323 24.8367 15.4687 24.5637L7.82151 27.0484C5.90392 30.4528 5.63963 34.6292 7.29283 38.3511C7.46307 38.7344 7.8251 38.9974 8.24221 39.0409C12.2928 39.4633 16.1832 37.9213 18.8283 35.0456V27.0056C18.5153 26.9343 18.2124 26.8361 17.9231 26.7118Z" fill="#5156AA"/>
<path d="M32.1788 27.0484L24.5315 24.5637C24.3679 24.8368 24.1799 25.0933 23.9713 25.3315L25.6559 27.6502C26.0363 28.1738 25.9202 28.9067 25.3966 29.2871C24.8731 29.6675 24.1402 29.5514 23.7598 29.0279L22.0771 26.7118C21.7878 26.8361 21.4849 26.9343 21.1719 27.0056V35.0472C23.8584 37.9677 27.7672 39.4569 31.758 39.0408C32.1751 38.9974 32.5372 38.7343 32.7074 38.351C34.3607 34.6291 34.0964 30.4527 32.1788 27.0484Z" fill="#5156AA"/>
</g>
<defs>
<clipPath id="clip0">
<rect width="40" height="40" fill="white"/>
</clipPath>
</defs>
</svg>
