<svg width="88" height="88" viewBox="0 0 88 88" fill="none" xmlns="http://www.w3.org/2000/svg">
<g clip-path="url(#clip0)">
<path d="M43.9715 0.640137C32.1698 0.640137 30.6989 0.697124 26.0803 0.892508C21.4426 1.12046 18.3056 1.83958 15.5377 2.91419C12.6407 4.00786 10.0172 5.72017 7.84985 7.93176C5.63209 10.094 3.91883 12.719 2.83228 15.6196C1.75767 18.3875 1.03855 21.5245 0.810599 26.1622C0.601646 30.7836 0.558228 32.2517 0.558228 44.0534C0.558228 55.8552 0.615215 57.326 0.810599 61.9446C1.03855 66.5687 1.75767 69.7193 2.83228 72.4872C3.92595 75.3842 5.63826 78.0077 7.84985 80.175C10.0121 82.3928 12.6371 84.1061 15.5377 85.1926C18.3056 86.2537 21.4562 86.9864 26.0803 87.2143C30.7017 87.4233 32.1698 87.4667 43.9715 87.4667C55.7732 87.4667 57.244 87.4097 61.8627 87.2143C66.4868 86.9864 69.6374 86.251 72.4053 85.1926C75.3023 84.099 77.9258 82.3867 80.0931 80.175C82.3138 78.0152 84.0275 75.3895 85.1107 72.4872C86.1717 69.7193 86.9044 66.5687 87.1324 61.9446C87.3413 57.3232 87.3848 55.8552 87.3848 44.0534C87.3848 32.2517 87.3278 30.7809 87.1324 26.1622C86.9044 21.5381 86.169 18.3712 85.1107 15.6196C84.017 12.7226 82.3047 10.0991 80.0931 7.93176C77.9332 5.71114 75.3075 3.99743 72.4053 2.91419C69.6374 1.83958 66.4868 1.12046 61.8627 0.892508C57.2413 0.683555 55.7732 0.640137 43.9715 0.640137ZM43.9715 8.4555C55.5616 8.4555 56.9455 8.51249 61.5262 8.70787C65.7514 8.90597 68.0526 9.61153 69.5804 10.2085C71.4692 10.9057 73.1787 12.0154 74.5844 13.4568C76.0233 14.8566 77.1288 16.5622 77.8191 18.4472C78.4161 19.975 79.1216 22.2762 79.3197 26.5014C79.5151 31.0821 79.5721 32.4688 79.5721 44.0561C79.5721 55.6435 79.5151 57.0302 79.3035 61.6108C79.0755 65.836 78.37 68.1372 77.7757 69.665C76.9534 71.703 76.0362 73.1277 74.522 74.669C73.1115 76.1013 71.4031 77.2057 69.518 77.9037C68.0092 78.5007 65.6754 79.2063 61.4339 79.4044C56.8288 79.5997 55.472 79.6567 43.8521 79.6567C32.2322 79.6567 30.878 79.5997 26.2675 79.3881C22.0423 79.1601 19.7113 78.4546 18.1835 77.8603C16.1211 77.038 14.7073 76.1208 13.1931 74.6066C11.6653 73.0788 10.6938 71.6243 9.94481 69.6026C9.33694 68.0938 8.64225 65.76 8.41701 61.5186C8.26233 56.9678 8.18906 55.5566 8.18906 43.991C8.18906 32.4308 8.26233 31.0169 8.41701 26.4091C8.64225 22.1677 9.33694 19.8393 9.94481 18.3251C10.6938 16.26 11.668 14.8489 13.1931 13.3211C14.7046 11.8096 16.1211 10.8327 18.1835 10.0674C19.7113 9.47313 21.9854 8.76757 26.2268 8.55591C30.8319 8.39037 32.1887 8.33067 43.7924 8.33067L43.9715 8.4555ZM43.9715 21.7715C41.0444 21.7704 38.1457 22.3462 35.4412 23.4658C32.7367 24.5855 30.2794 26.2271 28.2096 28.2969C26.1398 30.3667 24.4981 32.8241 23.3785 35.5286C22.2588 38.2331 21.6831 41.1317 21.6841 44.0588C21.6831 46.986 22.2588 49.8846 23.3785 52.5891C24.4981 55.2936 26.1398 57.751 28.2096 59.8208C30.2794 61.8905 32.7367 63.5322 35.4412 64.6518C38.1457 65.7715 41.0444 66.3473 43.9715 66.3462C46.8986 66.3473 49.7973 65.7715 52.5018 64.6518C55.2063 63.5322 57.6636 61.8905 59.7334 59.8208C61.8032 57.751 63.4448 55.2936 64.5645 52.5891C65.6842 49.8846 66.2599 46.986 66.2589 44.0588C66.2599 41.1317 65.6842 38.2331 64.5645 35.5286C63.4448 32.8241 61.8032 30.3667 59.7334 28.2969C57.6636 26.2271 55.2063 24.5855 52.5018 23.4658C49.7973 22.3462 46.8986 21.7704 43.9715 21.7715ZM43.9715 58.5308C35.9716 58.5308 29.4995 52.0587 29.4995 44.0588C29.4995 36.0589 35.9716 29.5868 43.9715 29.5868C51.9714 29.5868 58.4435 36.0589 58.4435 44.0588C58.4435 52.0587 51.9714 58.5308 43.9715 58.5308ZM72.3673 20.8814C72.3659 22.2645 71.8155 23.5904 70.837 24.5678C69.8585 25.5453 68.532 26.0943 67.1489 26.0943C66.4651 26.0943 65.7879 25.9597 65.1561 25.6979C64.5243 25.4362 63.9502 25.0527 63.4667 24.5691C62.9831 24.0855 62.5995 23.5115 62.3378 22.8797C62.0761 22.2478 61.9414 21.5707 61.9414 20.8868C61.9414 20.203 62.0761 19.5258 62.3378 18.894C62.5995 18.2622 62.9831 17.6881 63.4667 17.2045C63.9502 16.721 64.5243 16.3374 65.1561 16.0757C65.7879 15.814 66.4651 15.6793 67.1489 15.6793C70.0173 15.6793 72.3673 18.013 72.3673 20.8814Z" fill="#464646" fill-opacity="0.8"/>
</g>
<defs>
<clipPath id="clip0">
<rect width="86.8374" height="86.8374" fill="white" transform="translate(0.554077 0.640137)"/>
</clipPath>
</defs>
</svg>
