<svg width="74" height="73" viewBox="0 0 74 73" fill="none" xmlns="http://www.w3.org/2000/svg">
<g clip-path="url(#clip0)">
<path d="M25.1849 36.5C25.1849 29.7808 30.6304 24.3324 37.3496 24.3324C44.0688 24.3324 49.5172 29.7808 49.5172 36.5C49.5172 43.2192 44.0688 48.6676 37.3496 48.6676C30.6304 48.6676 25.1849 43.2192 25.1849 36.5ZM18.6073 36.5C18.6073 46.8514 26.9982 55.2423 37.3496 55.2423C47.701 55.2423 56.0919 46.8514 56.0919 36.5C56.0919 26.1486 47.701 17.7577 37.3496 17.7577C26.9982 17.7577 18.6073 26.1486 18.6073 36.5ZM52.4539 17.0145C52.4535 17.8808 52.7101 18.7278 53.1911 19.4482C53.6721 20.1687 54.3559 20.7304 55.1561 21.0622C55.9563 21.3941 56.837 21.4811 57.6867 21.3125C58.5364 21.1438 59.317 20.727 59.9298 20.1147C60.5426 19.5024 60.96 18.7221 61.1294 17.8725C61.2987 17.0229 61.2123 16.1422 60.8812 15.3418C60.55 14.5413 59.9888 13.857 59.2687 13.3754C58.5487 12.8939 57.7019 12.6366 56.8356 12.6363H56.8339C55.6727 12.6368 54.5592 13.0982 53.738 13.9192C52.9167 14.7401 52.4549 15.8534 52.4539 17.0145V17.0145ZM22.6036 66.2101C19.045 66.0481 17.1108 65.4553 15.8254 64.9545C14.1213 64.2911 12.9054 63.5009 11.627 62.2243C10.3487 60.9477 9.55734 59.733 8.89684 58.0289C8.39577 56.7441 7.80301 54.8093 7.64124 51.2507C7.46429 47.4033 7.42895 46.2475 7.42895 36.5003C7.42895 26.753 7.46721 25.6005 7.64124 21.7499C7.8033 18.1913 8.40044 16.2603 8.89684 14.9717C9.56026 13.2676 10.3504 12.0517 11.627 10.7733C12.9037 9.49496 14.1184 8.70364 15.8254 8.04314C17.1102 7.54207 19.045 6.94931 22.6036 6.78754C26.451 6.61059 27.6067 6.57526 37.3496 6.57526C47.0925 6.57526 48.2494 6.61351 52.1 6.78754C55.6586 6.9496 57.5896 7.54674 58.8782 8.04314C60.5823 8.70364 61.7982 9.49672 63.0766 10.7733C64.3549 12.05 65.1433 13.2676 65.8068 14.9717C66.3078 16.2565 66.9006 18.1913 67.0624 21.7499C67.2393 25.6005 67.2746 26.753 67.2746 36.5003C67.2746 46.2475 67.2393 47.4001 67.0624 51.2507C66.9003 54.8093 66.3046 56.7435 65.8068 58.0289C65.1433 59.733 64.3532 60.9489 63.0766 62.2243C61.7999 63.4998 60.5823 64.2911 58.8782 64.9545C57.5934 65.4556 55.6586 66.0484 52.1 66.2101C48.2526 66.3871 47.0969 66.4224 37.3496 66.4224C27.6024 66.4224 26.4498 66.3871 22.6036 66.2101V66.2101ZM22.3014 0.221044C18.4157 0.397996 15.7606 1.01412 13.4418 1.9164C11.0404 2.84817 9.00751 4.09822 6.97606 6.12645C4.94462 8.15468 3.69778 10.1908 2.76601 12.5922C1.86373 14.9124 1.24761 17.5661 1.07065 21.4518C0.890781 25.3436 0.849609 26.5878 0.849609 36.5C0.849609 46.4122 0.890781 47.6564 1.07065 51.5482C1.24761 55.4342 1.86373 58.0876 2.76601 60.4078C3.69778 62.8077 4.94491 64.8462 6.97606 66.8735C9.00721 68.9009 11.0404 70.1492 13.4418 71.0836C15.765 71.9859 18.4157 72.602 22.3014 72.779C26.1952 72.9559 27.4374 73 37.3496 73C47.2618 73 48.5061 72.9588 52.3978 72.779C56.2838 72.602 58.9372 71.9859 61.2574 71.0836C63.6574 70.1492 65.6917 68.9018 67.7232 66.8735C69.7546 64.8453 70.9988 62.8077 71.9332 60.4078C72.8355 58.0876 73.4545 55.4339 73.6286 51.5482C73.8055 47.6535 73.8467 46.4122 73.8467 36.5C73.8467 26.5878 73.8055 25.3436 73.6286 21.4518C73.4516 17.5658 72.8355 14.911 71.9332 12.5922C70.9988 10.1923 69.7514 8.1579 67.7232 6.12645C65.6949 4.09501 63.6574 2.84817 61.2603 1.9164C58.9372 1.01412 56.2835 0.395076 52.4007 0.221044C48.509 0.044092 47.2648 0 37.3525 0C27.4403 0 26.1952 0.041172 22.3014 0.221044Z" fill="#790166" fill-opacity="0.5"/>
<path d="M25.1849 36.5C25.1849 29.7808 30.6304 24.3324 37.3496 24.3324C44.0688 24.3324 49.5172 29.7808 49.5172 36.5C49.5172 43.2192 44.0688 48.6676 37.3496 48.6676C30.6304 48.6676 25.1849 43.2192 25.1849 36.5ZM18.6073 36.5C18.6073 46.8514 26.9982 55.2423 37.3496 55.2423C47.701 55.2423 56.0919 46.8514 56.0919 36.5C56.0919 26.1486 47.701 17.7577 37.3496 17.7577C26.9982 17.7577 18.6073 26.1486 18.6073 36.5ZM52.4539 17.0145C52.4535 17.8808 52.7101 18.7278 53.1911 19.4482C53.6721 20.1687 54.3559 20.7304 55.1561 21.0622C55.9563 21.3941 56.837 21.4811 57.6867 21.3125C58.5364 21.1438 59.317 20.727 59.9298 20.1147C60.5426 19.5024 60.96 18.7221 61.1294 17.8725C61.2987 17.0229 61.2123 16.1422 60.8812 15.3418C60.55 14.5413 59.9888 13.857 59.2687 13.3754C58.5487 12.8939 57.7019 12.6366 56.8356 12.6363H56.8339C55.6727 12.6368 54.5592 13.0982 53.738 13.9192C52.9167 14.7401 52.4549 15.8534 52.4539 17.0145V17.0145ZM22.6036 66.2101C19.045 66.0481 17.1108 65.4553 15.8254 64.9545C14.1213 64.2911 12.9054 63.5009 11.627 62.2243C10.3487 60.9477 9.55734 59.733 8.89684 58.0289C8.39577 56.7441 7.80301 54.8093 7.64124 51.2507C7.46429 47.4033 7.42895 46.2475 7.42895 36.5003C7.42895 26.753 7.46721 25.6005 7.64124 21.7499C7.8033 18.1913 8.40044 16.2603 8.89684 14.9717C9.56026 13.2676 10.3504 12.0517 11.627 10.7733C12.9037 9.49496 14.1184 8.70364 15.8254 8.04314C17.1102 7.54207 19.045 6.94931 22.6036 6.78754C26.451 6.61059 27.6067 6.57526 37.3496 6.57526C47.0925 6.57526 48.2494 6.61351 52.1 6.78754C55.6586 6.9496 57.5896 7.54674 58.8782 8.04314C60.5823 8.70364 61.7982 9.49672 63.0766 10.7733C64.3549 12.05 65.1433 13.2676 65.8068 14.9717C66.3078 16.2565 66.9006 18.1913 67.0624 21.7499C67.2393 25.6005 67.2746 26.753 67.2746 36.5003C67.2746 46.2475 67.2393 47.4001 67.0624 51.2507C66.9003 54.8093 66.3046 56.7435 65.8068 58.0289C65.1433 59.733 64.3532 60.9489 63.0766 62.2243C61.7999 63.4998 60.5823 64.2911 58.8782 64.9545C57.5934 65.4556 55.6586 66.0484 52.1 66.2101C48.2526 66.3871 47.0969 66.4224 37.3496 66.4224C27.6024 66.4224 26.4498 66.3871 22.6036 66.2101V66.2101ZM22.3014 0.221044C18.4157 0.397996 15.7606 1.01412 13.4418 1.9164C11.0404 2.84817 9.00751 4.09822 6.97606 6.12645C4.94462 8.15468 3.69778 10.1908 2.76601 12.5922C1.86373 14.9124 1.24761 17.5661 1.07065 21.4518C0.890781 25.3436 0.849609 26.5878 0.849609 36.5C0.849609 46.4122 0.890781 47.6564 1.07065 51.5482C1.24761 55.4342 1.86373 58.0876 2.76601 60.4078C3.69778 62.8077 4.94491 64.8462 6.97606 66.8735C9.00721 68.9009 11.0404 70.1492 13.4418 71.0836C15.765 71.9859 18.4157 72.602 22.3014 72.779C26.1952 72.9559 27.4374 73 37.3496 73C47.2618 73 48.5061 72.9588 52.3978 72.779C56.2838 72.602 58.9372 71.9859 61.2574 71.0836C63.6574 70.1492 65.6917 68.9018 67.7232 66.8735C69.7546 64.8453 70.9988 62.8077 71.9332 60.4078C72.8355 58.0876 73.4545 55.4339 73.6286 51.5482C73.8055 47.6535 73.8467 46.4122 73.8467 36.5C73.8467 26.5878 73.8055 25.3436 73.6286 21.4518C73.4516 17.5658 72.8355 14.911 71.9332 12.5922C70.9988 10.1923 69.7514 8.1579 67.7232 6.12645C65.6949 4.09501 63.6574 2.84817 61.2603 1.9164C58.9372 1.01412 56.2835 0.395076 52.4007 0.221044C48.509 0.044092 47.2648 0 37.3525 0C27.4403 0 26.1952 0.041172 22.3014 0.221044Z" fill="#790166" fill-opacity="0.5"/>
</g>
<defs>
<clipPath id="clip0">
<rect width="73" height="73" fill="white" transform="translate(0.849609)"/>
</clipPath>
</defs>
</svg>
