<svg width="417" height="481" viewBox="0 0 417 481" fill="none" xmlns="http://www.w3.org/2000/svg">
<rect x="1.64642" y="40.3802" width="413.703" height="405.669" stroke="#5156AA" stroke-width="3"/>
<g clip-path="url(#clip0)">
<rect width="75.9899" height="75.9899" transform="translate(292.355 0.885284)" fill="white"/>
<path d="M330.349 0.885284C320.022 0.885284 318.734 0.935153 314.693 1.10613C310.634 1.3056 307.889 1.9349 305.467 2.87527C302.932 3.83232 300.636 5.33073 298.74 7.26606C296.799 9.15821 295.3 11.4553 294.349 13.9935C293.408 16.4157 292.779 19.1609 292.58 23.2192C292.397 27.2633 292.359 28.548 292.359 38.8755C292.359 49.203 292.409 50.4901 292.58 54.5318C292.779 58.5783 293.408 61.3353 294.349 63.7575C295.306 66.2925 296.804 68.5884 298.74 70.4849C300.632 72.4257 302.929 73.9249 305.467 74.8757C307.889 75.8042 310.646 76.4454 314.693 76.6449C318.737 76.8277 320.022 76.8657 330.349 76.8657C340.677 76.8657 341.964 76.8158 346.005 76.6449C350.052 76.4454 352.809 75.8019 355.231 74.8757C357.766 73.9187 360.062 72.4203 361.958 70.4849C363.902 68.5949 365.401 66.2971 366.349 63.7575C367.278 61.3353 367.919 58.5783 368.118 54.5318C368.301 50.4877 368.339 49.203 368.339 38.8755C368.339 28.548 368.289 27.2609 368.118 23.2192C367.919 19.1727 367.275 16.4015 366.349 13.9935C365.392 11.4585 363.894 9.16264 361.958 7.26606C360.068 5.32283 357.771 3.8232 355.231 2.87527C352.809 1.9349 350.052 1.3056 346.005 1.10613C341.961 0.923279 340.677 0.885284 330.349 0.885284ZM330.349 7.72438C340.491 7.72438 341.702 7.77425 345.711 7.94522C349.408 8.11858 351.422 8.73599 352.759 9.25842C354.412 9.86854 355.908 10.8396 357.138 12.1009C358.397 13.3258 359.364 14.8184 359.968 16.468C360.491 17.8049 361.108 19.8186 361.282 23.516C361.453 27.5245 361.503 28.738 361.503 38.8779C361.503 49.0178 361.453 50.2312 361.267 54.2397C361.068 57.9371 360.451 59.9508 359.93 61.2878C359.211 63.0712 358.408 64.3179 357.083 65.6667C355.849 66.9201 354.354 67.8865 352.704 68.4973C351.384 69.0198 349.342 69.6372 345.63 69.8105C341.6 69.9815 340.413 70.0314 330.245 70.0314C320.076 70.0314 318.891 69.9815 314.857 69.7963C311.159 69.5968 309.119 68.9794 307.782 68.4593C305.978 67.7398 304.74 66.9372 303.415 65.6121C302.078 64.2751 301.228 63.0023 300.573 61.2332C300.041 59.9128 299.433 57.8706 299.236 54.159C299.101 50.1766 299.036 48.9418 299.036 38.8209C299.036 28.7047 299.101 27.4675 299.236 23.4353C299.433 19.7237 300.041 17.6862 300.573 16.3611C301.228 14.554 302.081 13.3191 303.415 11.9822C304.738 10.6595 305.978 9.8046 307.782 9.13494C309.119 8.61488 311.109 7.99747 314.821 7.81224C318.851 7.66739 320.038 7.61514 330.192 7.61514L330.349 7.72438ZM330.349 19.377C327.788 19.376 325.251 19.8799 322.884 20.8597C320.518 21.8395 318.367 23.276 316.556 25.0873C314.745 26.8985 313.308 29.0489 312.328 31.4156C311.349 33.7822 310.845 36.3188 310.846 38.8802C310.845 41.4417 311.349 43.9783 312.328 46.3449C313.308 48.7116 314.745 50.862 316.556 52.6732C318.367 54.4845 320.518 55.921 322.884 56.9008C325.251 57.8806 327.788 58.3845 330.349 58.3835C332.911 58.3845 335.447 57.8806 337.814 56.9008C340.18 55.921 342.331 54.4845 344.142 52.6732C345.953 50.862 347.39 48.7116 348.37 46.3449C349.349 43.9783 349.853 41.4417 349.852 38.8802C349.853 36.3188 349.349 33.7822 348.37 31.4156C347.39 29.0489 345.953 26.8985 344.142 25.0873C342.331 23.276 340.18 21.8395 337.814 20.8597C335.447 19.8799 332.911 19.376 330.349 19.377V19.377ZM330.349 51.5444C323.348 51.5444 317.685 45.8808 317.685 38.8802C317.685 31.8797 323.348 26.2161 330.349 26.2161C337.35 26.2161 343.013 31.8797 343.013 38.8802C343.013 45.8808 337.35 51.5444 330.349 51.5444ZM355.198 18.5981C355.196 19.8084 354.715 20.9686 353.859 21.824C353.002 22.6794 351.842 23.1598 350.631 23.1598C350.033 23.1598 349.44 23.042 348.887 22.8129C348.334 22.5839 347.832 22.2483 347.409 21.8251C346.986 21.402 346.65 20.8996 346.421 20.3467C346.192 19.7938 346.074 19.2012 346.074 18.6028C346.074 18.0044 346.192 17.4118 346.421 16.8589C346.65 16.306 346.986 15.8037 347.409 15.3805C347.832 14.9574 348.334 14.6217 348.887 14.3927C349.44 14.1637 350.033 14.0458 350.631 14.0458C353.141 14.0458 355.198 16.088 355.198 18.5981V18.5981Z" fill="#790166" fill-opacity="0.8"/>
</g>
<g clip-path="url(#clip1)">
<rect width="75.9899" height="75.9899" transform="translate(53.8596 404.327)" fill="white"/>
<path d="M93.5359 404.391C97.6797 404.327 101.8 404.365 105.915 404.327C106.164 409.174 107.907 414.111 111.455 417.537C114.996 421.049 120.004 422.657 124.877 423.201V435.951C120.31 435.801 115.723 434.851 111.579 432.885C109.774 432.068 108.093 431.016 106.447 429.94C106.426 439.192 106.485 448.432 106.388 457.646C106.141 462.072 104.68 466.477 102.106 470.125C97.9647 476.197 90.7765 480.155 83.3936 480.279C78.8651 480.538 74.3413 479.303 70.4824 477.028C64.0874 473.257 59.5874 466.354 58.932 458.945C58.8494 457.376 58.8367 455.804 58.894 454.233C59.4639 448.209 62.4441 442.445 67.07 438.525C72.3133 433.958 79.6582 431.783 86.5353 433.07C86.5994 437.76 86.4118 442.445 86.4118 447.135C83.2701 446.119 79.5989 446.404 76.8537 448.311C74.8453 449.634 73.3275 451.581 72.5342 453.851C71.8788 455.456 72.0664 457.24 72.1043 458.945C72.8571 464.141 77.8535 468.508 83.187 468.035C86.7229 467.997 90.1116 465.945 91.9543 462.941C92.5504 461.889 93.2177 460.814 93.2533 459.576C93.5644 453.913 93.4409 448.273 93.4789 442.609C93.505 429.845 93.4409 417.117 93.5383 404.393L93.5359 404.391Z" fill="#523C56"/>
</g>
<defs>
<clipPath id="clip0">
<rect width="75.9899" height="75.9899" fill="white" transform="translate(292.355 0.885284)"/>
</clipPath>
<clipPath id="clip1">
<rect width="75.9899" height="75.9899" fill="white" transform="translate(53.8596 404.327)"/>
</clipPath>
</defs>
</svg>
