<svg width="256" height="107" viewBox="0 0 256 107" fill="none" xmlns="http://www.w3.org/2000/svg">
<g clip-path="url(#clip0)">
<g clip-path="url(#clip1)">
<path d="M223.243 61.3605C224.287 61.4438 225.066 62.3575 224.983 63.4016C223.656 80.0194 223.243 78.6795 221.944 87.7121C224.402 85.6714 229.088 83.1228 233.235 80.9376C234.161 80.4489 234.081 81.2428 234.569 82.1694C235.058 83.0964 233.803 84.0916 232.88 84.5764C224.773 88.8498 222.226 92.2806 221.202 93.4602L219.275 101.466L214.964 101.466L216.109 97.4304L203.051 89.9782C202.455 89.1172 196.31 89.0567 202.033 87.7122C202.892 87.1161 201.436 84.5597 202.033 85.4207L216.676 93.9734C218.789 83.2632 220.517 71.6905 221.202 63.1003C221.285 62.0563 222.199 61.2773 223.243 61.3605Z" fill="#56395A"/>
<path d="M198.293 93.7619C193.659 92.8173 190.162 89.4021 188.889 85.1695C188.739 84.6725 188.963 84.1332 189.419 83.8852C191.901 82.5349 196.032 82.1326 200.479 83.0392C204.927 83.9459 208.571 85.9332 210.326 88.1473C210.649 88.5539 210.643 89.1377 210.311 89.5366C207.482 92.9328 202.928 94.7066 198.293 93.7619Z" fill="#E371AF"/>
<path d="M207.251 88.7165C207.583 88.3178 207.589 87.734 207.266 87.3273C205.921 85.6308 203.467 84.0683 200.393 83.0222C200.422 83.028 200.451 83.0332 200.48 83.039C204.927 83.9457 208.571 85.933 210.327 88.1472C210.649 88.5538 210.643 89.1376 210.311 89.5365C207.483 92.9328 202.928 94.7065 198.294 93.7619C197.513 93.6028 196.766 93.3719 196.055 93.0805C200.4 93.6704 204.59 91.9119 207.251 88.7165Z" fill="#56395A"/>
<path d="M210.3 62.2261C212.828 62.9025 215.563 62.9457 218.271 62.2138C220.228 61.685 221.946 60.768 223.412 59.5803C224.904 60.7348 226.642 61.6127 228.61 62.0972C231.335 62.7677 234.068 62.6627 236.58 61.9295C239.414 63.894 241.443 66.2293 242.255 68.3384C242.439 68.8165 242.26 69.3643 241.827 69.6416C238.139 72.0023 233.301 72.3241 229.196 70.0631C226.35 68.4952 224.377 65.9699 223.452 63.1151C222.591 65.9901 220.676 68.5593 217.865 70.1909C213.813 72.5439 208.968 72.3315 205.228 70.0546C204.789 69.7875 204.598 69.2436 204.771 68.7615C205.535 66.6343 207.511 64.2541 210.3 62.2261Z" fill="#E371AF"/>
<path d="M232.583 68.9527C233.016 68.6756 233.195 68.1276 233.011 67.6494C232.308 65.8219 230.69 63.8251 228.427 62.0465C228.488 62.0627 228.548 62.0817 228.61 62.097C231.335 62.7675 234.068 62.6624 236.58 61.9293C239.414 63.8938 241.443 66.229 242.255 68.3381C242.439 68.8163 242.26 69.3641 241.827 69.6414C238.285 71.9086 233.684 72.2885 229.688 70.3121C230.704 69.9866 231.679 69.5319 232.583 68.9527Z" fill="#56395A"/>
<path d="M195.372 10.6935C196.666 9.95242 208.337 3.61127 219.588 9.01432C220.659 9.56037 221.702 10.1813 222.686 10.86L222.953 11.0439L222.69 11.2338C218.782 14.061 216.073 17.6295 214.163 22.0041L213.944 21.8905C210.998 20.3642 207.68 19.4155 204.084 19.0702L203.971 19.0595L203.911 18.9638C202.076 16.0431 199.397 14.1537 195.721 13.1874C194.53 12.8747 194.312 11.3001 195.372 10.6935Z" fill="#E371AF"/>
<path d="M215.325 7.49494C216.738 7.83767 218.166 8.33164 219.588 9.01444C220.659 9.56049 221.702 10.1814 222.686 10.8602L222.953 11.0441L222.69 11.2339C218.782 14.0611 216.073 17.6296 214.163 22.0043L213.944 21.8906C211.61 20.6814 209.039 19.8409 206.285 19.3697C208.412 14.6501 211.446 10.6641 215.325 7.49494Z" fill="#56395A"/>
<path d="M225.479 8.94544C236.601 3.29207 248.413 9.36858 249.723 10.0801C250.796 10.6628 250.613 12.2415 249.43 12.5813C245.777 13.6303 243.141 15.5797 241.372 18.5409L241.314 18.6381L241.201 18.6515C236.444 19.2169 232.25 20.8119 228.738 23.3887C226.28 25.2837 224.448 27.236 222.763 29.4933L222.576 29.2553C220.902 27.1133 218.908 25.1855 216.655 23.5284C215.802 22.9311 214.888 22.3793 213.94 21.8881L213.749 21.7895C216.224 16.1216 220.045 11.8709 225.479 8.94544Z" fill="#E371AF"/>
<path d="M218.734 25.2047C221.66 19.06 226.196 14.2985 232.242 11.0438C236.655 8.80098 241.155 8.10131 245.263 8.19362C247.652 8.99595 249.282 9.84101 249.723 10.0801C250.796 10.6628 250.613 12.2415 249.43 12.5813C245.777 13.6303 243.141 15.5797 241.372 18.5409L241.314 18.6381L241.201 18.6515C236.444 19.2169 232.25 20.8119 228.738 23.3887C226.33 25.2458 224.475 27.1996 222.804 29.438C222.729 29.3779 222.654 29.3173 222.578 29.2575L222.576 29.2555C221.438 27.7993 220.149 26.4451 218.734 25.2047Z" fill="#56395A"/>
<path d="M228.843 45.2312C228.165 39.081 226.057 33.7061 222.576 29.2555L222.469 29.118C224.138 26.8796 226.047 24.8833 228.46 23.0234C240.125 14.4624 254.807 19.2054 256.443 19.7747C257.756 20.2315 257.839 22.033 256.578 22.6291C246.95 27.1894 246.301 35.9871 247.482 46.6182L247.46 46.6152C247.864 55.456 240.762 62.6417 232.137 62.7391C230.851 62.7537 229.543 62.608 228.238 62.2868C226.316 61.8136 224.54 60.9538 222.96 59.7315L222.732 59.5548L222.956 59.3728C226.901 56.1758 229.212 50.6251 228.843 45.2312Z" fill="#E371AF"/>
<path d="M238.232 45.7874L238.254 45.7904C237.107 34.9303 237.538 25.3119 247.334 20.406C247.922 20.1123 248.265 19.5076 248.229 18.8277C248.215 18.5551 248.138 18.3034 248.015 18.0838C252.447 18.4571 255.72 19.5226 256.443 19.7742C257.756 20.231 257.839 22.0325 256.578 22.6286C246.95 27.189 246.301 35.9866 247.482 46.6177L247.461 46.6147C247.864 55.4555 240.762 62.6412 232.137 62.7386C230.852 62.7532 229.543 62.6075 228.238 62.2863C227.974 62.2211 227.713 62.1472 227.455 62.0677C234.083 59.8355 238.558 53.2353 238.232 45.7874Z" fill="#56395A"/>
<path d="M188.872 20.5372C190.494 19.9316 205.064 14.8576 216.925 23.1569C221.865 26.7904 228.022 33.5625 229.303 45.2003C229.763 51.9382 225.969 60.2567 218.029 62.4021C216.732 62.7526 215.427 62.9279 214.141 62.9424C205.533 63.0394 198.254 56.0313 198.458 47.1685L198.43 47.1728C199.54 36.6382 198.343 27.6522 188.801 23.3942C187.526 22.8256 187.571 21.0229 188.872 20.5372Z" fill="#E371AF"/>
<path d="M219.996 45.2896C218.545 32.1015 209.771 20.6251 195.929 18.8084C201.619 17.9961 209.764 18.1304 216.925 23.141C221.865 26.7745 228.022 33.5466 229.303 45.1844C229.763 51.9223 225.969 60.2409 218.029 62.3862C216.732 62.7367 215.427 62.912 214.141 62.9265C212.544 62.9444 210.976 62.7117 209.485 62.2614C216.904 59.8047 220.441 51.8077 219.996 45.2896Z" fill="#56395A"/>
<path d="M253.437 77.0793C253.574 76.4324 253.233 75.7713 252.628 75.5047C245.295 72.2758 230.967 76.4675 226.531 83.1356C226.164 83.6861 226.233 84.4268 226.697 84.898C235.542 93.877 250.823 89.4103 253.437 77.0793Z" fill="#E371AF"/>
<path d="M249.751 74.6709C250.82 74.8565 251.789 75.1354 252.628 75.5049C253.234 75.7715 253.575 76.4327 253.438 77.0796C250.824 89.4086 235.543 93.8786 226.698 84.8985C226.234 84.4273 226.165 83.6868 226.531 83.1361C226.679 82.9144 226.843 82.6937 227.017 82.4734C235.369 87.4047 246.165 83.7324 249.751 74.6709Z" fill="#56395A"/>
</g>
<path d="M15.165 9.90396C14.505 9.93396 13.935 10.024 13.455 10.174C12.975 10.324 12.6 10.669 12.33 11.209C12.09 11.719 11.97 12.589 11.97 13.819V31.054C11.97 31.864 11.955 32.644 11.925 33.394C11.895 34.144 11.85 34.714 11.79 35.104C12.27 35.044 12.87 35.014 13.59 35.014C14.34 34.984 14.865 34.969 15.165 34.969V38.434H2.25V35.464C2.94 35.434 3.51 35.344 3.96 35.194C4.44 35.044 4.8 34.699 5.04 34.159C5.31 33.619 5.445 32.749 5.445 31.549V14.314C5.445 13.504 5.46 12.724 5.49 11.974C5.55 11.224 5.595 10.654 5.625 10.264C5.145 10.294 4.545 10.324 3.825 10.354C3.105 10.354 2.58 10.369 2.25 10.399V6.93396H15.165V9.90396ZM31.4736 38.434V35.464C32.1636 35.434 32.7336 35.344 33.1836 35.194C33.6636 35.044 34.0236 34.699 34.2636 34.159C34.5336 33.619 34.6686 32.749 34.6686 31.549V14.314C34.6686 13.504 34.6836 12.724 34.7136 11.974C34.7736 11.224 34.8186 10.654 34.8486 10.264C34.3686 10.294 33.7686 10.324 33.0486 10.354C32.3286 10.354 31.8036 10.369 31.4736 10.399V6.93396H53.9736L54.2436 15.664H51.2736C51.2736 14.014 50.9886 12.769 50.4186 11.929C49.8486 11.089 49.1436 10.534 48.3036 10.264C47.4636 9.96396 46.6386 9.82896 45.8286 9.85896L44.2086 9.90396C43.5786 9.90396 43.0386 9.99396 42.5886 10.174C42.1386 10.324 41.7936 10.684 41.5536 11.254C41.3136 11.794 41.1936 12.649 41.1936 13.819V21.649H45.8286L45.6486 17.779H49.1136V28.714H46.1436C46.1436 27.454 45.9486 26.539 45.5586 25.969C45.1686 25.399 44.6286 25.054 43.9386 24.934C43.2786 24.784 42.5436 24.724 41.7336 24.754H41.1936V31.054C41.1936 31.864 41.1786 32.644 41.1486 33.394C41.1186 34.144 41.0736 34.714 41.0136 35.104C41.3436 35.074 41.7786 35.059 42.3186 35.059C42.8586 35.029 43.3836 35.014 43.8936 35.014C44.4336 34.984 44.8086 34.969 45.0186 34.969V38.434H31.4736ZM70.0966 9.90396C69.4366 9.93396 68.8666 10.024 68.3866 10.174C67.9066 10.324 67.5316 10.669 67.2616 11.209C67.0216 11.719 66.9016 12.589 66.9016 13.819V31.054C66.9016 31.864 66.8866 32.644 66.8566 33.394C66.8266 34.144 66.7816 34.714 66.7216 35.104C67.2016 35.044 67.8016 35.014 68.5216 35.014C69.2716 34.984 69.7966 34.969 70.0966 34.969V38.434H57.1816V35.464C57.8716 35.434 58.4416 35.344 58.8916 35.194C59.3716 35.044 59.7316 34.699 59.9716 34.159C60.2416 33.619 60.3766 32.749 60.3766 31.549V14.314C60.3766 13.504 60.3916 12.724 60.4216 11.974C60.4816 11.224 60.5266 10.654 60.5566 10.264C60.0766 10.294 59.4766 10.324 58.7566 10.354C58.0366 10.354 57.5116 10.369 57.1816 10.399V6.93396H70.0966V9.90396ZM89.0416 39.154C86.1916 39.154 83.7616 38.674 81.7516 37.714C79.7716 36.754 78.1666 35.479 76.9366 33.889C75.7066 32.269 74.8066 30.484 74.2366 28.534C73.6666 26.584 73.3816 24.634 73.3816 22.684C73.3816 20.794 73.6966 18.889 74.3266 16.969C74.9866 15.019 75.9616 13.234 77.2516 11.614C78.5716 9.99396 80.2216 8.68896 82.2016 7.69896C84.1816 6.70896 86.5066 6.21396 89.1766 6.21396C91.9066 6.21396 94.2616 6.70896 96.2416 7.69896C98.2216 8.68896 99.8416 10.009 101.102 11.659C102.362 13.279 103.292 15.049 103.892 16.969C104.522 18.889 104.837 20.794 104.837 22.684C104.837 24.544 104.507 26.434 103.847 28.354C103.217 30.274 102.242 32.059 100.922 33.709C99.6316 35.329 97.9966 36.649 96.0166 37.669C94.0366 38.659 91.7116 39.154 89.0416 39.154ZM89.5366 35.869C91.0966 35.869 92.4016 35.494 93.4516 34.744C94.5016 33.964 95.3416 32.959 95.9716 31.729C96.6016 30.499 97.0516 29.164 97.3216 27.724C97.5916 26.254 97.7266 24.829 97.7266 23.449C97.7266 20.689 97.3966 18.259 96.7366 16.159C96.0766 14.059 95.0716 12.409 93.7216 11.209C92.4016 10.009 90.6916 9.43896 88.5916 9.49896C87.0616 9.52896 85.7716 9.94896 84.7216 10.759C83.6716 11.539 82.8316 12.559 82.2016 13.819C81.5716 15.049 81.1216 16.399 80.8516 17.869C80.5816 19.339 80.4466 20.764 80.4466 22.144C80.4466 23.554 80.5966 25.054 80.8966 26.644C81.2266 28.234 81.7366 29.734 82.4266 31.144C83.1166 32.554 84.0466 33.694 85.2166 34.564C86.3866 35.434 87.8266 35.869 89.5366 35.869ZM108.114 38.434V35.464C108.804 35.434 109.374 35.344 109.824 35.194C110.304 35.044 110.664 34.699 110.904 34.159C111.174 33.619 111.309 32.749 111.309 31.549V14.314C111.309 13.504 111.324 12.724 111.354 11.974C111.414 11.224 111.459 10.654 111.489 10.264C111.009 10.294 110.409 10.324 109.689 10.354C108.969 10.354 108.444 10.369 108.114 10.399V6.93396C110.244 6.90396 112.374 6.88896 114.504 6.88896C116.634 6.88896 118.764 6.87396 120.894 6.84396C123.534 6.81396 125.829 7.11396 127.779 7.74396C129.729 8.37396 131.229 9.39396 132.279 10.804C133.329 12.214 133.824 14.119 133.764 16.519C133.704 18.439 133.029 20.179 131.739 21.739C130.449 23.299 128.484 24.454 125.844 25.204C126.414 25.444 126.969 25.834 127.509 26.374C128.079 26.914 128.559 27.484 128.949 28.084L131.064 31.234C132.054 32.764 132.879 33.844 133.539 34.474C134.229 35.074 135.084 35.404 136.104 35.464V38.434H128.679C128.139 38.044 127.599 37.489 127.059 36.769C126.549 36.019 125.994 35.164 125.394 34.204L122.064 28.804C121.314 27.604 120.684 26.734 120.174 26.194H117.834V31.009C117.834 31.849 117.819 32.644 117.789 33.394C117.759 34.144 117.714 34.714 117.654 35.104C117.984 35.074 118.404 35.059 118.914 35.059C119.424 35.029 119.919 35.014 120.399 35.014C120.909 34.984 121.269 34.969 121.479 34.969V38.434H108.114ZM119.994 22.954C122.484 22.954 124.269 22.399 125.349 21.289C126.429 20.149 126.969 18.439 126.969 16.159C126.969 14.719 126.744 13.594 126.294 12.784C125.844 11.944 125.274 11.329 124.584 10.939C123.924 10.519 123.249 10.264 122.559 10.174C121.869 10.054 121.299 9.99396 120.849 9.99396C119.919 9.99396 119.184 10.189 118.644 10.579C118.104 10.969 117.834 11.959 117.834 13.549V22.774C118.164 22.804 118.509 22.849 118.869 22.909C119.229 22.939 119.604 22.954 119.994 22.954ZM151.879 9.90396C151.219 9.93396 150.649 10.024 150.169 10.174C149.689 10.324 149.314 10.669 149.044 11.209C148.804 11.719 148.684 12.589 148.684 13.819V31.054C148.684 31.864 148.669 32.644 148.639 33.394C148.609 34.144 148.564 34.714 148.504 35.104C148.984 35.044 149.584 35.014 150.304 35.014C151.054 34.984 151.579 34.969 151.879 34.969V38.434H138.964V35.464C139.654 35.434 140.224 35.344 140.674 35.194C141.154 35.044 141.514 34.699 141.754 34.159C142.024 33.619 142.159 32.749 142.159 31.549V14.314C142.159 13.504 142.174 12.724 142.204 11.974C142.264 11.224 142.309 10.654 142.339 10.264C141.859 10.294 141.259 10.324 140.539 10.354C139.819 10.354 139.294 10.369 138.964 10.399V6.93396H151.879V9.90396Z" fill="#5156AA"/>
<path d="M16.92 76.22C13.68 76.22 10.92 75.515 8.64 74.105C6.36 72.665 4.62 70.73 3.42 68.3C2.22 65.87 1.62 63.17 1.62 60.2C1.62 58.16 1.935 56.135 2.565 54.125C3.225 52.115 4.2 50.3 5.49 48.68C6.78 47.03 8.4 45.725 10.35 44.765C12.33 43.775 14.625 43.28 17.235 43.28C18.045 43.28 18.96 43.37 19.98 43.55C21 43.7 22.02 43.94 23.04 44.27C24.09 44.6 25.02 45.005 25.83 45.485L25.65 43.595H29.115V54.08H26.19C25.8 51.59 24.84 49.715 23.31 48.455C21.78 47.195 19.95 46.55 17.82 46.52C16.26 46.52 14.895 46.88 13.725 47.6C12.585 48.32 11.64 49.28 10.89 50.48C10.14 51.68 9.57 53.045 9.18 54.575C8.82 56.105 8.64 57.68 8.64 59.3C8.64 61.88 9 64.175 9.72 66.185C10.44 68.195 11.49 69.785 12.87 70.955C14.28 72.095 16.005 72.665 18.045 72.665C18.615 72.665 19.29 72.62 20.07 72.53C20.85 72.44 21.63 72.305 22.41 72.125C23.19 71.945 23.85 71.72 24.39 71.45V67.265C24.39 66.455 24.405 65.675 24.435 64.925C24.495 64.175 24.54 63.605 24.57 63.215C24.09 63.245 23.49 63.275 22.77 63.305C22.05 63.305 21.525 63.32 21.195 63.35V59.885H33.165V62.855C32.505 62.885 31.95 62.99 31.5 63.17C31.05 63.35 30.705 63.71 30.465 64.25C30.255 64.79 30.15 65.63 30.15 66.77V73.97H29.07C28.2 73.97 27.33 74.09 26.46 74.33C25.59 74.57 24.66 74.84 23.67 75.14C22.74 75.41 21.72 75.65 20.61 75.86C19.5 76.1 18.27 76.22 16.92 76.22ZM49.0908 46.97C48.4308 47 47.8608 47.09 47.3808 47.24C46.9008 47.39 46.5258 47.735 46.2558 48.275C46.0158 48.785 45.8958 49.655 45.8958 50.885V68.12C45.8958 68.93 45.8808 69.71 45.8508 70.46C45.8208 71.21 45.7758 71.78 45.7158 72.17C46.1958 72.11 46.7958 72.08 47.5158 72.08C48.2658 72.05 48.7908 72.035 49.0908 72.035V75.5H36.1758V72.53C36.8658 72.5 37.4358 72.41 37.8858 72.26C38.3658 72.11 38.7258 71.765 38.9658 71.225C39.2358 70.685 39.3708 69.815 39.3708 68.615V51.38C39.3708 50.57 39.3858 49.79 39.4158 49.04C39.4758 48.29 39.5208 47.72 39.5508 47.33C39.0708 47.36 38.4708 47.39 37.7508 47.42C37.0308 47.42 36.5058 47.435 36.1758 47.465V44H49.0908V46.97ZM67.7208 76.22C64.4808 76.22 61.7208 75.515 59.4408 74.105C57.1608 72.665 55.4208 70.73 54.2208 68.3C53.0208 65.87 52.4208 63.17 52.4208 60.2C52.4208 58.16 52.7358 56.135 53.3658 54.125C54.0258 52.115 55.0008 50.3 56.2908 48.68C57.5808 47.03 59.2008 45.725 61.1508 44.765C63.1308 43.775 65.4258 43.28 68.0358 43.28C68.8458 43.28 69.7608 43.37 70.7808 43.55C71.8008 43.7 72.8208 43.94 73.8408 44.27C74.8908 44.6 75.8208 45.005 76.6308 45.485L76.4508 43.595H79.9158V54.08H76.9908C76.6008 51.59 75.6408 49.715 74.1108 48.455C72.5808 47.195 70.7508 46.55 68.6208 46.52C67.0608 46.52 65.6958 46.88 64.5258 47.6C63.3858 48.32 62.4408 49.28 61.6908 50.48C60.9408 51.68 60.3708 53.045 59.9808 54.575C59.6208 56.105 59.4408 57.68 59.4408 59.3C59.4408 61.88 59.8008 64.175 60.5208 66.185C61.2408 68.195 62.2908 69.785 63.6708 70.955C65.0808 72.095 66.8058 72.665 68.8458 72.665C69.4158 72.665 70.0908 72.62 70.8708 72.53C71.6508 72.44 72.4308 72.305 73.2108 72.125C73.9908 71.945 74.6508 71.72 75.1908 71.45V67.265C75.1908 66.455 75.2058 65.675 75.2358 64.925C75.2958 64.175 75.3408 63.605 75.3708 63.215C74.8908 63.245 74.2908 63.275 73.5708 63.305C72.8508 63.305 72.3258 63.32 71.9958 63.35V59.885H83.9658V62.855C83.3058 62.885 82.7508 62.99 82.3008 63.17C81.8508 63.35 81.5058 63.71 81.2658 64.25C81.0558 64.79 80.9508 65.63 80.9508 66.77V73.97H79.8708C79.0008 73.97 78.1308 74.09 77.2608 74.33C76.3908 74.57 75.4608 74.84 74.4708 75.14C73.5408 75.41 72.5208 75.65 71.4108 75.86C70.3008 76.1 69.0708 76.22 67.7208 76.22ZM84.555 75.5V72.395C85.395 72.395 86.07 72.155 86.58 71.675C87.09 71.195 87.51 70.565 87.84 69.785C88.2 69.005 88.545 68.165 88.875 67.265L97.65 43.19H100.8L110.385 67.715C110.565 68.165 110.805 68.855 111.105 69.785C111.405 70.685 111.585 71.48 111.645 72.17C112.155 72.11 112.635 72.08 113.085 72.08C113.565 72.05 113.955 72.035 114.255 72.035V75.5H102.15V72.53C103.38 72.53 104.07 72.155 104.22 71.405C104.37 70.625 104.235 69.68 103.815 68.57L102.915 66.095L93.15 66.275L92.43 68.39C92.28 68.78 92.055 69.365 91.755 70.145C91.485 70.895 91.23 71.525 90.99 72.035C91.47 71.975 92.04 71.945 92.7 71.945C93.39 71.915 93.885 71.9 94.185 71.9V75.5H84.555ZM94.275 62.9H101.79L99.72 57.275C99.33 56.195 98.985 55.115 98.685 54.035C98.385 52.925 98.16 51.95 98.01 51.11H97.965C97.845 51.62 97.665 52.385 97.425 53.405C97.185 54.425 96.81 55.64 96.3 57.05L94.275 62.9ZM140.624 75.95L126.224 57.545C125.834 57.035 125.429 56.495 125.009 55.925C124.589 55.355 124.169 54.77 123.749 54.17H123.704L123.794 68.12C123.794 68.93 123.779 69.71 123.749 70.46C123.719 71.21 123.674 71.78 123.614 72.17C124.094 72.11 124.694 72.08 125.414 72.08C126.164 72.05 126.689 72.035 126.989 72.035V75.5H116.729V72.53C117.419 72.5 117.989 72.41 118.439 72.26C118.919 72.11 119.279 71.765 119.519 71.225C119.789 70.685 119.924 69.815 119.924 68.615L119.834 51.38C119.834 50.57 119.849 49.79 119.879 49.04C119.909 48.29 119.954 47.72 120.014 47.33C119.534 47.36 118.919 47.39 118.169 47.42C117.449 47.42 116.924 47.435 116.594 47.465V44H123.659L137.429 61.37C138.179 62.33 138.794 63.155 139.274 63.845C139.784 64.535 140.219 65.135 140.579 65.645H140.624V51.38C140.624 50.57 140.639 49.79 140.669 49.04C140.699 48.29 140.729 47.72 140.759 47.33C140.279 47.36 139.679 47.39 138.959 47.42C138.239 47.42 137.714 47.435 137.384 47.465V44H147.644V46.97C146.984 47 146.414 47.09 145.934 47.24C145.454 47.39 145.079 47.735 144.809 48.275C144.569 48.785 144.449 49.655 144.449 50.885V75.95H140.624ZM174.753 54.17C174.753 51.74 174.258 49.94 173.268 48.77C172.278 47.57 170.928 46.985 169.218 47.015H167.058V68.12C167.058 68.93 167.043 69.71 167.013 70.46C166.983 71.21 166.938 71.78 166.878 72.17C167.388 72.11 168.033 72.08 168.813 72.08C169.623 72.05 170.178 72.035 170.478 72.035V75.5H157.338V72.53C158.028 72.5 158.598 72.41 159.048 72.26C159.528 72.11 159.888 71.765 160.128 71.225C160.398 70.685 160.533 69.815 160.533 68.615V47.06H158.463C156.753 47.09 155.403 47.675 154.413 48.815C153.423 49.955 152.928 51.74 152.928 54.17H149.958L150.183 44H177.453L177.723 54.17H174.753ZM193.671 46.97C193.011 47 192.441 47.09 191.961 47.24C191.481 47.39 191.106 47.735 190.836 48.275C190.596 48.785 190.476 49.655 190.476 50.885V68.12C190.476 68.93 190.461 69.71 190.431 70.46C190.401 71.21 190.356 71.78 190.296 72.17C190.776 72.11 191.376 72.08 192.096 72.08C192.846 72.05 193.371 72.035 193.671 72.035V75.5H180.756V72.53C181.446 72.5 182.016 72.41 182.466 72.26C182.946 72.11 183.306 71.765 183.546 71.225C183.816 70.685 183.951 69.815 183.951 68.615V51.38C183.951 50.57 183.966 49.79 183.996 49.04C184.056 48.29 184.101 47.72 184.131 47.33C183.651 47.36 183.051 47.39 182.331 47.42C181.611 47.42 181.086 47.435 180.756 47.465V44H193.671V46.97Z" fill="#5156AA"/>
<path d="M102.411 101.715C101.313 101.715 100.332 101.436 99.4683 100.878C98.6223 100.32 97.9473 99.5374 97.4433 98.5294C96.9573 97.5034 96.7143 96.2974 96.7143 94.9114C96.7143 93.4354 97.0023 92.1304 97.5783 90.9964C98.1723 89.8624 98.9823 88.9714 100.008 88.3234C101.034 87.6754 102.222 87.3514 103.572 87.3514C104.13 87.3514 104.661 87.4234 105.165 87.5674C105.687 87.6934 106.119 87.8464 106.461 88.0264V84.9484C106.461 84.6784 106.461 84.3814 106.461 84.0574C106.479 83.7334 106.515 83.3824 106.569 83.0044C106.245 83.0224 105.912 83.0404 105.57 83.0584C105.228 83.0764 104.922 83.0854 104.652 83.0854V81.6544C105.858 81.6544 106.713 81.5734 107.217 81.4114C107.721 81.2494 108.072 81.0784 108.27 80.8984H109.269V97.9354C109.269 98.2054 109.26 98.5114 109.242 98.8534C109.224 99.1954 109.197 99.5554 109.161 99.9334C109.485 99.9154 109.809 99.8974 110.133 99.8794C110.457 99.8614 110.754 99.8524 111.024 99.8524V101.283H106.731C106.695 101.031 106.659 100.797 106.623 100.581C106.605 100.365 106.587 100.149 106.569 99.9334C105.453 101.121 104.067 101.715 102.411 101.715ZM103.518 100.014C104.076 100.014 104.616 99.8614 105.138 99.5554C105.678 99.2494 106.119 98.8624 106.461 98.3944C106.461 98.1604 106.461 97.9174 106.461 97.6654C106.461 97.4134 106.461 97.1434 106.461 96.8554V89.5114C105.741 88.9894 104.868 88.7284 103.842 88.7284C102.96 88.7284 102.222 88.9894 101.628 89.5114C101.034 90.0154 100.584 90.7174 100.278 91.6174C99.9903 92.4994 99.8553 93.4984 99.8733 94.6144C99.9093 95.6044 100.062 96.5134 100.332 97.3414C100.602 98.1514 100.998 98.7994 101.52 99.2854C102.06 99.7714 102.726 100.014 103.518 100.014ZM112.933 100.149C113.473 100.149 113.851 100.023 114.067 99.7714C114.283 99.5194 114.409 99.1684 114.445 98.7184C114.499 98.2684 114.526 97.7464 114.526 97.1524V91.5634C114.526 91.2574 114.535 90.9514 114.553 90.6454C114.571 90.3394 114.598 89.9974 114.634 89.6194C114.328 89.6194 114.004 89.6374 113.662 89.6734C113.32 89.6914 113.005 89.7004 112.717 89.7004V88.2694C113.923 88.2694 114.778 88.1884 115.282 88.0264C115.786 87.8644 116.137 87.6934 116.335 87.5134H117.361V97.9354C117.361 98.2594 117.352 98.5924 117.334 98.9344C117.316 99.2584 117.289 99.5914 117.253 99.9334C117.523 99.9154 117.811 99.9064 118.117 99.9064C118.423 99.8884 118.702 99.8704 118.954 99.8524V101.283H112.933V100.149ZM115.822 85.0294C115.354 85.0294 114.958 84.8584 114.634 84.5164C114.31 84.1564 114.148 83.7244 114.148 83.2204C114.148 82.7164 114.319 82.2934 114.661 81.9514C115.003 81.5914 115.39 81.4114 115.822 81.4114C116.29 81.4114 116.677 81.5914 116.983 81.9514C117.307 82.2934 117.469 82.7164 117.469 83.2204C117.469 83.7244 117.307 84.1564 116.983 84.5164C116.659 84.8584 116.272 85.0294 115.822 85.0294ZM134.927 83.5714C134.351 83.5894 133.928 83.7154 133.658 83.9494C133.388 84.1654 133.217 84.4894 133.145 84.9214C133.073 85.3534 133.037 85.9024 133.037 86.5684V97.6654C133.037 98.6374 133.01 99.3844 132.956 99.9064C133.262 99.8884 133.595 99.8704 133.955 99.8524C134.315 99.8164 134.639 99.7984 134.927 99.7984V101.283H128.285V100.095C128.879 100.077 129.302 99.9604 129.554 99.7444C129.824 99.5104 129.995 99.1774 130.067 98.7454C130.139 98.3134 130.175 97.7644 130.175 97.0984V85.8664C130.175 85.0384 130.202 84.3364 130.256 83.7604C129.95 83.7784 129.617 83.7964 129.257 83.8144C128.897 83.8324 128.573 83.8504 128.285 83.8684V82.3834H134.927V83.5714ZM137.27 100.149C137.81 100.149 138.188 100.023 138.404 99.7714C138.62 99.5194 138.746 99.1684 138.782 98.7184C138.836 98.2684 138.863 97.7464 138.863 97.1524V91.5364C138.863 91.2484 138.863 90.9424 138.863 90.6184C138.881 90.2944 138.917 89.9614 138.971 89.6194C138.665 89.6194 138.341 89.6284 137.999 89.6464C137.657 89.6644 137.342 89.6824 137.054 89.7004V88.2694H137.972C138.728 88.2694 139.295 88.1884 139.673 88.0264C140.069 87.8644 140.366 87.6934 140.564 87.5134H141.536C141.572 87.7654 141.599 88.1164 141.617 88.5664C141.635 89.0164 141.653 89.5204 141.671 90.0784C142.175 89.3404 142.805 88.7014 143.561 88.1614C144.317 87.6214 145.127 87.3514 145.991 87.3514C146.549 87.3514 147.026 87.5044 147.422 87.8104C147.836 88.0984 148.043 88.5754 148.043 89.2414C148.043 89.5294 147.926 89.8534 147.692 90.2134C147.458 90.5734 147.062 90.7444 146.504 90.7264C146.126 90.7084 145.793 90.5644 145.505 90.2944C145.235 90.0244 145.109 89.6554 145.127 89.1874C144.695 89.1874 144.263 89.3224 143.831 89.5924C143.399 89.8444 142.994 90.1864 142.616 90.6184C142.238 91.0504 141.932 91.5184 141.698 92.0224V97.9354C141.698 98.2594 141.689 98.5924 141.671 98.9344C141.671 99.2584 141.644 99.5914 141.59 99.9334C141.878 99.9154 142.175 99.9064 142.481 99.9064C142.787 99.8884 143.066 99.8704 143.318 99.8524V101.283H137.27V100.149ZM149.398 100.149C149.938 100.149 150.316 100.023 150.532 99.7714C150.748 99.5194 150.874 99.1684 150.91 98.7184C150.964 98.2684 150.991 97.7464 150.991 97.1524V91.5634C150.991 91.2574 151 90.9514 151.018 90.6454C151.036 90.3394 151.063 89.9974 151.099 89.6194C150.793 89.6194 150.469 89.6374 150.127 89.6734C149.785 89.6914 149.47 89.7004 149.182 89.7004V88.2694C150.388 88.2694 151.243 88.1884 151.747 88.0264C152.251 87.8644 152.602 87.6934 152.8 87.5134H153.826V97.9354C153.826 98.2594 153.817 98.5924 153.799 98.9344C153.781 99.2584 153.754 99.5914 153.718 99.9334C153.988 99.9154 154.276 99.9064 154.582 99.9064C154.888 99.8884 155.167 99.8704 155.419 99.8524V101.283H149.398V100.149ZM152.287 85.0294C151.819 85.0294 151.423 84.8584 151.099 84.5164C150.775 84.1564 150.613 83.7244 150.613 83.2204C150.613 82.7164 150.784 82.2934 151.126 81.9514C151.468 81.5914 151.855 81.4114 152.287 81.4114C152.755 81.4114 153.142 81.5914 153.448 81.9514C153.772 82.2934 153.934 82.7164 153.934 83.2204C153.934 83.7244 153.772 84.1564 153.448 84.5164C153.124 84.8584 152.737 85.0294 152.287 85.0294ZM157.388 101.283V100.149C157.928 100.149 158.306 100.023 158.522 99.7714C158.738 99.5194 158.864 99.1684 158.9 98.7184C158.954 98.2684 158.981 97.7464 158.981 97.1524L159.008 91.5364C159.008 91.2484 159.008 90.9424 159.008 90.6184C159.026 90.2944 159.062 89.9614 159.116 89.6194C158.792 89.6194 158.459 89.6374 158.117 89.6734C157.775 89.6914 157.469 89.7004 157.199 89.7004V88.2694C158.009 88.2694 158.639 88.2334 159.089 88.1614C159.557 88.0894 159.908 87.9994 160.142 87.8914C160.394 87.7654 160.583 87.6394 160.709 87.5134H161.681C161.717 87.7654 161.735 87.9994 161.735 88.2154C161.735 88.4134 161.753 88.6924 161.789 89.0524C162.365 88.5844 163.04 88.1884 163.814 87.8644C164.588 87.5224 165.326 87.3514 166.028 87.3514C167.63 87.3514 168.782 87.8374 169.484 88.8094C170.204 89.7814 170.564 91.3024 170.564 93.3724V97.9354C170.564 98.2594 170.555 98.5924 170.537 98.9344C170.519 99.2584 170.492 99.5914 170.456 99.9334C170.744 99.9154 171.032 99.9064 171.32 99.9064C171.626 99.8884 171.905 99.8704 172.157 99.8524V101.283H166.136V100.149C166.676 100.149 167.054 100.023 167.27 99.7714C167.486 99.5194 167.612 99.1684 167.648 98.7184C167.702 98.2684 167.729 97.7464 167.729 97.1524V93.3724C167.711 91.9504 167.486 90.8794 167.054 90.1594C166.622 89.4394 165.911 89.0884 164.921 89.1064C164.345 89.1064 163.769 89.2504 163.193 89.5384C162.635 89.8264 162.176 90.1774 161.816 90.5914C161.816 90.7894 161.816 90.9964 161.816 91.2124C161.816 91.4104 161.816 91.6084 161.816 91.8064V97.9354C161.816 98.2594 161.807 98.5924 161.789 98.9344C161.771 99.2584 161.744 99.5914 161.708 99.9334C161.978 99.9154 162.266 99.9064 162.572 99.9064C162.878 99.8884 163.157 99.8704 163.409 99.8524V101.283H157.388ZM182.017 101.283C181.981 100.995 181.954 100.743 181.936 100.527C181.918 100.311 181.891 100.086 181.855 99.8524C180.613 101.094 179.227 101.715 177.697 101.715C176.401 101.715 175.42 101.4 174.754 100.77C174.106 100.122 173.782 99.3214 173.782 98.3674C173.782 97.5394 174.025 96.8194 174.511 96.2074C174.997 95.5954 175.636 95.1004 176.428 94.7224C177.22 94.3264 178.084 94.0384 179.02 93.8584C179.956 93.6604 180.874 93.5614 181.774 93.5614V91.9684C181.774 91.3924 181.72 90.8614 181.612 90.3754C181.504 89.8714 181.279 89.4664 180.937 89.1604C180.595 88.8364 180.082 88.6744 179.398 88.6744C178.93 88.6564 178.462 88.7464 177.994 88.9444C177.526 89.1244 177.166 89.4304 176.914 89.8624C177.058 90.0064 177.148 90.1774 177.184 90.3754C177.238 90.5554 177.265 90.7264 177.265 90.8884C177.265 91.1404 177.157 91.4284 176.941 91.7524C176.725 92.0584 176.356 92.2024 175.834 92.1844C175.402 92.1844 175.069 92.0404 174.835 91.7524C174.619 91.4464 174.511 91.0954 174.511 90.6994C174.511 90.0514 174.745 89.4754 175.213 88.9714C175.699 88.4674 176.347 88.0714 177.157 87.7834C177.985 87.4954 178.921 87.3514 179.965 87.3514C181.513 87.3514 182.665 87.7564 183.421 88.5664C184.195 89.3764 184.582 90.6544 184.582 92.4004C184.582 93.3904 184.573 94.3174 184.555 95.1814C184.555 96.0274 184.555 96.9454 184.555 97.9354C184.555 98.2054 184.546 98.5114 184.528 98.8534C184.51 99.1954 184.483 99.5554 184.447 99.9334C184.753 99.9154 185.068 99.8974 185.392 99.8794C185.716 99.8614 186.022 99.8524 186.31 99.8524V101.283H182.017ZM181.774 94.8034C181 94.8394 180.217 94.9744 179.425 95.2084C178.651 95.4244 178.003 95.7664 177.481 96.2344C176.977 96.6844 176.734 97.2784 176.752 98.0164C176.788 98.6284 176.995 99.0784 177.373 99.3664C177.751 99.6544 178.183 99.7984 178.669 99.7984C179.299 99.7984 179.857 99.6814 180.343 99.4474C180.829 99.1954 181.306 98.8534 181.774 98.4214C181.756 98.2234 181.747 98.0254 181.747 97.8274C181.747 97.6114 181.747 97.3864 181.747 97.1524C181.747 96.9904 181.747 96.6934 181.747 96.2614C181.765 95.8294 181.774 95.3434 181.774 94.8034Z" fill="#502E56"/>
</g>
<defs>
<clipPath id="clip0">
<rect width="256" height="106" fill="white" transform="translate(0 0.611084)"/>
</clipPath>
<clipPath id="clip1">
<rect width="144.047" height="144.047" fill="white" transform="translate(113 59.5) rotate(-30)"/>
</clipPath>
</defs>
</svg>
