<svg width="264" height="117" viewBox="0 0 264 117" fill="none" xmlns="http://www.w3.org/2000/svg">
<path d="M225.479 16.4689C236.601 10.8155 248.412 16.892 249.723 17.6035C250.796 18.1863 250.613 19.765 249.429 20.1047C245.777 21.1537 243.141 23.1032 241.372 26.0643L241.314 26.1616L241.201 26.1749C236.444 26.7404 232.25 28.3353 228.738 30.9122C226.28 32.8071 224.447 34.7595 222.762 37.0168L222.576 36.7787C220.902 34.6368 218.908 32.7089 216.655 31.0518C215.802 30.4546 214.888 29.9027 213.939 29.4116L213.749 29.3129C216.224 23.645 220.045 19.3943 225.479 16.4689Z" fill="#E371AF"/>
<path d="M223.243 68.8838C224.287 68.9671 225.066 69.8808 224.983 70.9249C223.656 87.5427 223.243 86.2028 221.944 95.2355C224.402 93.1948 229.089 90.6461 233.235 88.4609C234.162 87.9723 234.081 88.7661 234.569 89.6927C235.058 90.6197 233.803 91.6149 232.88 92.0997C224.773 96.3732 222.226 99.8039 221.202 100.984L219.275 108.99L214.964 108.99L216.11 104.954L203.052 97.5016C202.455 96.6406 196.31 96.58 202.033 95.2355C202.893 94.6395 201.436 92.0831 202.033 92.9441L216.676 101.497C218.789 90.7866 220.517 79.2138 221.202 70.6236C221.285 69.5796 222.199 68.8006 223.243 68.8838Z" fill="#56395A"/>
<path d="M198.293 101.286C193.659 100.341 190.162 96.9257 188.889 92.6932C188.739 92.1962 188.963 91.6569 189.419 91.4089C191.901 90.0586 196.032 89.6563 200.479 90.5629C204.927 91.4696 208.571 93.4569 210.326 95.671C210.649 96.0776 210.643 96.6614 210.311 97.0602C207.482 100.457 202.928 102.23 198.293 101.286Z" fill="#E371AF"/>
<path d="M207.251 96.2399C207.583 95.8412 207.589 95.2575 207.266 94.8507C205.921 93.1543 203.467 91.5917 200.393 90.5456C200.422 90.5514 200.451 90.5567 200.48 90.5624C204.927 91.4691 208.571 93.4564 210.327 95.6707C210.649 96.0773 210.643 96.661 210.311 97.0599C207.483 100.456 202.928 102.23 198.294 101.285C197.513 101.126 196.766 100.895 196.055 100.604C200.4 101.194 204.59 99.4354 207.251 96.2399Z" fill="#56395A"/>
<path d="M210.3 69.7494C212.828 70.4258 215.562 70.4691 218.271 69.7371C220.228 69.2083 221.946 68.2913 223.412 67.1036C224.904 68.2581 226.641 69.136 228.61 69.6205C231.334 70.291 234.068 70.186 236.58 69.4528C239.414 71.4173 241.443 73.7526 242.255 75.8617C242.439 76.3399 242.26 76.8876 241.827 77.1649C238.139 79.5256 233.301 79.8474 229.196 77.5864C226.35 76.0185 224.377 73.4932 223.451 70.6384C222.591 73.5135 220.675 76.0826 217.865 77.7143C213.812 80.0672 208.968 79.8548 205.228 77.5779C204.789 77.3108 204.597 76.7669 204.771 76.2848C205.535 74.1577 207.511 71.7774 210.3 69.7494Z" fill="#E371AF"/>
<path d="M232.583 76.4762C233.016 76.1992 233.195 75.6512 233.011 75.173C232.308 73.3454 230.69 71.3487 228.427 69.5701C228.488 69.5863 228.548 69.6052 228.61 69.6206C231.335 70.291 234.068 70.186 236.58 69.4528C239.414 71.4173 241.443 73.7526 242.255 75.8617C242.439 76.3399 242.26 76.8876 241.827 77.1649C238.285 79.4322 233.684 79.812 229.688 77.8357C230.704 77.5102 231.679 77.0554 232.583 76.4762Z" fill="#56395A"/>
<path d="M195.372 18.2169C196.666 17.4757 208.337 11.1346 219.588 16.5376C220.659 17.0837 221.701 17.7046 222.686 18.3834L222.952 18.5673L222.69 18.7571C218.782 21.5843 216.073 25.1528 214.163 29.5274L213.944 29.4138C210.997 27.8875 207.68 26.9388 204.084 26.5935L203.971 26.5828L203.911 26.4871C202.075 23.5664 199.397 21.6771 195.721 20.7107C194.53 20.398 194.312 18.8234 195.372 18.2169Z" fill="#E371AF"/>
<path d="M215.325 15.0186C216.738 15.3614 218.166 15.8553 219.588 16.5381C220.659 17.0842 221.702 17.7051 222.686 18.3838L222.953 18.5678L222.69 18.7576C218.782 21.5848 216.073 25.1533 214.163 29.5279L213.944 29.4143C211.61 28.2051 209.039 27.3646 206.285 26.8934C208.412 22.1738 211.446 18.1878 215.325 15.0186Z" fill="#56395A"/>
<path d="M218.734 32.7281C221.661 26.5834 226.196 21.8219 232.242 18.5672C236.655 16.3244 241.155 15.6247 245.264 15.7171C247.652 16.5194 249.282 17.3644 249.723 17.6035C250.796 18.1863 250.613 19.765 249.43 20.1047C245.777 21.1537 243.141 23.1032 241.372 26.0643L241.314 26.1616L241.201 26.1749C236.445 26.7404 232.25 28.3353 228.738 30.9122C226.33 32.7692 224.475 34.7231 222.804 36.9614C222.729 36.9013 222.654 36.8407 222.578 36.781L222.576 36.779C221.438 35.3227 220.149 33.9685 218.734 32.7281Z" fill="#56395A"/>
<path d="M228.843 52.7545C228.165 46.6043 226.056 41.2294 222.576 36.7788L222.469 36.6413C224.138 34.403 226.047 32.4066 228.46 30.5467C240.125 21.9858 254.807 26.7287 256.443 27.298C257.756 27.7548 257.839 29.5564 256.578 30.1524C246.95 34.7128 246.301 43.5104 247.482 54.1415L247.46 54.1386C247.863 62.9793 240.762 70.165 232.137 70.2624C230.851 70.277 229.542 70.1313 228.238 69.8101C226.316 69.3369 224.54 68.4771 222.96 67.2548L222.732 67.0781L222.956 66.8961C226.901 63.6991 229.211 58.1485 228.843 52.7545Z" fill="#E371AF"/>
<path d="M238.232 53.3107L238.254 53.3137C237.107 42.4537 237.538 32.8352 247.334 27.9293C247.922 27.6356 248.265 27.0309 248.229 26.351C248.215 26.0784 248.138 25.8267 248.015 25.6072C252.447 25.9804 255.72 27.0459 256.443 27.2975C257.756 27.7543 257.839 29.5559 256.578 30.1519C246.95 34.7123 246.301 43.5099 247.482 54.141L247.461 54.1381C247.864 62.9788 240.762 70.1645 232.137 70.2619C230.852 70.2765 229.543 70.1308 228.238 69.8096C227.974 69.7444 227.713 69.6706 227.455 69.591C234.083 67.3588 238.558 60.7586 238.232 53.3107Z" fill="#56395A"/>
<path d="M188.872 28.0607C190.494 27.4551 205.064 22.3812 216.925 30.6805C221.865 34.3139 228.022 41.0861 229.303 52.7239C229.763 59.4617 225.969 67.7803 218.029 69.9256C216.732 70.2762 215.427 70.4515 214.141 70.4659C205.533 70.563 198.254 63.5549 198.458 54.6921L198.43 54.6964C199.54 44.1618 198.343 35.1757 188.801 30.9178C187.526 30.3491 187.571 28.5465 188.872 28.0607Z" fill="#E371AF"/>
<path d="M219.996 52.8129C218.545 39.6248 209.771 28.1484 195.929 26.3317C201.619 25.5194 209.764 25.6537 216.925 30.6643C221.865 34.2978 228.022 41.0699 229.303 52.7078C229.763 59.4456 225.969 67.7642 218.029 69.9095C216.732 70.2601 215.427 70.4354 214.141 70.4498C212.544 70.4677 210.976 70.235 209.485 69.7847C216.904 67.328 220.441 59.331 219.996 52.8129Z" fill="#56395A"/>
<path d="M253.437 84.6029C253.574 83.956 253.233 83.2948 252.628 83.0282C245.296 79.7994 230.967 83.991 226.531 90.6592C226.164 91.2096 226.233 91.9504 226.697 92.4216C235.542 101.401 250.823 96.9338 253.437 84.6029Z" fill="#E371AF"/>
<path d="M249.751 82.1944C250.82 82.38 251.789 82.6588 252.628 83.0284C253.234 83.295 253.575 83.9561 253.438 84.603C250.824 96.932 235.543 101.402 226.698 92.4219C226.234 91.9507 226.165 91.2102 226.531 90.6595C226.679 90.4379 226.843 90.2171 227.017 89.9969C235.369 94.9281 246.165 91.2558 249.751 82.1944Z" fill="#56395A"/>
<path d="M15.165 17.4275C14.505 17.4575 13.935 17.5475 13.455 17.6975C12.975 17.8475 12.6 18.1925 12.33 18.7325C12.09 19.2425 11.97 20.1125 11.97 21.3425V38.5775C11.97 39.3875 11.955 40.1675 11.925 40.9175C11.895 41.6675 11.85 42.2375 11.79 42.6275C12.27 42.5675 12.87 42.5375 13.59 42.5375C14.34 42.5075 14.865 42.4925 15.165 42.4925V45.9575H2.25V42.9875C2.94 42.9575 3.51 42.8675 3.96 42.7175C4.44 42.5675 4.8 42.2225 5.04 41.6825C5.31 41.1425 5.445 40.2725 5.445 39.0725V21.8375C5.445 21.0275 5.46 20.2475 5.49 19.4975C5.55 18.7475 5.595 18.1775 5.625 17.7875C5.145 17.8175 4.545 17.8475 3.825 17.8775C3.105 17.8775 2.58 17.8925 2.25 17.9225V14.4575H15.165V17.4275ZM31.4736 45.9575V42.9875C32.1636 42.9575 32.7336 42.8675 33.1836 42.7175C33.6636 42.5675 34.0236 42.2225 34.2636 41.6825C34.5336 41.1425 34.6686 40.2725 34.6686 39.0725V21.8375C34.6686 21.0275 34.6836 20.2475 34.7136 19.4975C34.7736 18.7475 34.8186 18.1775 34.8486 17.7875C34.3686 17.8175 33.7686 17.8475 33.0486 17.8775C32.3286 17.8775 31.8036 17.8925 31.4736 17.9225V14.4575H53.9736L54.2436 23.1875H51.2736C51.2736 21.5375 50.9886 20.2925 50.4186 19.4525C49.8486 18.6125 49.1436 18.0575 48.3036 17.7875C47.4636 17.4875 46.6386 17.3525 45.8286 17.3825L44.2086 17.4275C43.5786 17.4275 43.0386 17.5175 42.5886 17.6975C42.1386 17.8475 41.7936 18.2075 41.5536 18.7775C41.3136 19.3175 41.1936 20.1725 41.1936 21.3425V29.1725H45.8286L45.6486 25.3025H49.1136V36.2375H46.1436C46.1436 34.9775 45.9486 34.0625 45.5586 33.4925C45.1686 32.9225 44.6286 32.5775 43.9386 32.4575C43.2786 32.3075 42.5436 32.2475 41.7336 32.2775H41.1936V38.5775C41.1936 39.3875 41.1786 40.1675 41.1486 40.9175C41.1186 41.6675 41.0736 42.2375 41.0136 42.6275C41.3436 42.5975 41.7786 42.5825 42.3186 42.5825C42.8586 42.5525 43.3836 42.5375 43.8936 42.5375C44.4336 42.5075 44.8086 42.4925 45.0186 42.4925V45.9575H31.4736ZM70.0966 17.4275C69.4366 17.4575 68.8666 17.5475 68.3866 17.6975C67.9066 17.8475 67.5316 18.1925 67.2616 18.7325C67.0216 19.2425 66.9016 20.1125 66.9016 21.3425V38.5775C66.9016 39.3875 66.8866 40.1675 66.8566 40.9175C66.8266 41.6675 66.7816 42.2375 66.7216 42.6275C67.2016 42.5675 67.8016 42.5375 68.5216 42.5375C69.2716 42.5075 69.7966 42.4925 70.0966 42.4925V45.9575H57.1816V42.9875C57.8716 42.9575 58.4416 42.8675 58.8916 42.7175C59.3716 42.5675 59.7316 42.2225 59.9716 41.6825C60.2416 41.1425 60.3766 40.2725 60.3766 39.0725V21.8375C60.3766 21.0275 60.3916 20.2475 60.4216 19.4975C60.4816 18.7475 60.5266 18.1775 60.5566 17.7875C60.0766 17.8175 59.4766 17.8475 58.7566 17.8775C58.0366 17.8775 57.5116 17.8925 57.1816 17.9225V14.4575H70.0966V17.4275ZM89.0416 46.6775C86.1916 46.6775 83.7616 46.1975 81.7516 45.2375C79.7716 44.2775 78.1666 43.0025 76.9366 41.4125C75.7066 39.7925 74.8066 38.0075 74.2366 36.0575C73.6666 34.1075 73.3816 32.1575 73.3816 30.2075C73.3816 28.3175 73.6966 26.4125 74.3266 24.4925C74.9866 22.5425 75.9616 20.7575 77.2516 19.1375C78.5716 17.5175 80.2216 16.2125 82.2016 15.2225C84.1816 14.2325 86.5066 13.7375 89.1766 13.7375C91.9066 13.7375 94.2616 14.2325 96.2416 15.2225C98.2216 16.2125 99.8416 17.5325 101.102 19.1825C102.362 20.8025 103.292 22.5725 103.892 24.4925C104.522 26.4125 104.837 28.3175 104.837 30.2075C104.837 32.0675 104.507 33.9575 103.847 35.8775C103.217 37.7975 102.242 39.5825 100.922 41.2325C99.6316 42.8525 97.9966 44.1725 96.0166 45.1925C94.0366 46.1825 91.7116 46.6775 89.0416 46.6775ZM89.5366 43.3925C91.0966 43.3925 92.4016 43.0175 93.4516 42.2675C94.5016 41.4875 95.3416 40.4825 95.9716 39.2525C96.6016 38.0225 97.0516 36.6875 97.3216 35.2475C97.5916 33.7775 97.7266 32.3525 97.7266 30.9725C97.7266 28.2125 97.3966 25.7825 96.7366 23.6825C96.0766 21.5825 95.0716 19.9325 93.7216 18.7325C92.4016 17.5325 90.6916 16.9625 88.5916 17.0225C87.0616 17.0525 85.7716 17.4725 84.7216 18.2825C83.6716 19.0625 82.8316 20.0825 82.2016 21.3425C81.5716 22.5725 81.1216 23.9225 80.8516 25.3925C80.5816 26.8625 80.4466 28.2875 80.4466 29.6675C80.4466 31.0775 80.5966 32.5775 80.8966 34.1675C81.2266 35.7575 81.7366 37.2575 82.4266 38.6675C83.1166 40.0775 84.0466 41.2175 85.2166 42.0875C86.3866 42.9575 87.8266 43.3925 89.5366 43.3925ZM108.114 45.9575V42.9875C108.804 42.9575 109.374 42.8675 109.824 42.7175C110.304 42.5675 110.664 42.2225 110.904 41.6825C111.174 41.1425 111.309 40.2725 111.309 39.0725V21.8375C111.309 21.0275 111.324 20.2475 111.354 19.4975C111.414 18.7475 111.459 18.1775 111.489 17.7875C111.009 17.8175 110.409 17.8475 109.689 17.8775C108.969 17.8775 108.444 17.8925 108.114 17.9225V14.4575C110.244 14.4275 112.374 14.4125 114.504 14.4125C116.634 14.4125 118.764 14.3975 120.894 14.3675C123.534 14.3375 125.829 14.6375 127.779 15.2675C129.729 15.8975 131.229 16.9175 132.279 18.3275C133.329 19.7375 133.824 21.6425 133.764 24.0425C133.704 25.9625 133.029 27.7025 131.739 29.2625C130.449 30.8225 128.484 31.9775 125.844 32.7275C126.414 32.9675 126.969 33.3575 127.509 33.8975C128.079 34.4375 128.559 35.0075 128.949 35.6075L131.064 38.7575C132.054 40.2875 132.879 41.3675 133.539 41.9975C134.229 42.5975 135.084 42.9275 136.104 42.9875V45.9575H128.679C128.139 45.5675 127.599 45.0125 127.059 44.2925C126.549 43.5425 125.994 42.6875 125.394 41.7275L122.064 36.3275C121.314 35.1275 120.684 34.2575 120.174 33.7175H117.834V38.5325C117.834 39.3725 117.819 40.1675 117.789 40.9175C117.759 41.6675 117.714 42.2375 117.654 42.6275C117.984 42.5975 118.404 42.5825 118.914 42.5825C119.424 42.5525 119.919 42.5375 120.399 42.5375C120.909 42.5075 121.269 42.4925 121.479 42.4925V45.9575H108.114ZM119.994 30.4775C122.484 30.4775 124.269 29.9225 125.349 28.8125C126.429 27.6725 126.969 25.9625 126.969 23.6825C126.969 22.2425 126.744 21.1175 126.294 20.3075C125.844 19.4675 125.274 18.8525 124.584 18.4625C123.924 18.0425 123.249 17.7875 122.559 17.6975C121.869 17.5775 121.299 17.5175 120.849 17.5175C119.919 17.5175 119.184 17.7125 118.644 18.1025C118.104 18.4925 117.834 19.4825 117.834 21.0725V30.2975C118.164 30.3275 118.509 30.3725 118.869 30.4325C119.229 30.4625 119.604 30.4775 119.994 30.4775ZM151.879 17.4275C151.219 17.4575 150.649 17.5475 150.169 17.6975C149.689 17.8475 149.314 18.1925 149.044 18.7325C148.804 19.2425 148.684 20.1125 148.684 21.3425V38.5775C148.684 39.3875 148.669 40.1675 148.639 40.9175C148.609 41.6675 148.564 42.2375 148.504 42.6275C148.984 42.5675 149.584 42.5375 150.304 42.5375C151.054 42.5075 151.579 42.4925 151.879 42.4925V45.9575H138.964V42.9875C139.654 42.9575 140.224 42.8675 140.674 42.7175C141.154 42.5675 141.514 42.2225 141.754 41.6825C142.024 41.1425 142.159 40.2725 142.159 39.0725V21.8375C142.159 21.0275 142.174 20.2475 142.204 19.4975C142.264 18.7475 142.309 18.1775 142.339 17.7875C141.859 17.8175 141.259 17.8475 140.539 17.8775C139.819 17.8775 139.294 17.8925 138.964 17.9225V14.4575H151.879V17.4275Z" fill="#F6F6FF"/>
<path d="M16.92 83.7434C13.68 83.7434 10.92 83.0384 8.64 81.6284C6.36 80.1884 4.62 78.2534 3.42 75.8234C2.22 73.3934 1.62 70.6934 1.62 67.7234C1.62 65.6834 1.935 63.6584 2.565 61.6484C3.225 59.6384 4.2 57.8234 5.49 56.2034C6.78 54.5534 8.4 53.2484 10.35 52.2884C12.33 51.2984 14.625 50.8034 17.235 50.8034C18.045 50.8034 18.96 50.8934 19.98 51.0734C21 51.2234 22.02 51.4634 23.04 51.7934C24.09 52.1234 25.02 52.5284 25.83 53.0084L25.65 51.1184H29.115V61.6034H26.19C25.8 59.1134 24.84 57.2384 23.31 55.9784C21.78 54.7184 19.95 54.0734 17.82 54.0434C16.26 54.0434 14.895 54.4034 13.725 55.1234C12.585 55.8434 11.64 56.8034 10.89 58.0034C10.14 59.2034 9.57 60.5684 9.18 62.0984C8.82 63.6284 8.64 65.2034 8.64 66.8234C8.64 69.4034 9 71.6984 9.72 73.7084C10.44 75.7184 11.49 77.3084 12.87 78.4784C14.28 79.6184 16.005 80.1884 18.045 80.1884C18.615 80.1884 19.29 80.1434 20.07 80.0534C20.85 79.9634 21.63 79.8284 22.41 79.6484C23.19 79.4684 23.85 79.2434 24.39 78.9734V74.7884C24.39 73.9784 24.405 73.1984 24.435 72.4484C24.495 71.6984 24.54 71.1284 24.57 70.7384C24.09 70.7684 23.49 70.7984 22.77 70.8284C22.05 70.8284 21.525 70.8434 21.195 70.8734V67.4084H33.165V70.3784C32.505 70.4084 31.95 70.5134 31.5 70.6934C31.05 70.8734 30.705 71.2334 30.465 71.7734C30.255 72.3134 30.15 73.1534 30.15 74.2934V81.4934H29.07C28.2 81.4934 27.33 81.6134 26.46 81.8534C25.59 82.0934 24.66 82.3634 23.67 82.6634C22.74 82.9334 21.72 83.1734 20.61 83.3834C19.5 83.6234 18.27 83.7434 16.92 83.7434ZM49.0908 54.4934C48.4308 54.5234 47.8608 54.6134 47.3808 54.7634C46.9008 54.9134 46.5258 55.2584 46.2558 55.7984C46.0158 56.3084 45.8958 57.1784 45.8958 58.4084V75.6434C45.8958 76.4534 45.8808 77.2334 45.8508 77.9834C45.8208 78.7334 45.7758 79.3034 45.7158 79.6934C46.1958 79.6334 46.7958 79.6034 47.5158 79.6034C48.2658 79.5734 48.7908 79.5584 49.0908 79.5584V83.0234H36.1758V80.0534C36.8658 80.0234 37.4358 79.9334 37.8858 79.7834C38.3658 79.6334 38.7258 79.2884 38.9658 78.7484C39.2358 78.2084 39.3708 77.3384 39.3708 76.1384V58.9034C39.3708 58.0934 39.3858 57.3134 39.4158 56.5634C39.4758 55.8134 39.5208 55.2434 39.5508 54.8534C39.0708 54.8834 38.4708 54.9134 37.7508 54.9434C37.0308 54.9434 36.5058 54.9584 36.1758 54.9884V51.5234H49.0908V54.4934ZM67.7208 83.7434C64.4808 83.7434 61.7208 83.0384 59.4408 81.6284C57.1608 80.1884 55.4208 78.2534 54.2208 75.8234C53.0208 73.3934 52.4208 70.6934 52.4208 67.7234C52.4208 65.6834 52.7358 63.6584 53.3658 61.6484C54.0258 59.6384 55.0008 57.8234 56.2908 56.2034C57.5808 54.5534 59.2008 53.2484 61.1508 52.2884C63.1308 51.2984 65.4258 50.8034 68.0358 50.8034C68.8458 50.8034 69.7608 50.8934 70.7808 51.0734C71.8008 51.2234 72.8208 51.4634 73.8408 51.7934C74.8908 52.1234 75.8208 52.5284 76.6308 53.0084L76.4508 51.1184H79.9158V61.6034H76.9908C76.6008 59.1134 75.6408 57.2384 74.1108 55.9784C72.5808 54.7184 70.7508 54.0734 68.6208 54.0434C67.0608 54.0434 65.6958 54.4034 64.5258 55.1234C63.3858 55.8434 62.4408 56.8034 61.6908 58.0034C60.9408 59.2034 60.3708 60.5684 59.9808 62.0984C59.6208 63.6284 59.4408 65.2034 59.4408 66.8234C59.4408 69.4034 59.8008 71.6984 60.5208 73.7084C61.2408 75.7184 62.2908 77.3084 63.6708 78.4784C65.0808 79.6184 66.8058 80.1884 68.8458 80.1884C69.4158 80.1884 70.0908 80.1434 70.8708 80.0534C71.6508 79.9634 72.4308 79.8284 73.2108 79.6484C73.9908 79.4684 74.6508 79.2434 75.1908 78.9734V74.7884C75.1908 73.9784 75.2058 73.1984 75.2358 72.4484C75.2958 71.6984 75.3408 71.1284 75.3708 70.7384C74.8908 70.7684 74.2908 70.7984 73.5708 70.8284C72.8508 70.8284 72.3258 70.8434 71.9958 70.8734V67.4084H83.9658V70.3784C83.3058 70.4084 82.7508 70.5134 82.3008 70.6934C81.8508 70.8734 81.5058 71.2334 81.2658 71.7734C81.0558 72.3134 80.9508 73.1534 80.9508 74.2934V81.4934H79.8708C79.0008 81.4934 78.1308 81.6134 77.2608 81.8534C76.3908 82.0934 75.4608 82.3634 74.4708 82.6634C73.5408 82.9334 72.5208 83.1734 71.4108 83.3834C70.3008 83.6234 69.0708 83.7434 67.7208 83.7434ZM84.555 83.0234V79.9184C85.395 79.9184 86.07 79.6784 86.58 79.1984C87.09 78.7184 87.51 78.0884 87.84 77.3084C88.2 76.5284 88.545 75.6884 88.875 74.7884L97.65 50.7134H100.8L110.385 75.2384C110.565 75.6884 110.805 76.3784 111.105 77.3084C111.405 78.2084 111.585 79.0034 111.645 79.6934C112.155 79.6334 112.635 79.6034 113.085 79.6034C113.565 79.5734 113.955 79.5584 114.255 79.5584V83.0234H102.15V80.0534C103.38 80.0534 104.07 79.6784 104.22 78.9284C104.37 78.1484 104.235 77.2034 103.815 76.0934L102.915 73.6184L93.15 73.7984L92.43 75.9134C92.28 76.3034 92.055 76.8884 91.755 77.6684C91.485 78.4184 91.23 79.0484 90.99 79.5584C91.47 79.4984 92.04 79.4684 92.7 79.4684C93.39 79.4384 93.885 79.4234 94.185 79.4234V83.0234H84.555ZM94.275 70.4234H101.79L99.72 64.7984C99.33 63.7184 98.985 62.6384 98.685 61.5584C98.385 60.4484 98.16 59.4734 98.01 58.6334H97.965C97.845 59.1434 97.665 59.9084 97.425 60.9284C97.185 61.9484 96.81 63.1634 96.3 64.5734L94.275 70.4234ZM140.624 83.4734L126.224 65.0684C125.834 64.5584 125.429 64.0184 125.009 63.4484C124.589 62.8784 124.169 62.2934 123.749 61.6934H123.704L123.794 75.6434C123.794 76.4534 123.779 77.2334 123.749 77.9834C123.719 78.7334 123.674 79.3034 123.614 79.6934C124.094 79.6334 124.694 79.6034 125.414 79.6034C126.164 79.5734 126.689 79.5584 126.989 79.5584V83.0234H116.729V80.0534C117.419 80.0234 117.989 79.9334 118.439 79.7834C118.919 79.6334 119.279 79.2884 119.519 78.7484C119.789 78.2084 119.924 77.3384 119.924 76.1384L119.834 58.9034C119.834 58.0934 119.849 57.3134 119.879 56.5634C119.909 55.8134 119.954 55.2434 120.014 54.8534C119.534 54.8834 118.919 54.9134 118.169 54.9434C117.449 54.9434 116.924 54.9584 116.594 54.9884V51.5234H123.659L137.429 68.8934C138.179 69.8534 138.794 70.6784 139.274 71.3684C139.784 72.0584 140.219 72.6584 140.579 73.1684H140.624V58.9034C140.624 58.0934 140.639 57.3134 140.669 56.5634C140.699 55.8134 140.729 55.2434 140.759 54.8534C140.279 54.8834 139.679 54.9134 138.959 54.9434C138.239 54.9434 137.714 54.9584 137.384 54.9884V51.5234H147.644V54.4934C146.984 54.5234 146.414 54.6134 145.934 54.7634C145.454 54.9134 145.079 55.2584 144.809 55.7984C144.569 56.3084 144.449 57.1784 144.449 58.4084V83.4734H140.624ZM174.753 61.6934C174.753 59.2634 174.258 57.4634 173.268 56.2934C172.278 55.0934 170.928 54.5084 169.218 54.5384H167.058V75.6434C167.058 76.4534 167.043 77.2334 167.013 77.9834C166.983 78.7334 166.938 79.3034 166.878 79.6934C167.388 79.6334 168.033 79.6034 168.813 79.6034C169.623 79.5734 170.178 79.5584 170.478 79.5584V83.0234H157.338V80.0534C158.028 80.0234 158.598 79.9334 159.048 79.7834C159.528 79.6334 159.888 79.2884 160.128 78.7484C160.398 78.2084 160.533 77.3384 160.533 76.1384V54.5834H158.463C156.753 54.6134 155.403 55.1984 154.413 56.3384C153.423 57.4784 152.928 59.2634 152.928 61.6934H149.958L150.183 51.5234H177.453L177.723 61.6934H174.753ZM193.671 54.4934C193.011 54.5234 192.441 54.6134 191.961 54.7634C191.481 54.9134 191.106 55.2584 190.836 55.7984C190.596 56.3084 190.476 57.1784 190.476 58.4084V75.6434C190.476 76.4534 190.461 77.2334 190.431 77.9834C190.401 78.7334 190.356 79.3034 190.296 79.6934C190.776 79.6334 191.376 79.6034 192.096 79.6034C192.846 79.5734 193.371 79.5584 193.671 79.5584V83.0234H180.756V80.0534C181.446 80.0234 182.016 79.9334 182.466 79.7834C182.946 79.6334 183.306 79.2884 183.546 78.7484C183.816 78.2084 183.951 77.3384 183.951 76.1384V58.9034C183.951 58.0934 183.966 57.3134 183.996 56.5634C184.056 55.8134 184.101 55.2434 184.131 54.8534C183.651 54.8834 183.051 54.9134 182.331 54.9434C181.611 54.9434 181.086 54.9584 180.756 54.9884V51.5234H193.671V54.4934Z" fill="#F6F6FF"/>
<path d="M102.411 109.239C101.313 109.239 100.332 108.96 99.4681 108.402C98.6221 107.844 97.9471 107.061 97.4431 106.053C96.9571 105.027 96.7141 103.821 96.7141 102.435C96.7141 100.959 97.0021 99.6541 97.5781 98.5201C98.1721 97.3861 98.9821 96.4951 100.008 95.8471C101.034 95.1991 102.222 94.8751 103.572 94.8751C104.13 94.8751 104.661 94.9471 105.165 95.0911C105.687 95.2171 106.119 95.3701 106.461 95.5501V92.4721C106.461 92.2021 106.461 91.9051 106.461 91.5811C106.479 91.2571 106.515 90.9061 106.569 90.5281C106.245 90.5461 105.912 90.5641 105.57 90.5821C105.228 90.6001 104.922 90.6091 104.652 90.6091V89.1781C105.858 89.1781 106.713 89.0971 107.217 88.9351C107.721 88.7731 108.072 88.6021 108.27 88.4221H109.269V105.459C109.269 105.729 109.26 106.035 109.242 106.377C109.224 106.719 109.197 107.079 109.161 107.457C109.485 107.439 109.809 107.421 110.133 107.403C110.457 107.385 110.754 107.376 111.024 107.376V108.807H106.731C106.695 108.555 106.659 108.321 106.623 108.105C106.605 107.889 106.587 107.673 106.569 107.457C105.453 108.645 104.067 109.239 102.411 109.239ZM103.518 107.538C104.076 107.538 104.616 107.385 105.138 107.079C105.678 106.773 106.119 106.386 106.461 105.918C106.461 105.684 106.461 105.441 106.461 105.189C106.461 104.937 106.461 104.667 106.461 104.379V97.0351C105.741 96.5131 104.868 96.2521 103.842 96.2521C102.96 96.2521 102.222 96.5131 101.628 97.0351C101.034 97.5391 100.584 98.2411 100.278 99.1411C99.9901 100.023 99.8551 101.022 99.8731 102.138C99.9091 103.128 100.062 104.037 100.332 104.865C100.602 105.675 100.998 106.323 101.52 106.809C102.06 107.295 102.726 107.538 103.518 107.538ZM112.932 107.673C113.472 107.673 113.85 107.547 114.066 107.295C114.282 107.043 114.408 106.692 114.444 106.242C114.498 105.792 114.525 105.27 114.525 104.676V99.0871C114.525 98.7811 114.534 98.4751 114.552 98.1691C114.57 97.8631 114.597 97.5211 114.633 97.1431C114.327 97.1431 114.003 97.1611 113.661 97.1971C113.319 97.2151 113.004 97.2241 112.716 97.2241V95.7931C113.922 95.7931 114.777 95.7121 115.281 95.5501C115.785 95.3881 116.136 95.2171 116.334 95.0371H117.36V105.459C117.36 105.783 117.351 106.116 117.333 106.458C117.315 106.782 117.288 107.115 117.252 107.457C117.522 107.439 117.81 107.43 118.116 107.43C118.422 107.412 118.701 107.394 118.953 107.376V108.807H112.932V107.673ZM115.821 92.5531C115.353 92.5531 114.957 92.3821 114.633 92.0401C114.309 91.6801 114.147 91.2481 114.147 90.7441C114.147 90.2401 114.318 89.8171 114.66 89.4751C115.002 89.1151 115.389 88.9351 115.821 88.9351C116.289 88.9351 116.676 89.1151 116.982 89.4751C117.306 89.8171 117.468 90.2401 117.468 90.7441C117.468 91.2481 117.306 91.6801 116.982 92.0401C116.658 92.3821 116.271 92.5531 115.821 92.5531ZM134.927 91.0951C134.351 91.1131 133.928 91.2391 133.658 91.4731C133.388 91.6891 133.217 92.0131 133.145 92.4451C133.073 92.8771 133.037 93.4261 133.037 94.0921V105.189C133.037 106.161 133.01 106.908 132.956 107.43C133.262 107.412 133.595 107.394 133.955 107.376C134.315 107.34 134.639 107.322 134.927 107.322V108.807H128.285V107.619C128.879 107.601 129.302 107.484 129.554 107.268C129.824 107.034 129.995 106.701 130.067 106.269C130.139 105.837 130.175 105.288 130.175 104.622V93.3901C130.175 92.5621 130.202 91.8601 130.256 91.2841C129.95 91.3021 129.617 91.3201 129.257 91.3381C128.897 91.3561 128.573 91.3741 128.285 91.3921V89.9071H134.927V91.0951ZM137.269 107.673C137.809 107.673 138.187 107.547 138.403 107.295C138.619 107.043 138.745 106.692 138.781 106.242C138.835 105.792 138.862 105.27 138.862 104.676V99.0601C138.862 98.7721 138.862 98.4661 138.862 98.1421C138.88 97.8181 138.916 97.4851 138.97 97.1431C138.664 97.1431 138.34 97.1521 137.998 97.1701C137.656 97.1881 137.341 97.2061 137.053 97.2241V95.7931H137.971C138.727 95.7931 139.294 95.7121 139.672 95.5501C140.068 95.3881 140.365 95.2171 140.563 95.0371H141.535C141.571 95.2891 141.598 95.6401 141.616 96.0901C141.634 96.5401 141.652 97.0441 141.67 97.6021C142.174 96.8641 142.804 96.2251 143.56 95.6851C144.316 95.1451 145.126 94.8751 145.99 94.8751C146.548 94.8751 147.025 95.0281 147.421 95.3341C147.835 95.6221 148.042 96.0991 148.042 96.7651C148.042 97.0531 147.925 97.3771 147.691 97.7371C147.457 98.0971 147.061 98.2681 146.503 98.2501C146.125 98.2321 145.792 98.0881 145.504 97.8181C145.234 97.5481 145.108 97.1791 145.126 96.7111C144.694 96.7111 144.262 96.8461 143.83 97.1161C143.398 97.3681 142.993 97.7101 142.615 98.1421C142.237 98.5741 141.931 99.0421 141.697 99.5461V105.459C141.697 105.783 141.688 106.116 141.67 106.458C141.67 106.782 141.643 107.115 141.589 107.457C141.877 107.439 142.174 107.43 142.48 107.43C142.786 107.412 143.065 107.394 143.317 107.376V108.807H137.269V107.673ZM149.398 107.673C149.938 107.673 150.316 107.547 150.532 107.295C150.748 107.043 150.874 106.692 150.91 106.242C150.964 105.792 150.991 105.27 150.991 104.676V99.0871C150.991 98.7811 151 98.4751 151.018 98.1691C151.036 97.8631 151.063 97.5211 151.099 97.1431C150.793 97.1431 150.469 97.1611 150.127 97.1971C149.785 97.2151 149.47 97.2241 149.182 97.2241V95.7931C150.388 95.7931 151.243 95.7121 151.747 95.5501C152.251 95.3881 152.602 95.2171 152.8 95.0371H153.826V105.459C153.826 105.783 153.817 106.116 153.799 106.458C153.781 106.782 153.754 107.115 153.718 107.457C153.988 107.439 154.276 107.43 154.582 107.43C154.888 107.412 155.167 107.394 155.419 107.376V108.807H149.398V107.673ZM152.287 92.5531C151.819 92.5531 151.423 92.3821 151.099 92.0401C150.775 91.6801 150.613 91.2481 150.613 90.7441C150.613 90.2401 150.784 89.8171 151.126 89.4751C151.468 89.1151 151.855 88.9351 152.287 88.9351C152.755 88.9351 153.142 89.1151 153.448 89.4751C153.772 89.8171 153.934 90.2401 153.934 90.7441C153.934 91.2481 153.772 91.6801 153.448 92.0401C153.124 92.3821 152.737 92.5531 152.287 92.5531ZM157.388 108.807V107.673C157.928 107.673 158.306 107.547 158.522 107.295C158.738 107.043 158.864 106.692 158.9 106.242C158.954 105.792 158.981 105.27 158.981 104.676L159.008 99.0601C159.008 98.7721 159.008 98.4661 159.008 98.1421C159.026 97.8181 159.062 97.4851 159.116 97.1431C158.792 97.1431 158.459 97.1611 158.117 97.1971C157.775 97.2151 157.469 97.2241 157.199 97.2241V95.7931C158.009 95.7931 158.639 95.7571 159.089 95.6851C159.557 95.6131 159.908 95.5231 160.142 95.4151C160.394 95.2891 160.583 95.1631 160.709 95.0371H161.681C161.717 95.2891 161.735 95.5231 161.735 95.7391C161.735 95.9371 161.753 96.2161 161.789 96.5761C162.365 96.1081 163.04 95.7121 163.814 95.3881C164.588 95.0461 165.326 94.8751 166.028 94.8751C167.63 94.8751 168.782 95.3611 169.484 96.3331C170.204 97.3051 170.564 98.8261 170.564 100.896V105.459C170.564 105.783 170.555 106.116 170.537 106.458C170.519 106.782 170.492 107.115 170.456 107.457C170.744 107.439 171.032 107.43 171.32 107.43C171.626 107.412 171.905 107.394 172.157 107.376V108.807H166.136V107.673C166.676 107.673 167.054 107.547 167.27 107.295C167.486 107.043 167.612 106.692 167.648 106.242C167.702 105.792 167.729 105.27 167.729 104.676V100.896C167.711 99.4741 167.486 98.4031 167.054 97.6831C166.622 96.9631 165.911 96.6121 164.921 96.6301C164.345 96.6301 163.769 96.7741 163.193 97.0621C162.635 97.3501 162.176 97.7011 161.816 98.1151C161.816 98.3131 161.816 98.5201 161.816 98.7361C161.816 98.9341 161.816 99.1321 161.816 99.3301V105.459C161.816 105.783 161.807 106.116 161.789 106.458C161.771 106.782 161.744 107.115 161.708 107.457C161.978 107.439 162.266 107.43 162.572 107.43C162.878 107.412 163.157 107.394 163.409 107.376V108.807H157.388ZM182.017 108.807C181.981 108.519 181.954 108.267 181.936 108.051C181.918 107.835 181.891 107.61 181.855 107.376C180.613 108.618 179.227 109.239 177.697 109.239C176.401 109.239 175.42 108.924 174.754 108.294C174.106 107.646 173.782 106.845 173.782 105.891C173.782 105.063 174.025 104.343 174.511 103.731C174.997 103.119 175.636 102.624 176.428 102.246C177.22 101.85 178.084 101.562 179.02 101.382C179.956 101.184 180.874 101.085 181.774 101.085V99.4921C181.774 98.9161 181.72 98.3851 181.612 97.8991C181.504 97.3951 181.279 96.9901 180.937 96.6841C180.595 96.3601 180.082 96.1981 179.398 96.1981C178.93 96.1801 178.462 96.2701 177.994 96.4681C177.526 96.6481 177.166 96.9541 176.914 97.3861C177.058 97.5301 177.148 97.7011 177.184 97.8991C177.238 98.0791 177.265 98.2501 177.265 98.4121C177.265 98.6641 177.157 98.9521 176.941 99.2761C176.725 99.5821 176.356 99.7261 175.834 99.7081C175.402 99.7081 175.069 99.5641 174.835 99.2761C174.619 98.9701 174.511 98.6191 174.511 98.2231C174.511 97.5751 174.745 96.9991 175.213 96.4951C175.699 95.9911 176.347 95.5951 177.157 95.3071C177.985 95.0191 178.921 94.8751 179.965 94.8751C181.513 94.8751 182.665 95.2801 183.421 96.0901C184.195 96.9001 184.582 98.1781 184.582 99.9241C184.582 100.914 184.573 101.841 184.555 102.705C184.555 103.551 184.555 104.469 184.555 105.459C184.555 105.729 184.546 106.035 184.528 106.377C184.51 106.719 184.483 107.079 184.447 107.457C184.753 107.439 185.068 107.421 185.392 107.403C185.716 107.385 186.022 107.376 186.31 107.376V108.807H182.017ZM181.774 102.327C181 102.363 180.217 102.498 179.425 102.732C178.651 102.948 178.003 103.29 177.481 103.758C176.977 104.208 176.734 104.802 176.752 105.54C176.788 106.152 176.995 106.602 177.373 106.89C177.751 107.178 178.183 107.322 178.669 107.322C179.299 107.322 179.857 107.205 180.343 106.971C180.829 106.719 181.306 106.377 181.774 105.945C181.756 105.747 181.747 105.549 181.747 105.351C181.747 105.135 181.747 104.91 181.747 104.676C181.747 104.514 181.747 104.217 181.747 103.785C181.765 103.353 181.774 102.867 181.774 102.327Z" fill="#502E56"/>
</svg>
