<svg width="106" height="105" viewBox="0 0 106 105" fill="none" xmlns="http://www.w3.org/2000/svg">
<path fill-rule="evenodd" clip-rule="evenodd" d="M52.7996 0.485352C23.3128 0.485352 0.455811 21.9233 0.455811 50.8799C0.455811 66.0261 6.70984 79.1141 16.8947 88.1542C17.7497 88.9137 18.2658 89.9777 18.3008 91.1165L18.5859 100.358C18.677 103.306 21.7447 105.224 24.4624 104.033L34.8519 99.481C35.7327 99.0955 36.7196 99.0238 37.6476 99.2773C42.4219 100.58 47.5032 101.274 52.7996 101.274C82.2864 101.274 105.143 79.8365 105.143 50.8799C105.143 21.9233 82.2864 0.485352 52.7996 0.485352Z" fill="url(#paint0_radial)"/>
<path fill-rule="evenodd" clip-rule="evenodd" d="M21.3674 65.6177L36.7433 41.4054C39.1891 37.5536 44.4267 36.5946 48.0965 39.3263L60.3258 48.4298C61.4478 49.2652 62.9916 49.2607 64.109 48.4191L80.6252 35.9779C82.8297 34.3175 85.7072 36.9359 84.232 39.2595L68.856 63.472C66.41 67.3236 61.1725 68.2828 57.5029 65.5509L45.2733 56.4472C44.1513 55.612 42.6074 55.6165 41.4902 56.4581L24.9738 68.8993C22.7694 70.5596 19.8918 67.9412 21.3674 65.6177Z" fill="white"/>
<defs>
<radialGradient id="paint0_radial" cx="0" cy="0" r="1" gradientUnits="userSpaceOnUse" gradientTransform="translate(20.6055 103.836) scale(114.067 113.216)">
<stop stop-color="#0099FF"/>
<stop offset="0.609754" stop-color="#A033FF"/>
<stop offset="0.934823" stop-color="#FF5280"/>
<stop offset="1" stop-color="#FF7061"/>
</radialGradient>
</defs>
</svg>
