<svg width="162" height="160" viewBox="0 0 162 160" fill="none" xmlns="http://www.w3.org/2000/svg">
<g clip-path="url(#clip0)">
<path d="M139.321 24.7295C140.537 18.482 141.814 13.5127 142.699 10.3599C143.104 8.91583 142.695 7.36053 141.631 6.30053C140.566 5.23991 139.003 4.83273 137.552 5.23616C133.716 6.30428 127.206 7.94365 118.975 9.35521C107.431 3.23398 94.4054 0.000244141 81.2473 0.000244141C68.0895 0.000244141 55.0641 3.23398 43.5204 9.35552C35.2891 7.94396 28.7792 6.30459 24.9433 5.23647C23.4931 4.83304 21.9291 5.24022 20.8643 6.30084C19.7997 7.36084 19.3907 8.91646 19.7962 10.3605C20.6816 13.513 21.958 18.4824 23.1742 24.7298C8.79894 39.6917 0.90155 59.276 0.90155 80.0002C0.90155 124.216 36.8367 160 81.2473 160C125.745 160 161.593 124.129 161.593 80.0002C161.593 59.2928 153.707 39.7035 139.321 24.7295ZM154.981 63.1069H150.025C147.688 53.6688 143.326 44.6823 137.336 36.9492C137.615 34.8185 137.929 32.6779 138.282 30.5351C146.541 39.9523 152.228 51.1022 154.981 63.1069ZM145.166 63.1069H124.513C131.079 58.7097 135.451 51.7357 136.53 43.8869C140.42 49.7907 143.354 56.3141 145.166 63.1069ZM137.915 9.99958C129.564 40.4629 135.01 46.3532 125.639 56.0669C117.754 64.2 104.247 66.1172 93.7391 57.3003L98.525 52.535C102.938 56.1038 107.939 57.5319 112.92 57.0841C114.215 56.9678 115.17 55.8285 115.053 54.5391C114.937 53.25 113.792 52.3013 112.497 52.4154C108.834 52.7441 105.183 51.7297 101.874 49.2004L108.054 43.0463C111.694 45.8719 115.817 47.0057 119.897 46.6391C121.192 46.5229 122.146 45.3832 122.03 44.0941C121.913 42.8051 120.77 41.8566 119.474 41.9704C116.741 42.216 113.983 41.5232 111.419 39.6957L117.504 33.6373C120.096 35.4742 122.974 36.2007 125.83 35.9439C127.125 35.8273 128.079 34.6879 127.963 33.3989C127.846 32.1098 126.699 31.1595 125.407 31.2754C123.842 31.4164 122.288 31.0604 120.904 30.2523L127.772 23.4139C128.691 22.4986 128.691 21.0145 127.772 20.0995C126.852 19.1842 125.362 19.1842 124.443 20.0995L117.575 26.937C116.763 25.5583 116.406 24.0117 116.547 22.4539C116.664 21.1648 115.71 20.0252 114.415 19.9086C113.122 19.7927 111.976 20.7427 111.858 22.0317C111.597 24.9076 112.347 27.7661 114.174 30.3226L108.09 36.381C106.265 33.8435 105.557 31.0982 105.805 28.3614C105.922 27.0723 104.967 25.933 103.672 25.8164C102.381 25.7014 101.233 26.6505 101.116 27.9398C100.745 32.0354 101.908 36.1345 104.725 39.7313L98.5442 45.8854C96.0233 42.616 94.9817 38.9876 95.3153 35.3076C95.432 34.0186 94.4773 32.8792 93.1824 32.7626C91.8865 32.647 90.7434 33.5973 90.6264 34.8864C90.1732 39.8888 91.6426 44.8651 95.1948 49.2197L90.4089 53.985C77.4977 38.7282 87.5673 17.6752 105.405 15.9177C116.682 14.8074 128.149 12.6539 137.915 9.99958ZM93.6858 63.1069H87.9069L90.4007 60.6238C91.3689 61.4569 92.4046 62.2628 93.6858 63.1069ZM87.0704 57.3106L81.2492 63.1069H81.246L75.4248 57.3106C77.9914 54.3535 80.0283 50.9279 81.2479 47.2451C82.4895 50.9979 84.5493 54.4085 87.0704 57.3106ZM81.2473 4.68773C91.3683 4.68773 101.404 6.7174 110.663 10.6021C108.743 10.8496 106.833 11.0671 104.942 11.2533C103.383 11.4068 101.859 11.6883 100.38 12.0849C96.007 10.8665 91.4857 10.0615 86.9258 9.70114C85.6296 9.59864 84.4956 10.5618 84.393 11.8521C84.2901 13.1424 85.2573 14.2714 86.5532 14.3739C88.7335 14.5461 90.9047 14.8261 93.0527 15.2111C87.3137 18.7211 83.2274 24.1617 81.2476 30.1979C79.2952 24.2614 75.2675 18.7736 69.4422 15.2111C71.5898 14.8264 73.761 14.5464 75.9414 14.3739C77.2372 14.2714 78.2045 13.1424 78.1016 11.8521C77.9986 10.5621 76.8704 9.59614 75.5688 9.70114C71.0092 10.0618 66.4879 10.8665 62.1154 12.0849C58.9047 11.224 57.8969 11.3839 51.8321 10.6021C61.0906 6.7174 71.1266 4.68773 81.2473 4.68773ZM57.0891 15.918C75.0086 17.6836 84.9482 38.7838 72.0851 53.9853L67.2992 49.2201C70.8513 44.8648 72.3211 39.8885 71.8676 34.8867C71.7508 33.5976 70.6128 32.6489 69.3116 32.7629C68.0167 32.8792 67.0619 34.0185 67.1787 35.3079C67.5117 38.9807 66.475 42.6101 63.9501 45.8857L57.7695 39.7317C60.5819 36.141 61.75 32.0426 61.3778 27.9401C61.2611 26.6511 60.123 25.7008 58.8215 25.8167C57.5269 25.9333 56.5721 27.0726 56.6889 28.3617C56.9356 31.0823 56.2398 33.8282 54.4041 36.3814L48.3198 30.3229C50.1389 27.7776 50.8981 24.9211 50.636 22.032C50.5186 20.743 49.3771 19.7914 48.0797 19.9089C46.7848 20.0255 45.83 21.1652 45.9471 22.4542C46.0886 24.0117 45.7312 25.5586 44.9195 26.9376L38.0519 20.0989C37.1323 19.1836 35.6422 19.1836 34.7229 20.0989C33.8036 21.0142 33.8036 22.4983 34.7229 23.4133L41.5909 30.2517C40.2062 31.0598 38.6526 31.4157 37.0881 31.2748C35.7897 31.1601 34.6491 32.1095 34.5321 33.3982C34.4153 34.6873 35.3701 35.8267 36.665 35.9432C39.5819 36.2057 42.4448 35.4407 44.9908 33.637L51.0754 39.6951C48.5166 41.5191 45.7585 42.216 43.0211 41.9701C41.722 41.8538 40.5821 42.8048 40.4651 44.0938C40.348 45.3829 41.3031 46.5223 42.598 46.6388C46.7257 47.0091 50.8347 45.8454 54.4402 43.046L60.6208 49.2001C57.3367 51.71 53.6932 52.7469 49.9973 52.4147C48.6983 52.2985 47.5584 53.2494 47.4413 54.5385C47.3246 55.8275 48.2793 56.9669 49.5742 57.0835C54.5221 57.5281 59.5292 56.1247 63.9696 52.5344L68.7555 57.3C58.1587 66.1897 44.4347 64.1456 36.6327 55.8338C27.5521 46.1951 32.9195 40.422 24.5796 9.99927C34.3566 12.6564 45.8228 14.8083 57.0891 15.918ZM74.588 63.1069H68.8091C69.8376 62.4297 70.9835 61.58 72.0942 60.6238L74.588 63.1069ZM37.9819 63.1069H17.3284C19.1406 56.3141 22.0754 49.7907 25.9646 43.8869C27.0471 51.7588 31.435 58.7225 37.9819 63.1069ZM24.2127 30.5351C24.5655 32.6779 24.88 34.8185 25.1593 36.9492C19.1685 44.6823 14.8073 53.6688 12.4704 63.1069H7.5131C10.2671 51.1022 15.9541 39.9523 24.2127 30.5351ZM81.2473 155.313C61.2312 155.313 43.0095 147.528 29.4662 134.844H36.7221C49.2808 144.961 65.0558 150.526 81.2473 150.526C97.4391 150.526 113.214 144.961 125.773 134.844H133.028C119.485 147.528 101.263 155.313 81.2473 155.313ZM137.619 130.156H86.7397C85.4394 130.156 84.3858 131.206 84.3858 132.5C84.3858 133.794 85.4394 134.844 86.7397 134.844H117.829C107.044 141.971 94.2902 145.838 81.2473 145.838C68.2047 145.838 55.4508 141.971 44.6663 134.844H75.7549C77.0552 134.844 78.1088 133.794 78.1088 132.5C78.1088 131.206 77.0552 130.156 75.7549 130.156C74.8962 130.156 25.7804 130.156 24.8756 130.156C12.8919 116.817 5.60929 99.2355 5.60929 80.0002C5.60929 75.9268 5.94448 71.8175 6.60325 67.7944H155.892C156.559 71.869 156.885 75.9912 156.885 80.0002C156.885 98.0271 150.414 115.914 137.619 130.156Z" fill="#8277BB"/>
<path d="M81.2476 96.2105C86.606 96.2105 90.9653 90.8924 90.9653 84.3555C90.9653 77.8187 86.606 72.5005 81.2476 72.5005C75.8895 72.5005 71.5302 77.8187 71.5302 84.3555C71.5302 90.8921 75.8895 96.2105 81.2476 96.2105ZM81.2476 77.188C83.963 77.188 86.2576 80.4702 86.2576 84.3555C86.2576 88.2405 83.963 91.523 81.2476 91.523C78.5322 91.523 76.2379 88.2409 76.2379 84.3555C76.2379 80.4702 78.5322 77.188 81.2476 77.188Z" fill="#8277BB"/>
<path d="M97.8471 82.4199L106.622 95.1899C107.069 95.8405 107.803 96.2102 108.565 96.2102C109.863 96.2102 110.919 95.1624 110.919 93.8665V74.844C110.919 73.5496 109.865 72.5002 108.565 72.5002C107.264 72.5002 106.211 73.5496 106.211 74.844V86.2902L97.4356 73.5202C96.8531 72.6724 95.7835 72.3015 94.7974 72.6046C93.8113 72.9083 93.1393 73.8162 93.1393 74.8437V93.8662C93.1393 95.1605 94.1929 96.2099 95.4932 96.2099C96.7935 96.2099 97.8471 95.1605 97.8471 93.8662V82.4199Z" fill="#8277BB"/>
<path d="M53.9304 96.2105C55.2306 96.2105 56.2842 95.1611 56.2842 93.8667V82.4205L65.0595 95.1905C65.642 96.0383 66.7113 96.4095 67.6977 96.1061C68.6838 95.8023 69.3558 94.8945 69.3558 93.867V74.8445C69.3558 73.5501 68.3022 72.5008 67.0019 72.5008C65.7016 72.5008 64.648 73.5501 64.648 74.8445V86.2908L55.8728 73.5208C55.2906 72.673 54.2204 72.302 53.2345 72.6051C52.2484 72.9089 51.5765 73.8167 51.5765 74.8442V93.8667C51.5765 95.1611 52.6301 96.2105 53.9304 96.2105Z" fill="#8277BB"/>
<path d="M99.6699 101.031C98.3696 101.031 97.316 102.081 97.316 103.375V122.398C97.316 123.692 98.3696 124.741 99.6699 124.741C100.97 124.741 102.024 123.692 102.024 122.398V103.375C102.024 102.081 100.97 101.031 99.6699 101.031Z" fill="#8277BB"/>
<path d="M68.2734 101.031C62.915 101.031 58.5557 106.349 58.5557 112.886C58.5557 119.423 62.915 124.741 68.2734 124.741C73.6318 124.741 77.9912 119.423 77.9912 112.886C77.9912 106.349 73.6318 101.031 68.2734 101.031ZM68.2734 120.054C65.558 120.054 63.2634 116.771 63.2634 112.886C63.2634 109.001 65.558 105.719 68.2734 105.719C70.9889 105.719 73.2834 109.001 73.2834 112.886C73.2834 116.771 70.9889 120.054 68.2734 120.054Z" fill="#8277BB"/>
<path d="M59.3077 103.375C59.3077 102.081 58.2541 101.031 56.9538 101.031H42.0155C40.7152 101.031 39.6616 102.081 39.6616 103.375C39.6616 104.669 40.7152 105.719 42.0155 105.719H47.1303V122.398C47.1303 123.692 48.1839 124.741 49.4842 124.741C50.7845 124.741 51.8381 123.692 51.8381 122.398V105.719H56.9538C58.2538 105.719 59.3077 104.669 59.3077 103.375Z" fill="#8277BB"/>
<path d="M94.0301 101.423C92.9477 100.707 91.4867 100.999 90.7667 102.077L86.3763 108.653L81.9858 102.077C81.2661 100.999 79.8055 100.707 78.7224 101.423C77.6399 102.14 77.3455 103.595 78.0652 104.673L83.5494 112.886L78.0652 121.099C77.3455 122.177 77.6399 123.632 78.7224 124.349C79.8064 125.066 81.2671 124.771 81.9858 123.695L86.3763 117.119L90.7667 123.695C91.4873 124.774 92.9483 125.065 94.0301 124.349C95.1126 123.632 95.407 122.177 94.6873 121.099L89.2031 112.886L94.6873 104.673C95.407 103.595 95.1129 102.14 94.0301 101.423Z" fill="#8277BB"/>
<path d="M121.486 115.735C120.311 115.182 118.908 115.682 118.352 116.852C117.399 118.857 115.848 120.054 114.201 120.054C111.486 120.054 109.191 116.771 109.191 112.886C109.191 109.001 111.486 105.719 114.201 105.719C115.847 105.719 117.398 106.917 118.351 108.924C118.907 110.094 120.31 110.594 121.485 110.04C122.66 109.487 123.163 108.09 122.607 106.92C120.882 103.288 117.661 101.031 114.201 101.031C108.843 101.031 104.483 106.349 104.483 112.886C104.483 119.423 108.843 124.741 114.201 124.741C117.662 124.741 120.883 122.486 122.607 118.856C123.163 117.686 122.661 116.289 121.486 115.735Z" fill="#8277BB"/>
</g>
<defs>
<clipPath id="clip0">
<rect width="160.691" height="160" fill="white" transform="translate(0.90155 0.000244141)"/>
</clipPath>
</defs>
</svg>
