<svg width="161" height="160" viewBox="0 0 161 160" fill="none" xmlns="http://www.w3.org/2000/svg">
<g opacity="0.8" clip-path="url(#clip0)">
<path d="M144.166 110.692C141.885 113.384 138.759 117.074 136.498 118.482C139.077 115.712 141.389 112.145 143.313 107.287C144.763 103.629 144.814 99.8753 144.168 96.0173C144.346 95.7578 144.485 95.4637 144.558 95.1363C144.927 93.4887 146.348 89.9132 148.089 85.8321C152.358 89.9957 155.101 97.9015 155.087 100.411C151.275 102.304 147.665 106.563 144.166 110.692ZM119.569 123.463C114.422 125.882 108.589 128.625 102.663 133.828C95.0179 140.537 85.3419 138.234 79.0361 133.073C80.7384 131.836 82.3401 130.34 83.8181 128.597C89.7719 127.848 95.8746 125.712 101.625 122.263C112.083 115.991 120.058 106.114 123.506 95.1629C127.954 81.0352 123.217 65.5556 115.731 55.6915C118.394 55.7557 122.346 56.3489 125.758 58.8614C129.497 61.6152 131.795 66.1408 132.589 72.3148C133.217 77.1973 134.756 81.8702 136.245 86.3907C138.553 93.3993 140.732 100.017 138.594 105.417C134.164 116.601 127.723 119.628 119.569 123.463ZM110.088 143.408C107.944 144.659 105.919 145.841 104.293 147.228C97.7373 152.822 90.7701 155.245 84.6743 154.053C80.5451 153.245 77.3287 151.651 73.2577 149.635C69.722 147.881 65.7133 145.896 59.9678 143.775C50.7582 140.377 44.7033 135.691 42.4603 130.223C41.3512 127.521 41.3294 125.106 41.5975 123.338C43.3167 125.494 45.1533 127.448 47.0818 129.16C52.2193 133.722 57.8952 136.494 63.4969 137.175C64.4029 137.286 65.302 137.341 66.1928 137.341C69.0245 137.341 71.7682 136.787 74.3584 135.711C74.3896 135.744 74.4197 135.777 74.4527 135.808C78.4329 139.527 83.6546 142.086 88.7782 142.828C89.8661 142.985 90.9405 143.063 91.9997 143.063C97.1455 143.063 101.939 141.22 106.013 137.643C111.399 132.914 116.65 130.446 121.729 128.058C122.085 127.891 122.439 127.724 122.79 127.557C122.179 136.35 116.042 139.934 110.088 143.408ZM31.5295 98.4652C28.2604 94.7052 25.6782 91.736 24.8387 85.5179C22.8947 71.1178 31.9525 57.2167 41.462 51.4497C44.08 49.8612 46.5462 49.0148 48.5827 48.9437C43.054 55.1158 36.9 65.3096 37.1014 75.3178C37.2237 81.3457 39.6306 86.3133 44.2568 90.0799C45.4767 91.0735 46.7381 91.948 48.0322 92.7048C46.586 97.1877 47.252 103.801 49.8737 109.862C52.0824 114.97 57.6225 124.071 69.9239 127.638C71.9816 128.233 74.1204 128.612 76.3102 128.787C72.6788 131.524 68.5384 132.674 64.1119 132.135C54.5084 130.967 44.7944 122.097 38.7575 108.988C36.5941 104.29 33.9034 101.195 31.5295 98.4652ZM37.8272 118.307C37.0834 119.892 36.5134 122.016 36.4088 124.418C27.7706 123.206 19.7577 118.259 16.784 116.125C17.7392 112.133 16.8733 108.405 16.0335 104.783C15.1888 101.14 14.4386 97.9003 15.4435 94.523C18.5704 97.8734 22.6251 100.257 27.5589 101.637C27.6056 101.69 27.6517 101.743 27.6967 101.796C29.9529 104.391 32.2865 107.074 34.1446 111.112C35.2803 113.576 36.548 115.92 37.9249 118.124C37.8897 118.183 37.8567 118.244 37.8272 118.307ZM16.1506 50.8262C17.5739 49.5029 22.1227 45.3539 27.5226 41.2889C33.3214 36.9239 37.5296 34.5672 40.5346 33.3303C37.5923 38.3882 36.1278 43.9143 36.8135 48.4362C26.4883 55.774 17.6862 70.4911 19.807 86.1973C20.1922 89.0605 20.9143 91.4109 21.84 93.432C19.4713 91.7197 17.5802 89.5179 16.1375 86.7911C9.42323 74.0881 15.0267 54.4366 16.1506 50.8262ZM44.5048 19.2179C46.2225 16.5913 47.9895 13.892 49.0058 11.0852C52.5532 10.9237 61.6013 11.221 66.8743 15.469C66.3002 16.3415 65.7715 17.2541 65.2937 18.2079C58.0739 17.904 52.4092 21.0525 49.072 23.5782C47.7214 24.5999 46.4523 25.7471 45.2785 26.9868C43.6687 27.046 41.9146 27.443 40.0817 28.0841C40.4638 25.4028 42.4356 22.3818 44.5048 19.2179ZM75.3418 26.5551C83.0642 31.0988 90.5524 32.8234 96.5669 34.2083C104.85 36.1156 109.25 37.347 110.946 42.3936C112.075 45.7589 109.856 47.9733 108.82 48.7868C103.58 45.0016 97.9687 43.8762 92.9985 45.6807C90.4396 43.324 87.3934 41.4381 83.9287 40.1156C73.5616 36.16 61.6572 37.9688 53.0872 44.6713C49.9301 43.3337 45.9613 43.6528 41.7032 45.5836C41.9069 39.3718 46.8407 31.6344 52.1362 27.6261C56.2242 24.5318 64.6736 20.2774 75.3418 26.5551ZM52.6919 94.8604C53.8141 95.2523 54.9533 95.561 56.105 95.7856C58.7745 102.419 65.6257 107.753 73.557 109.247C75.1023 109.54 76.6459 109.684 78.1797 109.684C86.2479 109.684 94.0068 105.709 99.9883 98.3626C106.911 89.8616 113.323 78.1824 101.755 62.9855C101.068 58.0666 99.3536 53.6615 96.7557 49.9703C101.414 49.4032 105.699 52.5439 108.025 54.6875C116.749 62.7326 123.115 79.4997 118.663 93.6371C115.582 103.42 108.42 112.267 99.0136 117.909C89.8146 123.425 79.7273 125.193 71.3366 122.76C61.0359 119.773 56.3877 112.135 54.5333 107.847C52.325 102.74 51.9612 97.8304 52.6919 94.8604ZM80.9535 51.2962C74.5449 50.7325 68.5138 52.511 64.4029 56.1804C56.9399 62.8414 54.206 71.0285 56.9001 78.6404C58.8078 84.0339 63.3199 88.3433 68.2706 89.8207C63.1518 91.6736 55.3531 92.5678 47.4636 86.1426C44.0471 83.3608 42.2686 79.685 42.1793 75.2172C42.0421 68.4517 46.5113 57.1821 55.0624 49.6234C62.1945 43.3188 73.0672 41.4066 82.1187 44.8595C85.7389 46.2415 91.3157 49.3754 94.5272 56.1257C90.4874 53.4169 85.818 51.7256 80.9535 51.2962ZM72.0211 75.5873C73.2528 74.075 74.998 73.1326 76.9369 72.9347C77.1895 72.9098 77.4427 72.8966 77.6939 72.8966C79.365 72.8966 80.9733 73.4663 82.2874 74.5364C85.4081 77.0785 85.8793 81.6832 83.3389 84.8038C82.1075 86.3165 80.3617 87.2568 78.4229 87.4553C76.4837 87.6535 74.583 87.085 73.0706 85.8536C71.56 84.6239 70.6176 82.877 70.4194 80.9379C70.2212 78.9993 70.7895 77.098 72.0211 75.5873ZM74.9502 92.2702C75.8324 92.4705 76.7387 92.5727 77.6575 92.5727C78.0823 92.5727 78.5108 92.5512 78.9385 92.5065C82.2281 92.1708 85.1884 90.5726 87.2756 88.0104C91.585 82.7198 90.7867 74.9079 85.4955 70.5985C82.9322 68.5107 79.709 67.5457 76.4213 67.8829C73.1319 68.2203 70.1717 69.8169 68.0839 72.3807C65.9961 74.9428 65.0311 78.1658 65.3682 81.4551C65.4077 81.8355 65.4656 82.2119 65.5366 82.584C63.8541 81.1097 62.4641 79.1428 61.6873 76.9461C59.6851 71.2931 61.8522 65.2635 67.7848 59.9671C70.8542 57.2282 75.4907 55.9109 80.507 56.354C87.0545 56.9326 93.1867 60.2896 97.3325 65.5654C106.633 77.3987 103.546 85.9527 96.0513 95.156C87.9651 105.085 79.0774 105.122 74.4971 104.259C69.2112 103.262 64.5633 100.19 62.0178 96.2155C62.8095 96.1775 63.6046 96.1064 64.4029 95.9944C66.935 95.6355 70.8127 94.6966 74.9502 92.2702ZM87.084 8.44545C92.0447 7.50539 96.5686 7.76289 98.6779 7.97485C100.464 11.3668 106.025 20.3997 117.351 26.932C125.726 31.7621 128.949 38.6116 130.177 43.5076C131.346 48.1635 131.146 52.6315 130.386 56.1094C129.871 55.6368 129.334 55.1888 128.768 54.7723C123.455 50.8597 117.313 50.4959 114.065 50.6363C115.852 48.3107 117.144 44.9056 115.759 40.7764C113.08 32.8016 105.956 31.1601 97.7075 29.261C91.7354 27.8859 84.9667 26.3254 77.917 22.1781C75.3781 20.6838 72.9403 19.6773 70.6193 19.0477C73.9551 13.4489 79.4775 9.88564 87.084 8.44545ZM135.512 44.1686C141.007 47.0662 149.854 53.1093 152.538 62.956C151.998 64.4483 150.062 68.7854 148.333 72.6583C145.76 78.4284 143.513 83.5066 141.923 87.4224C141.644 86.5545 141.358 85.682 141.068 84.8021C139.654 80.5079 138.193 76.0682 137.625 71.6664C137.092 67.5162 135.956 63.941 134.242 60.9607C136.134 56.0051 136.586 49.9076 135.512 44.1686ZM150.208 80.9493C151.152 78.8057 152.103 76.67 152.971 74.728C157.933 63.6085 157.91 63.5128 157.626 62.3456C153.799 46.6448 137.63 39.2761 133.551 37.6463C131.404 32.5834 127.385 26.8561 119.888 22.5319C107.508 15.3946 102.726 4.7187 102.68 4.61731C102.339 3.82733 101.62 3.26361 100.772 3.12155C100.497 3.07542 93.9672 2.00562 86.2975 3.42574C79.6113 4.6657 74.1319 7.41888 70.0688 11.5235C65.707 8.00435 59.7779 6.71196 55.5628 6.25081C51.3792 5.79138 47.2671 5.98787 46.2752 6.32471C45.4472 6.60599 44.7927 7.31033 44.5924 8.16132C43.9844 10.7363 42.0882 13.6359 40.2553 16.4378C37.356 20.8691 34.3657 25.4426 35.017 30.3403C24.7244 35.7716 13.8137 46.0299 12.1807 47.5901C11.8863 47.8693 11.6648 48.2165 11.5322 48.602C11.4463 48.8498 9.43011 54.7869 8.39838 62.6945C6.98856 73.5027 8.07958 82.4035 11.6416 89.1496C11.7473 89.3509 11.8616 89.5443 11.9719 89.7413C8.71603 95.6997 9.97375 101.133 11.0865 105.928C11.9524 109.666 12.7012 112.89 11.481 116.129C11.202 116.869 11.2896 117.709 11.7075 118.38C12.6169 119.838 24.4635 128.3 36.933 129.597C37.1429 130.439 37.4107 131.293 37.7611 132.15C40.5993 139.065 47.4788 144.579 58.2094 148.539C63.7006 150.564 67.5797 152.488 71.0029 154.184C75.2412 156.283 78.9004 158.096 83.699 159.035C85.0377 159.296 86.4014 159.427 87.7838 159.427C94.2923 159.427 101.187 156.551 107.587 151.091C108.87 149.997 110.703 148.926 112.645 147.794C119.316 143.9 128.409 138.582 127.89 124.997C129.059 124.353 130.202 123.662 131.32 122.901C131.481 123.069 131.67 123.218 131.883 123.34C132.898 123.919 133.907 124.176 134.91 124.176C139.392 124.176 143.776 119.006 148.039 113.975C151.236 110.203 154.857 105.928 157.804 104.751C158.56 104.449 159.864 103.596 160.104 101.281C160.596 96.5447 156.317 85.794 150.208 80.9493Z" fill="url(#paint0_linear)"/>
<path d="M49.4084 11.6444C48.3564 14.3753 46.6495 16.9855 44.9962 19.5133L44.9842 19.5319C43.1863 22.2811 41.4763 24.8959 40.8441 27.2309C42.3556 26.7666 43.7566 26.4968 45.0223 26.4257C46.1904 25.2093 47.4358 24.0985 48.7262 23.1223C52.1977 20.4949 57.8083 17.437 64.9485 17.6234C65.3042 16.9377 65.6924 16.2606 66.1077 15.6018C60.6781 11.5889 51.5979 11.5829 49.4084 11.6444ZM39.3816 28.9363L39.5145 28.004C39.9155 25.1889 41.9119 22.1364 44.0252 18.9049L44.0376 18.8863C45.7278 16.3013 47.4759 13.6283 48.4672 10.8909L48.5975 10.5311L48.9796 10.5136C50.9798 10.422 61.2604 10.2114 67.2336 15.0235L67.6387 15.35L67.3528 15.7843C66.7845 16.6484 66.2641 17.5501 65.8058 18.4652L65.6396 18.7966L65.2696 18.7809C58.295 18.4865 52.7989 21.4762 49.4176 24.0358C48.1181 25.0191 46.8655 26.1442 45.6943 27.3813L45.5333 27.5511L45.2993 27.56C43.8296 27.6139 42.1377 27.9725 40.2707 28.6252L39.3816 28.9363ZM97.8128 44.2673C101.426 44.2673 105.189 45.5531 108.791 48.0645C109.783 47.1777 111.311 45.2858 110.402 42.5765C108.804 37.8191 104.515 36.627 96.4379 34.7672C90.3845 33.3732 82.8502 31.6382 75.0512 27.0496C64.6718 20.9423 56.4558 25.0758 52.4821 28.0836C47.8606 31.5815 42.9763 38.5979 42.339 44.6869C46.2943 43.0763 49.9558 42.8449 52.9966 44.0175C61.782 37.2958 73.6798 35.5921 84.1328 39.5813C87.5199 40.8739 90.5454 42.7057 93.1316 45.0281C94.6443 44.5193 96.2142 44.2673 97.8128 44.2673ZM108.834 49.5044L108.484 49.2518C103.385 45.5677 97.9537 44.4901 93.1938 46.2199L92.8664 46.3388L92.61 46.1027C90.0766 43.7692 87.0868 41.9349 83.7244 40.6514C73.5403 36.7656 61.9355 38.4788 53.44 45.1231L53.1741 45.3311L52.8637 45.1996C49.8452 43.9198 46.0678 44.2338 41.9394 46.1059L41.1002 46.4866L41.1306 45.5654C41.356 38.687 46.791 30.9539 51.7904 27.1699C55.9926 23.9897 64.6781 19.6156 75.6321 26.062C83.2793 30.5613 90.7182 32.2744 96.6954 33.6504C105.182 35.605 109.695 36.8734 111.488 42.2119C112.737 45.934 110.285 48.3656 109.173 49.238L108.834 49.5044ZM115.179 50.0403C118.649 50.0406 124.219 50.7117 129.107 54.3116C129.414 54.537 129.716 54.7736 130.017 55.0245C130.677 51.3144 130.542 47.3132 129.622 43.648C128.421 38.8597 125.268 32.1595 117.065 27.4291C105.952 21.0199 100.336 12.2652 98.3169 8.51605C96.0369 8.30724 91.8115 8.13338 87.1905 9.009C80.0612 10.3587 74.7883 13.6197 71.5055 18.7067C73.748 19.385 75.9987 20.3852 78.2074 21.685C85.1869 25.791 91.9069 27.3383 97.836 28.7035C106.252 30.6412 113.52 32.3145 116.302 40.595C117.395 43.8537 116.993 47.1671 115.179 50.0403ZM130.732 57.2066L129.998 56.5317C129.472 56.0485 128.959 55.624 128.428 55.2345C123.244 51.4172 117.221 51.0758 114.089 51.2092L112.862 51.2625L113.611 50.2878C115.114 48.3312 116.613 45.1246 115.216 40.9593C112.638 33.2872 105.66 31.6803 97.5788 29.82C91.5692 28.4362 84.7578 26.868 77.6265 22.6723C75.264 21.282 72.856 20.2486 70.4695 19.6015L69.7408 19.4036L70.1272 18.7551C73.55 13.0099 79.2194 9.35187 86.9774 7.88333C91.9536 6.9404 96.4794 7.17899 98.7351 7.40526L99.041 7.4362L99.1845 7.70859C101.024 11.2005 106.503 20.0151 117.637 26.4366C126.188 31.3676 129.478 38.3662 130.733 43.369C131.776 47.5217 131.851 52.0897 130.945 56.2321L130.732 57.2066ZM77.6938 73.4701C77.4664 73.4701 77.2307 73.4819 76.9932 73.5054C75.2093 73.6878 73.6004 74.5557 72.4653 75.9495V75.9498C71.3308 77.3415 70.8066 79.0925 70.9891 80.8804C71.1721 82.6677 72.0397 84.2766 73.4323 85.4103C74.8258 86.5446 76.5776 87.0679 78.3647 86.8863C80.1523 86.703 81.7612 85.8354 82.8943 84.443C85.235 81.5676 84.8005 77.3229 81.9253 74.9811C80.7114 73.9926 79.2483 73.4701 77.6938 73.4701ZM77.6658 88.0678C75.8621 88.0678 74.1272 87.4531 72.7091 86.2985C71.079 84.9718 70.0633 83.0891 69.8493 80.997C69.6357 78.9043 70.2492 76.8549 71.5771 75.2262C72.9053 73.595 74.7883 72.579 76.8786 72.3656C77.1553 72.3382 77.4292 72.3244 77.6938 72.3244C79.5147 72.3244 81.2281 72.9359 82.6488 74.0928C86.0138 76.8337 86.5222 81.8013 83.7831 85.1663C82.4563 86.7958 80.5736 87.8115 78.4812 88.0257C78.2086 88.0538 77.9362 88.0675 77.6658 88.0678ZM134.872 60.9118C136.55 63.9128 137.667 67.5049 138.194 71.594C138.754 75.9475 140.207 80.3582 141.612 84.6235C141.738 85.0047 141.863 85.3845 141.986 85.7632C143.575 81.9434 145.648 77.2725 147.81 72.4255C149.461 68.7257 151.325 64.5504 151.937 62.9312C149.392 53.8986 141.445 48.1335 136.272 45.2351C137.084 50.6332 136.586 56.2693 134.872 60.9118ZM141.861 89.0987L141.378 87.5986C141.099 86.7319 140.813 85.8606 140.524 84.9818C139.102 80.6656 137.632 76.2024 137.057 71.7404C136.537 67.6937 135.422 64.1634 133.745 61.2469L133.61 61.0112L133.707 60.7569C135.552 55.9248 136.004 49.9169 134.948 44.2747L134.73 43.1098L135.778 43.6626C141.053 46.4436 150.316 52.6285 153.091 62.806L153.139 62.981L153.077 63.1517C152.528 64.6684 150.577 69.0376 148.856 72.8924C146.418 78.3595 144.093 83.6015 142.454 87.6388L141.861 89.0987ZM72.7065 43.7311C66.3981 43.7311 60.1024 45.9335 55.4418 50.0532C47.0193 57.4981 42.6174 68.5693 42.7518 75.2062C42.8377 79.4978 44.5445 83.0281 47.825 85.699C54.7272 91.32 61.556 91.1931 66.5021 89.7904C61.969 87.8633 58.0885 83.7192 56.3598 78.8321C53.584 70.9891 56.3765 62.5774 64.0216 55.7535C68.2479 51.9812 74.4368 50.1483 81.0036 50.7263H81.0038C85.1955 51.0964 89.3081 52.3982 93.0151 54.5158C89.9096 49.3383 85.3565 46.7094 81.9144 45.3952C78.975 44.2742 75.8389 43.7311 72.7065 43.7311ZM60.7975 91.7553C56.6236 91.7553 51.8783 90.4776 47.1018 86.5875C43.5483 83.694 41.6994 79.8724 41.6063 75.2294C41.4665 68.3353 46.0022 56.868 54.6828 49.1951C61.9685 42.7549 73.0763 40.7986 82.3229 44.3249C86.3501 45.8624 91.8258 49.1154 95.0441 55.8804L95.9404 57.7639L94.2078 56.6022C90.2077 53.92 85.6071 52.2825 80.903 51.8675H80.9033C74.6514 51.3178 68.7758 53.0456 64.7844 56.6085C57.5041 63.1065 54.8271 71.0673 57.44 78.45C59.2514 83.5717 63.567 87.8198 68.4341 89.2726L70.098 89.7689L68.4653 90.3601C66.3036 91.1424 63.6876 91.7553 60.7975 91.7553ZM16.6524 51.1428C15.3987 55.2161 10.1326 74.2048 16.6438 86.524C17.6887 88.4989 18.953 90.1679 20.4791 91.5803C19.9034 89.9268 19.4947 88.1741 19.2392 86.2742C18.2384 78.8633 19.5835 71.1357 23.1289 63.9265C26.2272 57.6265 30.86 52.0451 36.1985 48.1734C35.6884 44.145 36.7742 39.2731 39.2149 34.5452C35.992 36.0817 32.1842 38.4977 27.8671 41.7473C22.7228 45.6201 18.3867 49.5348 16.6524 51.1428ZM23.2664 95.1708L21.5046 93.897C19.0805 92.1446 17.1044 89.8443 15.631 87.0596C8.82653 74.1856 14.4142 54.4769 15.6035 50.6564L15.6487 50.5112L15.7605 50.4072C17.4272 48.8579 21.8761 44.823 27.1782 40.8321C32.2804 36.9913 36.7006 34.2895 40.3162 32.8014L41.8796 32.1578L41.0297 33.6192C38.0635 38.718 36.7333 44.0877 37.38 48.3512L37.4327 48.6995L37.1454 48.9038C27.2461 55.9385 18.2215 70.1747 20.3746 86.1212C20.7252 88.7281 21.3748 91.0418 22.361 93.1941L23.2664 95.1708ZM63.0609 96.7215C65.6528 100.23 69.894 102.808 74.6032 103.696C79.0561 104.536 87.7075 104.495 95.607 94.795C102.928 85.8042 105.947 77.4532 96.8819 65.9204C92.8335 60.7683 86.8467 57.4898 80.4567 56.9253C75.5983 56.4968 71.1182 57.7611 68.166 60.3951C62.4176 65.5271 60.3083 71.3377 62.2271 76.7555C62.7673 78.2828 63.6447 79.7484 64.7557 81.0013C64.5489 77.7385 65.5635 74.5672 67.6398 72.0196C69.8233 69.3378 72.9213 67.6665 76.3628 67.3139C79.8031 66.9601 83.1744 67.9704 85.8571 70.1553C88.535 72.3359 90.2035 75.4339 90.5555 78.8791C90.9078 82.3237 89.9007 85.6953 87.7198 88.3726C85.5343 91.0553 82.4366 92.7261 78.9965 93.0769C77.7001 93.213 76.3399 93.1468 75.0458 92.8779C70.8954 95.271 67.0197 96.2025 64.4833 96.5622C64.0204 96.6273 63.5447 96.6802 63.0609 96.7215ZM78.2014 105.176C76.7455 105.177 75.4554 105.023 74.391 104.823C69.0204 103.81 64.2144 100.708 61.5351 96.5253L61.0012 95.6915L61.9899 95.644C62.7899 95.6056 63.5748 95.5328 64.3232 95.4277C66.7965 95.0774 70.5981 94.1591 74.6605 91.7766L74.8559 91.662L75.077 91.7121C76.3178 91.9942 77.628 92.0687 78.8788 91.9375C82.0155 91.6173 84.8394 90.0943 86.8313 87.6493C88.8191 85.2089 89.7369 82.1358 89.4158 78.9954C89.095 75.855 87.574 73.031 85.1339 71.0435C82.6883 69.0516 79.6129 68.1311 76.4797 68.4533C73.3427 68.7749 70.5187 70.2988 68.528 72.7432C66.5362 75.1873 65.6164 78.261 65.9381 81.3974C65.9739 81.7423 66.0281 82.1058 66.0991 82.4773L66.4116 84.1134L65.1587 83.0155C63.3525 81.4326 61.9278 79.3451 61.147 77.1379C59.0629 71.2526 61.2845 65.0026 67.4032 59.5404C70.5903 56.6961 75.3855 55.3267 80.5573 55.7841C87.2615 56.3762 93.5398 59.8128 97.7827 65.2123C107.318 77.3436 104.164 86.1012 96.4955 95.5185C90.0935 103.38 83.1804 105.176 78.2014 105.176ZM144.603 111.063L144.166 110.693L144.603 111.063C144.603 111.063 144.603 111.063 144.603 111.063ZM144.768 96.1403C145.473 100.52 145.179 104.135 143.845 107.499C142.944 109.776 141.934 111.836 140.8 113.707C141.834 112.559 142.845 111.366 143.728 110.324L143.729 110.322C147.161 106.273 150.706 102.089 154.499 100.07C154.293 97.6109 151.951 90.8737 148.278 86.8528C146.474 91.118 145.411 93.9451 145.117 95.2618C145.049 95.5666 144.932 95.8614 144.768 96.1403ZM133.142 121.248L136.079 118.092C138.818 115.149 141.011 111.546 142.78 107.077C144.055 103.86 144.317 100.376 143.603 96.1125L143.564 95.884L143.696 95.6932C143.844 95.4772 143.947 95.2481 143.999 95.0126C144.331 93.5261 145.496 90.4504 147.561 85.6082L147.889 84.8386L148.488 85.4226C152.73 89.559 155.676 97.6212 155.659 100.415L155.657 100.768L155.341 100.925C151.635 102.765 148.06 106.984 144.603 111.063L144.166 110.693L144.602 111.064C142.296 113.786 139.138 117.514 136.801 118.969L133.142 121.248ZM53.1209 95.6087C52.6674 98.2164 52.9238 102.682 55.0592 107.621C56.8731 111.815 61.4211 119.289 71.496 122.211C79.7338 124.6 89.6561 122.852 98.7188 117.418C108.007 111.848 115.077 103.118 118.117 93.4659C122.499 79.5471 116.23 63.0331 107.637 55.1093C105.693 53.3182 101.963 50.4771 97.8649 50.4771C97.84 50.4771 97.8154 50.4774 97.7902 50.4774C100.127 54.0658 101.643 58.1913 102.301 62.7584C113.999 78.2318 107.453 90.1046 100.432 98.7251C94.377 106.162 86.4741 110.257 78.1796 110.257C76.6074 110.257 75.016 110.107 73.4504 109.811C65.4664 108.307 58.5324 103.015 55.6919 96.2876C54.8294 96.108 53.9684 95.8805 53.1209 95.6087ZM79.1145 124.401C76.3645 124.401 73.6967 124.042 71.1769 123.311C60.6509 120.259 55.9015 112.455 54.0077 108.075C51.5842 102.471 51.4515 97.5037 52.1355 94.7242L52.2859 94.1124L52.8806 94.3201C53.9724 94.7013 55.0941 95.0058 56.2146 95.224L56.5202 95.2836L56.6362 95.5723C59.2565 102.083 65.9398 107.23 73.6629 108.685C75.1589 108.968 76.6784 109.112 78.1796 109.112C86.1232 109.112 93.7105 105.166 99.544 98.0016C106.317 89.6847 112.637 78.2283 101.299 63.333L101.209 63.2139L101.188 63.0658C100.516 58.2615 98.8677 53.967 96.287 50.3007L95.7362 49.5181L96.6865 49.4024C101.641 48.7961 106.161 52.1911 108.413 54.2669C117.269 62.4333 123.729 79.4571 119.209 93.8099C116.087 103.725 108.833 112.688 99.308 118.401C92.7263 122.347 85.6876 124.401 79.1145 124.401ZM17.4269 115.879C19.5442 117.359 27.2117 122.363 35.8751 123.759C36.0327 121.745 36.5196 119.779 37.2677 118.152C35.9338 115.992 34.7085 113.705 33.6241 111.352C31.8009 107.39 29.4963 104.74 27.2673 102.176C27.2575 102.165 27.2481 102.154 27.2386 102.143C22.664 100.837 18.8055 98.6592 15.7516 95.6603C15.177 98.5535 15.8378 101.404 16.5914 104.654C17.4189 108.223 18.2728 111.904 17.4269 115.879ZM36.9535 125.074L36.3291 124.986C26.6497 123.628 18.0714 117.755 16.4499 116.591L16.1371 116.367L16.2268 115.992C17.1499 112.134 16.2992 108.466 15.4766 104.918C14.6374 101.298 13.8457 97.8844 14.8943 94.3604L15.1796 93.4015L15.8621 94.133C18.9118 97.4001 22.8989 99.7396 27.7132 101.086L27.8774 101.132L27.9899 101.26C28.0383 101.316 28.0865 101.371 28.1332 101.426C30.4137 104.049 32.7733 106.762 34.6647 110.873C35.7752 113.283 37.0357 115.62 38.4109 117.821L38.5959 118.117L38.4172 118.417C38.3914 118.461 38.3671 118.505 38.3456 118.552C37.5579 120.23 37.0733 122.323 36.981 124.444L36.9535 125.074ZM31.9616 98.0898C34.3599 100.848 37.0784 103.973 39.2779 108.749C45.232 121.679 54.7744 130.423 64.1808 131.567C67.96 132.028 71.4955 131.231 74.7098 129.199C73.0055 128.985 71.348 128.647 69.7646 128.189C57.2389 124.557 51.5965 115.291 49.3477 110.09C46.7707 104.132 46.0214 97.6278 47.3536 92.9681C46.1635 92.2469 45.0017 91.4259 43.8949 90.5248C39.133 86.6477 36.6545 81.5352 36.5287 75.3302C36.34 65.9476 41.7387 56.1548 47.1814 49.6851C45.5307 50.0065 43.6841 50.7721 41.759 51.9402C32.405 57.613 23.4947 71.2824 25.4063 85.4421C26.2227 91.4893 28.7547 94.4014 31.9605 98.0881L31.5294 98.4659L31.9616 98.0898ZM66.2455 132.84C65.5205 132.84 64.7861 132.795 64.0425 132.705C54.2445 131.512 44.3564 122.517 38.2373 109.229C36.1063 104.601 33.445 101.541 31.0972 98.8417L31.5294 98.4659L31.0957 98.84C27.7645 95.0086 25.1334 91.9825 24.2709 85.5953C22.2942 70.9527 31.4999 56.8219 41.1649 50.9606C43.831 49.3431 46.3892 48.4478 48.5626 48.3718L49.9065 48.3252L49.0094 49.3265C43.4028 55.5856 37.4808 65.6972 37.6742 75.307C37.7928 81.1602 40.1292 85.9815 44.6184 89.6363C45.8 90.5987 47.0459 91.4649 48.3214 92.2111L48.7187 92.4434L48.5772 92.8813C47.1476 97.3124 47.8459 103.732 50.3995 109.636C52.5681 114.651 58.0091 123.587 70.0834 127.088C72.07 127.663 74.1807 128.042 76.3559 128.216L77.86 128.337L76.6549 129.245C73.483 131.635 69.99 132.84 66.2455 132.84ZM79.975 133.086C86.0995 137.765 95.1939 139.621 102.285 133.398C108.273 128.14 114.145 125.38 119.326 122.945L119.334 122.941C127.37 119.161 133.717 116.176 138.062 105.207C140.122 100 137.975 93.4768 135.701 86.5704C134.204 82.0278 132.657 77.3304 132.021 72.3886C131.248 66.3769 129.026 61.9814 125.418 59.3233C122.61 57.2555 119.412 56.532 116.909 56.3275C123.281 65.2742 128.743 80.4396 124.053 95.3357C120.563 106.418 112.496 116.412 101.919 122.754C96.2715 126.143 90.119 128.347 84.1102 129.137C82.827 130.63 81.4392 131.954 79.975 133.086ZM91.9249 138.524C87.0687 138.524 82.3125 136.496 78.6731 133.517L78.0986 133.046L78.6995 132.61C80.368 131.398 81.943 129.923 83.3812 128.227L83.5253 128.057L83.7467 128.029C89.6684 127.284 95.7485 125.12 101.33 121.772C111.669 115.572 119.553 105.811 122.96 94.9917C127.694 79.9532 121.779 64.6088 115.274 56.0385L114.555 55.0907L115.744 55.1196C118.526 55.1866 122.579 55.8105 126.097 58.401C129.968 61.2515 132.343 65.9086 133.157 72.2425C133.779 77.0757 135.309 81.7205 136.789 86.212C139.13 93.3213 141.34 100.036 139.127 105.629C134.615 117.02 128.087 120.09 119.822 123.978L119.813 123.982C114.701 126.385 108.907 129.108 103.041 134.259C99.6033 137.276 95.733 138.524 91.9249 138.524ZM42.0351 124.777C41.9667 126.537 42.2863 128.291 42.9901 130.006C45.1704 135.321 51.1098 139.896 60.1662 143.239C65.9607 145.377 69.9725 147.367 73.5122 149.122C77.5475 151.121 80.7317 152.698 84.7842 153.492C90.7073 154.648 97.5014 152.271 103.921 146.793C105.586 145.373 107.632 144.179 109.798 142.915L109.799 142.914C115.384 139.655 121.151 136.289 122.123 128.506C122.073 128.53 122.023 128.553 121.972 128.577C116.924 130.951 111.712 133.401 106.391 138.074C102.247 141.713 97.2703 143.636 91.9997 143.636C90.9135 143.636 89.8022 143.555 88.6962 143.396C83.5302 142.647 78.2701 140.095 74.2286 136.382C71.6593 137.399 68.958 137.914 66.1928 137.914C65.277 137.914 64.3467 137.857 63.4273 137.744C57.7109 137.05 51.927 134.229 46.7014 129.589C45.0888 128.158 43.5234 126.543 42.0351 124.777ZM87.7851 154.923C86.6912 154.923 85.6157 154.822 84.5642 154.616C80.3611 153.793 77.1158 152.186 73.0075 150.151C69.4893 148.406 65.5065 146.431 59.7695 144.313C50.4041 140.857 44.2352 136.061 41.93 130.441C40.9664 128.093 40.664 125.675 41.0309 123.253L41.2274 121.957L42.0451 122.982C43.7526 125.122 45.5751 127.057 47.4621 128.733C52.5128 133.217 58.0816 135.941 63.5659 136.607C64.4401 136.714 65.3237 136.768 66.1928 136.768C68.9319 136.768 71.6052 136.235 74.1384 135.182L74.5024 135.031L74.7957 135.34C74.8126 135.358 74.8292 135.376 74.847 135.393C78.7399 139.031 83.849 141.536 88.8604 142.262C89.9119 142.413 90.9685 142.491 91.9997 142.491C96.9876 142.491 101.703 140.666 105.636 137.213C111.078 132.433 116.364 129.948 121.476 127.544C121.841 127.373 122.194 127.206 122.545 127.04L123.43 126.62L123.362 127.597C122.729 136.695 116.45 140.359 110.377 143.903L110.375 143.904C108.255 145.142 106.252 146.311 104.664 147.664C99.096 152.416 93.2164 154.923 87.7851 154.923ZM71.2626 153.674C75.4617 155.753 79.0879 157.55 83.8089 158.474C85.1053 158.726 86.4429 158.855 87.7837 158.855C94.2078 158.855 100.927 156.019 107.215 150.656C108.55 149.518 110.485 148.39 112.357 147.3C118.884 143.489 127.823 138.27 127.317 125.019L127.304 124.666L127.613 124.496C128.84 123.82 129.946 123.145 130.997 122.428L131.397 122.155L131.732 122.504C131.86 122.637 132.007 122.752 132.169 122.844C133.065 123.355 133.962 123.604 134.91 123.604C139.129 123.604 143.436 118.521 147.602 113.605C150.846 109.777 154.514 105.448 157.592 104.22C158.227 103.966 159.325 103.238 159.534 101.222C159.994 96.7914 155.84 86.1482 149.852 81.3991L149.505 81.1242L149.683 80.7194C150.628 78.5743 151.58 76.4378 152.448 74.495C157.33 63.5544 157.301 63.4324 157.069 62.482C153.356 47.2459 137.967 40.0281 133.339 38.1789L133.117 38.0901L133.024 37.8707C130.379 31.6334 125.863 26.64 119.602 23.0287C107.274 15.922 102.362 5.30544 102.159 4.85716C101.889 4.23074 101.337 3.79794 100.677 3.68738C100.406 3.64212 93.9623 2.58948 86.4016 3.98984C79.8441 5.20575 74.4858 7.87643 70.4758 11.9274L70.1117 12.2952L69.709 11.9701C65.4486 8.53265 59.6309 7.27295 55.5005 6.82095C51.1479 6.34319 47.245 6.60126 46.4593 6.86792C45.8163 7.08618 45.3024 7.64586 45.1501 8.2932C44.5182 10.9693 42.5945 13.9093 40.7344 16.7518C37.8962 21.0907 34.9614 25.5771 35.5847 30.2654L35.6374 30.6612L35.2845 30.8474C25.1826 36.1782 14.5958 46.075 12.5765 48.0052C12.3496 48.22 12.1766 48.4904 12.0741 48.7889C12.0529 48.8496 10.0035 54.8217 8.96659 62.7693C7.57224 73.4581 8.64263 82.2441 12.148 88.883C12.2187 89.0173 12.2926 89.1471 12.3668 89.2771L12.6266 89.7383L12.4745 90.0167C9.32119 95.7872 10.5554 101.106 11.6444 105.799C12.5321 109.63 13.2974 112.932 12.0171 116.331C11.802 116.902 11.8681 117.555 12.1938 118.077C13.0694 119.481 24.7026 127.75 36.9922 129.028L37.3918 129.069L37.4889 129.459C37.708 130.339 37.9704 131.148 38.2914 131.934C41.0658 138.693 47.8339 144.1 58.4075 148.002C63.9156 150.034 67.8039 151.96 71.2348 153.66L71.0085 154.187L71.2626 153.674ZM87.7837 160C86.3693 160 84.958 159.865 83.5892 159.598C78.717 158.645 75.0269 156.817 70.7542 154.7L70.7261 154.687C67.321 152.999 63.4616 151.087 58.0111 149.077C47.1239 145.059 40.1326 139.438 37.2311 132.368C36.9366 131.648 36.6889 130.91 36.4775 130.123C23.7416 128.651 12.1686 120.202 11.2214 118.684C10.7081 117.86 10.605 116.829 10.945 115.927C12.103 112.853 11.374 109.707 10.5299 106.065C9.41056 101.241 8.14568 95.7909 11.3176 89.75C11.2552 89.6401 11.1936 89.5295 11.1343 89.4166C7.51667 82.5652 6.40474 73.5495 7.83031 62.621C8.88238 54.5588 10.9699 48.4755 10.9911 48.4148C11.1526 47.9442 11.4279 47.5148 11.7865 47.1751C13.8007 45.2503 24.2741 35.4598 34.4034 30.0185C33.9282 25.0632 36.8997 20.5212 39.7757 16.1248C41.5817 13.3645 43.4492 10.5102 44.035 8.03026C44.279 6.99223 45.067 6.13094 46.091 5.78293C47.2971 5.37332 51.6309 5.24327 55.6254 5.68208C59.7801 6.13666 65.5935 7.38924 70.0243 10.7617C74.159 6.74304 79.596 4.08665 86.1931 2.86302C93.95 1.42657 100.589 2.51071 100.867 2.5574C101.912 2.73242 102.786 3.41814 103.205 4.39143C103.399 4.81908 108.162 15.1114 120.174 22.0365C126.583 25.7326 131.228 30.8342 133.985 37.2042C138.991 39.2396 154.397 46.6785 158.182 62.2105C158.516 63.5816 158.536 63.6639 153.494 74.9622C152.681 76.7827 151.793 78.774 150.907 80.7819C156.742 85.6756 161.206 96.2197 160.673 101.34C160.402 103.954 158.893 104.933 158.017 105.284C155.204 106.407 151.634 110.619 148.484 114.336C144.142 119.461 139.66 124.75 134.91 124.75C133.774 124.75 132.66 124.443 131.599 123.839C131.486 123.774 131.377 123.702 131.273 123.623C130.392 124.209 129.471 124.771 128.474 125.329C128.837 139.006 119.654 144.366 112.934 148.289C111.105 149.355 109.215 150.456 107.958 151.528C101.461 157.07 94.4842 160 87.7837 160Z" fill="url(#paint1_linear)"/>
</g>
<defs>
<linearGradient id="paint0_linear" x1="151.993" y1="54.717" x2="17.0659" y2="124.25" gradientUnits="userSpaceOnUse">
<stop stop-color="#5156AA"/>
<stop offset="1" stop-color="#F962A6"/>
</linearGradient>
<linearGradient id="paint1_linear" x1="7.22894" y1="114.317" x2="148.682" y2="41.4726" gradientUnits="userSpaceOnUse">
<stop stop-color="#F962A6"/>
<stop offset="1" stop-color="#5156AA"/>
</linearGradient>
<clipPath id="clip0">
<rect width="160" height="160" fill="white" transform="translate(0.716492 0.000244141)"/>
</clipPath>
</defs>
</svg>
