<svg width="88" height="88" viewBox="0 0 88 88" fill="none" xmlns="http://www.w3.org/2000/svg">
<g clip-path="url(#clip0)">
<path d="M46.3217 0.702175C51.057 0.628906 55.7652 0.672325 60.468 0.628906C60.753 6.1675 62.7448 11.8092 66.799 15.725C70.8451 19.7386 76.5682 21.5757 82.1367 22.1971V36.7668C76.9183 36.5959 71.6755 35.5104 66.9401 33.2635C64.8777 32.33 62.9565 31.1278 61.0759 29.8985C61.0515 40.471 61.1193 51.0299 61.0081 61.5589C60.7258 66.6172 59.0569 71.651 56.1153 75.8192C51.3827 82.7581 43.1684 87.2818 34.7316 87.4229C29.5566 87.7187 24.3871 86.3076 19.9774 83.7079C12.6695 79.3986 7.52708 71.5099 6.7781 63.0433C6.68376 61.2502 6.66927 59.4538 6.73468 57.6594C7.38596 50.7748 10.7916 44.1887 16.0778 39.7084C22.0696 34.4901 30.463 32.0043 38.3218 33.4752C38.3951 38.8346 38.1807 44.1887 38.1807 49.5482C34.5905 48.3868 30.3952 48.7124 27.2582 50.8915C24.9631 52.4034 23.2286 54.6279 22.322 57.2225C21.573 59.0569 21.7874 61.0949 21.8308 63.0433C22.6911 68.9808 28.4006 73.9712 34.4955 73.4312C38.5362 73.3878 42.4086 71.0432 44.5144 67.6104C45.1955 66.4082 45.958 65.1789 45.9988 63.7651C46.3542 57.293 46.2131 50.8481 46.2565 44.376C46.2864 29.79 46.2131 15.2447 46.3244 0.704889L46.3217 0.702175Z" fill="#464646" fill-opacity="0.8"/>
</g>
<defs>
<clipPath id="clip0">
<rect width="86.8374" height="86.8374" fill="white" transform="translate(0.981689 0.628906)"/>
</clipPath>
</defs>
</svg>
