<svg width="161" height="160" viewBox="0 0 161 160" fill="none" xmlns="http://www.w3.org/2000/svg">
<g clip-path="url(#clip0)">
<path d="M80.3507 105.938C78.6257 105.938 77.2257 107.338 77.2257 109.063C77.2257 110.788 78.6257 112.188 80.3507 112.188C82.0757 112.188 83.4757 110.788 83.4757 109.063C83.4757 107.338 82.0757 105.938 80.3507 105.938Z" fill="url(#paint0_linear)"/>
<path d="M120.976 141.562V124.688C120.976 107.159 109.77 91.0131 93.7248 85.4237C91.2951 84.5784 89.7257 82.4496 89.7257 80.0002C89.7257 77.5318 91.3432 75.4062 93.7257 74.5765C110.025 68.8987 120.976 53.4965 120.976 36.2502V18.4381C128.039 17.0102 133.476 10.7515 133.476 3.12524C133.476 1.39962 132.076 0.000244141 130.351 0.000244141H30.3507C28.6251 0.000244141 27.2257 1.39962 27.2257 3.12524C27.2257 10.6709 32.6023 16.984 39.7257 18.4359V36.2502C39.7257 53.4965 50.6766 68.8987 66.9766 74.5768C69.4063 75.4221 70.9757 77.5509 70.9757 80.0002C70.9757 82.4687 69.3582 84.5943 66.9757 85.424C50.9313 91.0131 39.7257 107.159 39.7257 124.688V141.565C32.6023 143.016 27.2257 149.329 27.2257 156.875C27.2257 158.601 28.6251 160 30.3507 160H130.351C132.076 160 133.476 158.601 133.476 156.875C133.476 152.704 131.85 148.781 128.898 145.828C126.697 143.627 123.956 142.165 120.976 141.562ZM34.0113 6.21899H126.694C125.383 9.93118 121.914 12.5002 117.851 12.5002H42.8507C38.7766 12.5002 35.301 9.85681 34.0113 6.21899ZM45.9757 124.688C45.9757 109.774 55.457 96.0553 69.0317 91.3262C73.9095 89.6271 77.2257 85.1493 77.2257 80.0002C77.2257 74.9312 73.9326 70.3799 69.032 68.6743C55.241 63.8702 45.9757 50.8402 45.9757 36.2502V18.7502H114.726V36.2502C114.726 50.8402 105.46 63.8702 91.6698 68.6743C86.792 70.3734 83.4757 74.8512 83.4757 80.0002C83.4757 85.0693 86.7688 89.6206 91.6695 91.3262C105.244 96.0553 114.726 109.774 114.726 124.688V141.25H108.281C106.885 130.145 97.9963 126.085 89.6132 123.164C86.9745 122.248 84.536 120.719 82.5623 118.742C81.976 118.155 81.1804 117.825 80.351 117.825C79.5216 117.825 78.726 118.155 78.1398 118.742C76.1404 120.744 73.7685 122.232 71.0888 123.165C62.7073 126.085 53.817 130.144 52.4213 141.25H45.9757V124.688ZM101.957 141.25H58.7438C59.9098 134.906 64.8823 131.945 73.1435 129.067C75.7391 128.164 78.1882 126.819 80.3504 125.12C82.5157 126.821 84.966 128.167 87.5598 129.067C95.8201 131.946 100.792 134.907 101.957 141.25ZM34.0113 153.75C35.301 150.112 38.7766 147.5 42.8507 147.5H117.851C120.353 147.5 122.707 148.476 124.479 150.247C125.485 151.254 126.234 152.448 126.694 153.75H34.0113Z" fill="url(#paint1_linear)"/>
<path d="M106.994 33.5918C106.072 33.0227 104.922 32.9712 103.953 33.4549C96.6654 37.0993 88.5038 39.0252 80.3507 39.0252C72.1976 39.0252 64.036 37.0993 56.7482 33.4552C55.7798 32.9709 54.6295 33.0224 53.7079 33.5921C52.7863 34.1618 52.2257 35.1671 52.2257 36.2502C52.2257 48.1834 59.8045 58.8418 71.0882 62.7743C73.727 63.6902 76.1654 65.2193 78.1391 67.1959C78.7254 67.7827 79.521 68.1127 80.3504 68.1127C81.1798 68.1127 81.9754 67.7827 82.5616 67.1959C84.561 65.1937 86.9329 63.7055 89.6126 62.7731C95.1498 60.8446 99.8745 57.2974 103.275 52.5143C106.678 47.7299 108.476 42.1062 108.476 36.2502C108.476 35.1671 107.915 34.1612 106.994 33.5918ZM98.1823 48.8924C95.537 52.6124 91.8626 55.3712 87.5579 56.8705C84.9623 57.774 82.5132 59.1193 80.351 60.8177C78.1857 59.1165 75.7354 57.7715 73.1416 56.8709C66.0029 54.3834 60.7707 48.4327 59.0698 41.3034C65.8388 43.9124 73.0979 45.2752 80.351 45.2752C87.6054 45.2752 94.8663 43.9115 101.636 41.3015C100.992 44.008 99.8291 46.5765 98.1823 48.8924Z" fill="url(#paint2_linear)"/>
<path d="M80.3507 86.2502C78.6251 86.2502 77.2257 87.6496 77.2257 89.3752V96.5627C77.2257 98.2884 78.6251 99.6877 80.3507 99.6877C82.0763 99.6877 83.4757 98.2884 83.4757 96.5627V89.3752C83.4757 87.6496 82.0763 86.2502 80.3507 86.2502Z" fill="url(#paint3_linear)"/>
</g>
<defs>
<linearGradient id="paint0_linear" x1="80.3507" y1="105.938" x2="80.3507" y2="112.188" gradientUnits="userSpaceOnUse">
<stop stop-color="#8277BB"/>
<stop offset="1" stop-color="#E371AF"/>
</linearGradient>
<linearGradient id="paint1_linear" x1="80.3507" y1="0.000244141" x2="80.3507" y2="160" gradientUnits="userSpaceOnUse">
<stop stop-color="#8277BB"/>
<stop offset="1" stop-color="#E371AF"/>
</linearGradient>
<linearGradient id="paint2_linear" x1="80.3507" y1="33.1252" x2="80.3507" y2="68.1127" gradientUnits="userSpaceOnUse">
<stop stop-color="#8277BB"/>
<stop offset="1" stop-color="#E371AF"/>
</linearGradient>
<linearGradient id="paint3_linear" x1="80.3507" y1="86.2502" x2="80.3507" y2="99.6877" gradientUnits="userSpaceOnUse">
<stop stop-color="#8277BB"/>
<stop offset="1" stop-color="#E371AF"/>
</linearGradient>
<clipPath id="clip0">
<rect width="160" height="160" fill="white" transform="translate(0.350708 0.000244141)"/>
</clipPath>
</defs>
</svg>
