<svg width="104" height="105" viewBox="0 0 104 105" fill="none" xmlns="http://www.w3.org/2000/svg">
<g clip-path="url(#clip0)">
<path d="M28.2176 89.6076L29.8848 90.439C36.8326 94.5948 44.6134 96.5343 52.3946 96.5343C76.8493 96.5343 96.8576 76.5857 96.8576 52.2041C96.8576 40.5676 92.1332 29.208 83.7966 20.8959C75.4597 12.5839 64.3437 7.87402 52.3946 7.87402C27.9399 7.87402 7.93121 27.8226 8.20928 52.4814C8.20928 60.793 10.7103 68.8282 14.8786 75.7544L15.9901 77.417L11.5441 93.7639L28.2176 89.6076Z" fill="#00E676"/>
<path d="M88.5206 16.4634C79.0722 6.76633 66.0112 1.50195 52.6722 1.50195C24.3273 1.50195 1.53991 24.4981 1.81758 52.4815C1.81758 61.3476 4.31862 69.9368 8.48729 77.6944L1.26184 104.015L28.2175 97.0888C35.7207 101.245 44.0572 103.185 52.3945 103.185C80.4617 103.185 103.249 80.1879 103.249 52.205C103.249 38.6286 97.969 25.8835 88.521 16.4634H88.5206ZM52.6722 94.5956C45.1691 94.5956 37.666 92.6566 31.2743 88.7776L29.6071 87.9463L13.4894 92.1021L17.6576 76.3098L16.5462 74.6471C4.31862 54.9758 10.1545 28.9312 30.1628 16.7402C50.1712 4.5496 76.0154 10.3681 88.2429 30.3166C100.47 50.2651 94.6341 76.0321 74.6262 88.2231C68.2342 92.3789 60.4534 94.5952 52.6722 94.5952V94.5956ZM77.1269 63.8419L74.0701 62.4565C74.0701 62.4565 69.6241 60.517 66.845 59.1316C66.567 59.1316 66.2893 58.8544 66.0112 58.8544C65.1774 58.8544 64.6217 59.1316 64.0659 59.4089C64.0659 59.4089 63.7882 59.6857 59.8977 64.1188C59.6196 64.6728 59.0638 64.9501 58.5081 64.9501H58.23C57.9524 64.9501 57.3966 64.6728 57.1185 64.396L55.729 63.8419C52.6722 62.4565 49.8935 60.7939 47.6701 58.5775C47.1144 58.0235 46.2806 57.4694 45.7248 56.9153C43.7795 54.9758 41.8342 52.7591 40.4451 50.2655L40.167 49.7114C39.8893 49.4342 39.8893 49.1574 39.6113 48.6033C39.6113 48.0492 39.6113 47.4951 39.8893 47.2179C39.8893 47.2179 41.0008 45.8325 41.8342 45.0015C42.3904 44.4471 42.668 43.6161 43.2238 43.0621C43.7795 42.2307 44.0576 41.1226 43.7795 40.2913C43.5019 38.9059 40.167 31.4252 39.3336 29.7629C38.7774 28.9316 38.2221 28.6547 37.3883 28.3775H34.3315C33.7754 28.3775 33.22 28.6547 32.6639 28.6547L32.3858 28.9316C31.8301 29.2088 31.2743 29.7629 30.7186 30.0397C30.1628 30.5942 29.8848 31.1479 29.329 31.7024C27.3837 34.196 26.2722 37.2436 26.2722 40.2913C26.2722 42.5076 26.828 44.7243 27.6618 46.6638L27.9399 47.4951C30.4409 52.7591 33.7754 57.4694 38.2221 61.6252L39.3336 62.7334C40.167 63.5647 41.0008 64.1188 41.5566 64.9497C47.3925 69.9372 54.0618 73.5389 61.5649 75.4784C62.3987 75.7553 63.5102 75.7553 64.344 76.0325H67.1227C68.5123 76.0325 70.1795 75.4784 71.2914 74.9244C72.1248 74.3703 72.6805 74.3703 73.2363 73.8162L73.7924 73.2617C74.3482 72.7076 74.9039 72.4308 75.4596 71.8767C76.0154 71.3226 76.5711 70.7685 76.8492 70.2141C77.4049 69.1059 77.6826 67.7205 77.9607 66.3355V64.396C77.9607 64.396 77.6826 64.1188 77.1269 63.8419V63.8419Z" fill="white"/>
</g>
<defs>
<clipPath id="clip0">
<rect width="103.103" height="104" fill="white" transform="translate(0.145752 0.015625)"/>
</clipPath>
</defs>
</svg>
